<svg width="211" height="64" viewBox="0 0 211 64" fill="none" xmlns="http://www.w3.org/2000/svg">
<mask id="mask0_1310_779" style="mask-type:luminance" maskUnits="userSpaceOnUse" x="0" y="0" width="199" height="38">
<path d="M198.073 0.136963H0.0727539V37.137H198.073V0.136963Z" fill="white"/>
</mask>
<g mask="url(#mask0_1310_779)">
<mask id="mask1_1310_779" style="mask-type:luminance" maskUnits="userSpaceOnUse" x="0" y="0" width="198" height="38">
<path d="M197.455 0.136963H0.0727539V37.137H197.455V0.136963Z" fill="white"/>
</mask>
<g mask="url(#mask1_1310_779)">
<path d="M52.7602 12.1027H56.6923V29.1068H52.9176V26.8239H52.8389C51.5807 28.5558 49.772 29.3431 47.4129 29.3431C45.0536 29.3431 43.0091 28.5558 41.4362 26.9027C39.8636 25.3282 39.0771 23.2027 39.0771 20.6048C39.0771 18.0069 39.8636 15.9601 41.4362 14.3069C43.0091 12.6537 44.9751 11.7878 47.3342 11.7878C49.6934 11.7878 51.3447 12.575 52.6029 14.0707H52.7602V12.1027ZM48.042 25.8005C49.3787 25.8005 50.5585 25.3282 51.502 24.3835C52.4456 23.4388 52.9176 22.1792 52.9176 20.6835C52.9176 19.1878 52.4456 17.9282 51.502 16.9048C50.5585 15.8814 49.3787 15.409 48.042 15.409C46.6265 15.409 45.4469 15.8814 44.5031 16.9048C43.5596 17.8495 43.0878 19.1878 43.0878 20.7622C43.0878 22.258 43.5596 23.5176 44.4244 24.4622C45.4469 25.3282 46.6265 25.8005 48.042 25.8005Z" fill="#131A2A"/>
<path d="M72.7342 12.1027H76.6662V27.375C76.6662 30.1305 75.9585 32.2559 74.5429 33.9092C73.1273 35.4836 70.9256 36.2709 67.9373 36.2709C65.2636 36.2709 62.9045 35.6411 60.9384 34.4603L61.8822 31.075C62.9831 31.6261 63.9267 32.0986 64.7918 32.3346C65.6569 32.5709 66.6004 32.7284 67.7013 32.7284C69.3529 32.7284 70.5325 32.3346 71.476 31.5473C72.3411 30.7603 72.8129 29.7367 72.8129 28.5559V26.7452C71.476 28.1623 69.746 28.8709 67.5443 28.8709C65.1062 28.8709 63.1405 28.0836 61.5676 26.5091C59.9949 24.9347 59.2085 22.9666 59.2085 20.4474C59.2085 17.9283 59.9949 15.8815 61.4889 14.307C62.9831 12.6538 64.9491 11.8666 67.3082 11.8666C69.4313 11.8666 71.2403 12.5751 72.6556 13.9921H72.7342V12.1027ZM68.016 25.2495C69.4313 25.2495 70.6111 24.7772 71.476 23.8325C72.3411 22.8879 72.8129 21.707 72.8129 20.29C72.8129 18.873 72.3411 17.6921 71.3973 16.8262C70.4538 15.9602 69.3529 15.4879 67.9373 15.4879C66.5218 15.4879 65.3422 15.9602 64.3987 16.8262C63.5336 17.7708 63.0618 18.9517 63.0618 20.3687C63.0618 21.7857 63.5336 23.0453 64.4771 23.9113C65.4996 24.7772 66.6004 25.2495 68.016 25.2495Z" fill="#131A2A"/>
<path d="M84.2941 8.7962C83.7436 9.34726 83.1145 9.58346 82.4067 9.58346C81.6989 9.58346 81.0698 9.34726 80.5194 8.7962C79.9689 8.24514 79.7329 7.69408 79.7329 6.98558C79.7329 6.27706 79.9689 5.64726 80.5194 5.17493C81.0698 4.62387 81.6203 4.3877 82.4067 4.3877C83.1145 4.3877 83.7436 4.62387 84.2941 5.17493C84.8445 5.72599 85.0805 6.27706 85.0805 6.98558C85.0805 7.69408 84.7658 8.32387 84.2941 8.7962ZM80.4407 29.1069V12.1026H84.3727V29.1069H80.4407Z" fill="#131A2A"/>
<path d="M88.5405 29.1069V3.44312H92.4725V29.1069H88.5405Z" fill="#131A2A"/>
<path d="M112.132 20.3687C112.132 20.7623 112.132 21.3134 112.053 21.9432H99.5498C99.7856 23.124 100.336 24.0687 101.201 24.7772C102.066 25.4857 103.167 25.8006 104.425 25.8006C106.234 25.8006 107.65 25.1708 108.75 23.8325L111.503 26.1942C109.851 28.3199 107.414 29.4219 104.268 29.4219C101.752 29.4219 99.6285 28.6346 97.9769 26.9815C96.3256 25.3283 95.5391 23.2815 95.5391 20.6049C95.5391 18.007 96.3256 15.9602 97.8982 14.307C99.4711 12.6538 101.437 11.8666 103.875 11.8666C106.313 11.8666 108.357 12.6538 109.93 14.2283C111.424 15.8027 112.132 17.8495 112.132 20.3687ZM106.706 16.2751C105.998 15.6453 105.133 15.3304 104.032 15.3304C102.931 15.3304 101.988 15.6453 101.201 16.1964C100.415 16.8262 99.8642 17.6134 99.6285 18.7155H108.2C107.885 17.7708 107.414 16.9049 106.706 16.2751Z" fill="#131A2A"/>
<path d="M122.827 29.3431C120.153 29.3431 117.951 28.5558 116.3 26.9027C114.648 25.2494 113.783 23.2027 113.783 20.6048C113.783 18.0069 114.648 15.9601 116.3 14.3069C117.951 12.6537 120.153 11.7878 122.827 11.7878C125.5 11.7878 127.624 12.575 129.275 14.2282C130.926 15.8814 131.791 17.9282 131.791 20.6048C131.791 23.2814 130.926 25.2494 129.275 26.9027C127.624 28.5558 125.422 29.3431 122.827 29.3431ZM122.827 25.8005C124.242 25.8005 125.422 25.3282 126.365 24.3048C127.309 23.3601 127.781 22.1005 127.781 20.6048C127.781 19.109 127.309 17.7707 126.365 16.8261C125.422 15.8814 124.242 15.3303 122.827 15.3303C121.411 15.3303 120.153 15.8027 119.209 16.8261C118.266 17.8494 117.794 19.109 117.794 20.6048C117.794 22.1005 118.266 23.2814 119.209 24.3048C120.153 25.3282 121.332 25.8005 122.827 25.8005Z" fill="#4A90E2"/>
<path d="M135.016 29.1068V15.409H133.128V12.1026H135.016V9.03245C135.016 7.14307 135.487 5.64735 136.352 4.70266C137.217 3.67924 138.554 3.20691 140.206 3.20691C141.857 3.20691 143.273 3.60054 144.531 4.38776L143.666 7.69414C142.408 7.14307 141.464 6.82818 140.835 6.82818C139.655 6.82818 139.026 7.69414 139.026 9.50478V12.1813H143.273V15.4877H139.026V29.1856L135.016 29.1068Z" fill="#4A90E2"/>
<path d="M145.71 29.1068V15.409H143.823V12.1026H145.71V9.03245C145.71 7.14307 146.182 5.64735 147.047 4.70266C147.912 3.67924 149.249 3.20691 150.9 3.20691C152.552 3.20691 153.967 3.60054 155.226 4.38776L154.36 7.69414C153.102 7.14307 152.159 6.82818 151.53 6.82818C150.35 6.82818 149.721 7.69414 149.721 9.50478V12.1813H153.967V15.4877H149.721V29.1856L145.71 29.1068Z" fill="#4A90E2"/>
<path d="M159.787 8.7962C159.236 9.34726 158.607 9.58346 157.899 9.58346C157.192 9.58346 156.562 9.34726 156.012 8.7962C155.462 8.24514 155.226 7.69408 155.226 6.98558C155.226 6.27706 155.462 5.64726 156.012 5.17493C156.484 4.62387 157.113 4.3877 157.899 4.3877C158.607 4.3877 159.236 4.62387 159.787 5.17493C160.337 5.72599 160.573 6.27706 160.573 6.98558C160.573 7.69408 160.337 8.32387 159.787 8.7962ZM155.933 29.1069V12.1026H159.865V29.1069H155.933Z" fill="#4A90E2"/>
<path d="M171.582 29.3431C169.066 29.3431 166.943 28.5558 165.291 26.9027C163.64 25.2494 162.853 23.2027 162.853 20.6048C162.853 18.0069 163.718 15.8814 165.37 14.2282C167.021 12.575 169.144 11.7878 171.74 11.7878C173.155 11.7878 174.492 12.0239 175.75 12.575C177.008 13.1261 178.109 13.9133 178.974 14.9367L176.3 17.2197C175.2 15.8814 173.706 15.2516 171.975 15.2516C170.481 15.2516 169.223 15.7239 168.279 16.6686C167.336 17.6133 166.864 18.8729 166.864 20.4473C166.864 22.0218 167.336 23.2814 168.279 24.2261C169.223 25.1707 170.481 25.6431 171.975 25.6431C173.784 25.6431 175.2 25.0133 176.3 23.8324L178.974 26.1941C178.188 27.0602 177.166 27.7687 175.829 28.3198C174.57 29.1068 173.155 29.3431 171.582 29.3431Z" fill="#4A90E2"/>
<path d="M196.825 20.3687C196.825 20.7623 196.825 21.3134 196.747 21.9432H184.243C184.479 23.124 185.03 24.0687 185.894 24.7772C186.76 25.4857 187.86 25.8006 189.119 25.8006C190.927 25.8006 192.343 25.1708 193.444 23.8325L196.196 26.1942C194.545 28.3199 192.107 29.4219 188.961 29.4219C186.445 29.4219 184.322 28.6346 182.67 26.9815C180.94 25.3283 180.154 23.2027 180.154 20.6049C180.154 18.007 180.94 15.9602 182.513 14.307C184.086 12.6538 186.13 11.8666 188.49 11.8666C190.927 11.8666 192.972 12.6538 194.545 14.2283C196.039 15.8027 196.825 17.8495 196.825 20.3687ZM191.399 16.2751C190.691 15.6453 189.826 15.3304 188.726 15.3304C187.624 15.3304 186.681 15.6453 185.894 16.1964C185.108 16.8262 184.558 17.6134 184.322 18.7155H192.893C192.579 17.7708 192.107 16.9049 191.399 16.2751Z" fill="#4A90E2"/>
<path d="M0.387207 10.6068V26.6665C0.387207 27.375 0.780398 28.0833 1.40951 28.4771L15.4071 36.5069C16.0363 36.9004 16.8226 36.9004 17.5304 36.5069L31.528 28.3984C32.1572 28.0048 32.5503 27.375 32.5503 26.5877V10.6068C32.5503 9.89833 32.1572 9.18981 31.528 8.7962L17.5304 0.766404C16.9013 0.372787 16.1149 0.372787 15.4071 0.766404L1.40951 8.7962C0.780398 9.18981 0.387207 9.8196 0.387207 10.6068Z" fill="#4A90E2"/>
<path d="M21.3835 16.511L19.968 18.9514L16.8225 12.9684L8.2509 27.2961H5.41992L6.36359 25.7216L7.77908 23.3599L8.6441 21.9429L10.0596 19.5812L10.6101 18.6365L12.0256 16.2748L15.407 10.6067L16.8225 8.16626L18.1594 10.6854L21.3835 16.511Z" fill="white"/>
<path d="M26.8883 27.2178L24.2145 27.2963L22.0913 23.0453L23.5068 20.6049L26.8883 27.2178Z" fill="white"/>
<path d="M23.1136 19.8173L21.6981 22.2577L20.4399 19.7385L20.9903 18.7939L21.8554 17.2981L23.1136 19.8173Z" fill="white"/>
<path d="M20.1255 24.8554L18.71 27.2958L17.3731 24.7767L15.7217 21.549L17.1372 19.1086L18.7886 22.3363L20.1255 24.8554Z" fill="white"/>
<path d="M27.0456 13.2043L23.1136 19.8171L21.6981 22.2575L20.204 24.7767L18.7885 27.217L17.373 24.6192L18.0021 23.5171L18.7885 22.1788V22.1001L20.204 19.7383L20.2826 19.6596L20.8331 18.715L21.6981 17.2192L22.2486 16.3532L25.63 10.6852L27.0456 13.2043Z" fill="white"/>
<path d="M27.0456 13.2043L23.1136 19.8171L21.6981 22.2575L20.204 24.7767L18.7885 27.217L17.373 24.6192L18.0021 23.5171L18.7885 22.1788V22.1001L20.204 19.7383L20.2826 19.6596L20.8331 18.715L21.6981 17.2192L22.2486 16.3532L25.63 10.6852L27.0456 13.2043Z" fill="white"/>
<path d="M10.4532 15.3302L9.03769 17.6919H4.16211L5.5776 15.3302H10.4532Z" fill="white"/>
<path d="M8.17266 15.3302L6.75717 17.6919H4.16211L5.5776 15.3302H8.17266Z" fill="white"/>
<path d="M12.7336 11.5511L11.3181 13.9128H7.70068L9.11616 11.5511H12.7336Z" fill="white"/>
<path d="M10.689 11.5511L9.27346 13.9128H7.70068L9.11616 11.5511H10.689Z" fill="white"/>
<path d="M14.3847 7.77258L12.9692 10.1343H11.3965L12.812 7.77258H14.3847Z" fill="white"/>
<path d="M14.9352 7.77258L13.5197 10.1343H11.3965L12.812 7.77258H14.9352Z" fill="white"/>
</g>
</g>
<path d="M0.794922 50.137V49.3188C0.794922 49.0773 0.840376 48.823 0.931286 48.556C1.02219 48.289 1.14861 48.0333 1.31055 47.789C1.47248 47.5446 1.66282 47.3358 1.88157 47.1625L2.51225 47.6142C2.33896 47.8671 2.19123 48.1313 2.06907 48.4068C1.94691 48.6824 1.88583 48.9821 1.88583 49.306V50.137H0.794922ZM2.96822 50.137V49.3188C2.96822 49.0773 3.01367 48.823 3.10458 48.556C3.19549 48.289 3.32191 48.0333 3.48384 47.789C3.64577 47.5446 3.83611 47.3358 4.05486 47.1625L4.68555 47.6142C4.51225 47.8671 4.36452 48.1313 4.24236 48.4068C4.12021 48.6824 4.05913 48.9821 4.05913 49.306V50.137H2.96822ZM10.6429 49.7023C10.5975 49.2989 10.41 48.9864 10.0804 48.7648C9.75089 48.5404 9.33611 48.4282 8.83611 48.4282C8.47816 48.4282 8.1685 48.485 7.90714 48.5986C7.64577 48.7094 7.44265 48.8628 7.29776 49.0588C7.15572 49.252 7.08469 49.4722 7.08469 49.7193C7.08469 49.9267 7.13299 50.1057 7.22958 50.2563C7.32901 50.4068 7.45827 50.5333 7.61736 50.6355C7.7793 50.735 7.95259 50.8188 8.13725 50.887C8.32191 50.9523 8.49947 51.0063 8.66992 51.0489L9.52219 51.2705C9.8006 51.3387 10.0861 51.431 10.3787 51.5475C10.6713 51.664 10.9426 51.8174 11.1926 52.0077C11.4426 52.198 11.6443 52.4338 11.7978 52.7151C11.954 52.9963 12.0321 53.333 12.0321 53.725C12.0321 54.2193 11.9043 54.6583 11.6486 55.0418C11.3958 55.4253 11.0279 55.7279 10.5449 55.9495C10.0648 56.1711 9.48384 56.2818 8.80202 56.2818C8.14861 56.2818 7.58327 56.1782 7.106 55.9708C6.62873 55.7634 6.25515 55.4693 5.98526 55.0887C5.71538 54.7051 5.56623 54.2506 5.53782 53.725H6.85884C6.88441 54.0404 6.98668 54.3032 7.16566 54.5134C7.34748 54.7208 7.57901 54.8756 7.86026 54.9779C8.14435 55.0773 8.45543 55.127 8.7935 55.127C9.16566 55.127 9.49663 55.0688 9.7864 54.9523C10.079 54.833 10.3091 54.6682 10.4767 54.458C10.6443 54.2449 10.7281 53.9963 10.7281 53.7122C10.7281 53.4537 10.6543 53.2421 10.5066 53.0773C10.3617 52.9125 10.1642 52.7762 9.91424 52.6682C9.66708 52.5603 9.38725 52.4651 9.07475 52.3827L8.0435 52.1015C7.34464 51.9111 6.79066 51.6313 6.38157 51.262C5.97532 50.8926 5.77219 50.404 5.77219 49.7961C5.77219 49.2932 5.90856 48.8543 6.18128 48.4793C6.45401 48.1043 6.82333 47.8131 7.28924 47.6057C7.75515 47.3955 8.28072 47.2904 8.86594 47.2904C9.45685 47.2904 9.97816 47.3941 10.4299 47.6015C10.8844 47.8088 11.2424 48.0943 11.5037 48.458C11.7651 48.8188 11.9014 49.2336 11.9128 49.7023H10.6429ZM14.9224 56.137L12.9963 49.5915H14.313L15.5957 54.3983H15.6596L16.9465 49.5915H18.2633L19.5417 54.377H19.6056L20.8798 49.5915H22.1965L20.2747 56.137H18.975L17.6454 51.4111H17.5474L16.2179 56.137H14.9224ZM23.4057 56.137V49.5915H24.6799V56.137H23.4057ZM24.0492 48.5816C23.8276 48.5816 23.6372 48.5077 23.4781 48.36C23.3219 48.2094 23.2438 48.0304 23.2438 47.823C23.2438 47.6128 23.3219 47.4338 23.4781 47.2861C23.6372 47.1355 23.8276 47.0603 24.0492 47.0603C24.2708 47.0603 24.4597 47.1355 24.6159 47.2861C24.775 47.4338 24.8546 47.6128 24.8546 47.823C24.8546 48.0304 24.775 48.2094 24.6159 48.36C24.4597 48.5077 24.2708 48.5816 24.0492 48.5816ZM29.509 49.5915V50.6142H25.8102V49.5915H29.509ZM26.8244 56.137V48.833C26.8244 48.4239 26.9139 48.0844 27.0929 47.8145C27.2718 47.5418 27.509 47.3387 27.8045 47.2051C28.1 47.0688 28.421 47.0006 28.7676 47.0006C29.0232 47.0006 29.242 47.0219 29.4238 47.0645C29.6056 47.1043 29.7406 47.1412 29.8286 47.1753L29.5304 48.2066C29.4707 48.1895 29.394 48.1696 29.3002 48.1469C29.2065 48.1213 29.0929 48.1086 28.9593 48.1086C28.6497 48.1086 28.4281 48.1853 28.2946 48.3387C28.1639 48.4921 28.0985 48.7137 28.0985 49.0034V56.137H26.8244ZM33.8791 49.5915V50.6142H30.3038V49.5915H33.8791ZM31.2626 48.0233H32.5367V54.2151C32.5367 54.4622 32.5737 54.6483 32.6475 54.7733C32.7214 54.8955 32.8166 54.9793 32.9331 55.0247C33.0524 55.0674 33.1816 55.0887 33.3208 55.0887C33.4231 55.0887 33.5126 55.0816 33.5893 55.0674C33.666 55.0532 33.7257 55.0418 33.7683 55.0333L33.9984 56.0858C33.9245 56.1142 33.8194 56.1426 33.6831 56.1711C33.5467 56.2023 33.3762 56.2193 33.1717 56.2222C32.8365 56.2279 32.524 56.1682 32.2342 56.0432C31.9444 55.9182 31.71 55.725 31.5311 55.4637C31.3521 55.2023 31.2626 54.8742 31.2626 54.4793V48.0233ZM40.3691 56.2818C39.9544 56.2818 39.5794 56.2051 39.2441 56.0517C38.9089 55.8955 38.6433 55.6696 38.4473 55.3742C38.2541 55.0787 38.1575 54.7165 38.1575 54.2875C38.1575 53.9182 38.2285 53.6142 38.3706 53.3756C38.5126 53.137 38.7044 52.948 38.9458 52.8088C39.1873 52.6696 39.4572 52.5645 39.7555 52.4935C40.0538 52.4225 40.3578 52.3685 40.6674 52.3316C41.0595 52.2861 41.3777 52.2492 41.622 52.2208C41.8663 52.1895 42.0438 52.1398 42.1546 52.0716C42.2654 52.0034 42.3208 51.8926 42.3208 51.7392V51.7094C42.3208 51.3372 42.2157 51.0489 42.0055 50.8443C41.7981 50.6398 41.4884 50.5375 41.0765 50.5375C40.6475 50.5375 40.3095 50.6327 40.0623 50.823C39.818 51.0105 39.649 51.2193 39.5552 51.4495L38.3578 51.1767C38.4998 50.779 38.7072 50.458 38.9799 50.2137C39.2555 49.9665 39.5723 49.7875 39.9302 49.6767C40.2882 49.5631 40.6646 49.5063 41.0595 49.5063C41.3208 49.5063 41.5978 49.5375 41.8904 49.6C42.1859 49.6597 42.4615 49.7705 42.7171 49.9324C42.9757 50.0943 43.1873 50.3259 43.3521 50.627C43.5169 50.9253 43.5992 51.3131 43.5992 51.7904V56.137H42.3549V55.2421H42.3038C42.2214 55.4068 42.0978 55.5688 41.9331 55.7279C41.7683 55.887 41.5566 56.0191 41.2981 56.1242C41.0396 56.2293 40.7299 56.2818 40.3691 56.2818ZM40.6461 55.2591C40.9984 55.2591 41.2995 55.1895 41.5495 55.0503C41.8024 54.9111 41.9941 54.7293 42.1248 54.5049C42.2583 54.2776 42.3251 54.0347 42.3251 53.7762V52.9324C42.2796 52.9779 42.1916 53.0205 42.0609 53.0603C41.9331 53.0972 41.7867 53.1299 41.622 53.1583C41.4572 53.1838 41.2967 53.208 41.1404 53.2307C40.9842 53.2506 40.8535 53.2676 40.7484 53.2818C40.5012 53.3131 40.2754 53.3657 40.0708 53.4395C39.8691 53.5134 39.7072 53.6199 39.585 53.7591C39.4657 53.8955 39.4061 54.0773 39.4061 54.3046C39.4061 54.6199 39.5225 54.8586 39.7555 55.0205C39.9884 55.1796 40.2853 55.2591 40.6461 55.2591ZM46.5705 52.2506V56.137H45.2963V49.5915H46.5193V50.6568H46.6003C46.7509 50.3103 46.9867 50.0318 47.3077 49.8216C47.6316 49.6114 48.0392 49.5063 48.5307 49.5063C48.9767 49.5063 49.3674 49.6 49.7026 49.7875C50.0378 49.9722 50.2978 50.2478 50.4824 50.6142C50.6671 50.9807 50.7594 51.4338 50.7594 51.9736V56.137H49.4853V52.127C49.4853 51.6526 49.3617 51.2818 49.1145 51.0148C48.8674 50.7449 48.5279 50.61 48.096 50.61C47.8006 50.61 47.5378 50.6739 47.3077 50.8017C47.0804 50.9296 46.9 51.1171 46.7665 51.3642C46.6358 51.6086 46.5705 51.904 46.5705 52.2506ZM54.9185 56.2648C54.3901 56.2648 53.9185 56.1299 53.5037 55.86C53.0918 55.5872 52.7679 55.1995 52.5321 54.6966C52.2992 54.1909 52.1827 53.5844 52.1827 52.877C52.1827 52.1696 52.3006 51.5645 52.5364 51.0617C52.775 50.5588 53.1017 50.1739 53.5165 49.9068C53.9313 49.6398 54.4014 49.5063 54.927 49.5063C55.3333 49.5063 55.66 49.5745 55.9071 49.7108C56.1571 49.8443 56.3503 50.0006 56.4867 50.1796C56.6259 50.3586 56.7338 50.5162 56.8105 50.6526H56.8872V47.4097H58.1614V56.137H56.9171V55.1185H56.8105C56.7338 55.2577 56.623 55.4168 56.4781 55.5958C56.3361 55.7747 56.1401 55.931 55.8901 56.0645C55.6401 56.198 55.3162 56.2648 54.9185 56.2648ZM55.1997 55.1782C55.5662 55.1782 55.8759 55.0816 56.1287 54.8884C56.3844 54.6924 56.5776 54.4211 56.7083 54.0745C56.8418 53.7279 56.9085 53.3245 56.9085 52.8642C56.9085 52.4097 56.8432 52.012 56.7125 51.6711C56.5818 51.3301 56.3901 51.0645 56.1372 50.8742C55.8844 50.6838 55.5719 50.5887 55.1997 50.5887C54.8162 50.5887 54.4966 50.6881 54.2409 50.887C53.9853 51.0858 53.7921 51.3571 53.6614 51.7009C53.5335 52.0446 53.4696 52.4324 53.4696 52.8642C53.4696 53.3017 53.535 53.6952 53.6656 54.0446C53.7963 54.3941 53.9895 54.6711 54.2452 54.8756C54.5037 55.0773 54.8219 55.1782 55.1997 55.1782ZM68.0179 49.7023C67.9725 49.2989 67.785 48.9864 67.4554 48.7648C67.1259 48.5404 66.7111 48.4282 66.2111 48.4282C65.8531 48.4282 65.5435 48.485 65.2821 48.5986C65.0208 48.7094 64.8176 48.8628 64.6728 49.0588C64.5307 49.252 64.4597 49.4722 64.4597 49.7193C64.4597 49.9267 64.508 50.1057 64.6046 50.2563C64.704 50.4068 64.8333 50.5333 64.9924 50.6355C65.1543 50.735 65.3276 50.8188 65.5122 50.887C65.6969 50.9523 65.8745 51.0063 66.0449 51.0489L66.8972 51.2705C67.1756 51.3387 67.4611 51.431 67.7537 51.5475C68.0463 51.664 68.3176 51.8174 68.5676 52.0077C68.8176 52.198 69.0193 52.4338 69.1728 52.7151C69.329 52.9963 69.4071 53.333 69.4071 53.725C69.4071 54.2193 69.2793 54.6583 69.0236 55.0418C68.7708 55.4253 68.4029 55.7279 67.9199 55.9495C67.4398 56.1711 66.8588 56.2818 66.177 56.2818C65.5236 56.2818 64.9583 56.1782 64.481 55.9708C64.0037 55.7634 63.6301 55.4693 63.3603 55.0887C63.0904 54.7051 62.9412 54.2506 62.9128 53.725H64.2338C64.2594 54.0404 64.3617 54.3032 64.5406 54.5134C64.7225 54.7208 64.954 54.8756 65.2353 54.9779C65.5193 55.0773 65.8304 55.127 66.1685 55.127C66.5406 55.127 66.8716 55.0688 67.1614 54.9523C67.454 54.833 67.6841 54.6682 67.8517 54.458C68.0193 54.2449 68.1031 53.9963 68.1031 53.7122C68.1031 53.4537 68.0293 53.2421 67.8816 53.0773C67.7367 52.9125 67.5392 52.7762 67.2892 52.6682C67.0421 52.5603 66.7622 52.4651 66.4497 52.3827L65.4185 52.1015C64.7196 51.9111 64.1656 51.6313 63.7566 51.262C63.3503 50.8926 63.1472 50.404 63.1472 49.7961C63.1472 49.2932 63.2835 48.8543 63.5563 48.4793C63.829 48.1043 64.1983 47.8131 64.6642 47.6057C65.1301 47.3955 65.6557 47.2904 66.2409 47.2904C66.8318 47.2904 67.3531 47.3941 67.8049 47.6015C68.2594 47.8088 68.6174 48.0943 68.8787 48.458C69.1401 48.8188 69.2764 49.2336 69.2878 49.7023H68.0179ZM70.8784 56.137V49.5915H72.1525V56.137H70.8784ZM71.5218 48.5816C71.3002 48.5816 71.1099 48.5077 70.9508 48.36C70.7946 48.2094 70.7164 48.0304 70.7164 47.823C70.7164 47.6128 70.7946 47.4338 70.9508 47.2861C71.1099 47.1355 71.3002 47.0603 71.5218 47.0603C71.7434 47.0603 71.9323 47.1355 72.0886 47.2861C72.2477 47.4338 72.3272 47.6128 72.3272 47.823C72.3272 48.0304 72.2477 48.2094 72.0886 48.36C71.9323 48.5077 71.7434 48.5816 71.5218 48.5816ZM73.8666 56.137V49.5915H75.0897V50.6568H75.1706C75.307 50.2961 75.53 50.0148 75.8397 49.8131C76.1493 49.6086 76.5201 49.5063 76.9519 49.5063C77.3894 49.5063 77.7558 49.6086 78.0513 49.8131C78.3496 50.0176 78.5698 50.2989 78.7118 50.6568H78.78C78.9362 50.3074 79.1848 50.029 79.5257 49.8216C79.8666 49.6114 80.2729 49.5063 80.7445 49.5063C81.3382 49.5063 81.8226 49.6924 82.1976 50.0645C82.5755 50.4367 82.7644 50.9978 82.7644 51.7478V56.137H81.4902V51.8671C81.4902 51.4239 81.3695 51.1029 81.128 50.904C80.8865 50.7051 80.5982 50.6057 80.263 50.6057C79.8482 50.6057 79.5257 50.7336 79.2956 50.9892C79.0655 51.2421 78.9505 51.5674 78.9505 51.9651V56.137H77.6806V51.7861C77.6806 51.431 77.5698 51.1455 77.3482 50.9296C77.1266 50.7137 76.8382 50.6057 76.4831 50.6057C76.2416 50.6057 76.0186 50.6696 75.8141 50.7975C75.6124 50.9225 75.449 51.0972 75.324 51.3216C75.2019 51.5461 75.1408 51.806 75.1408 52.1015V56.137H73.8666ZM84.4721 58.5915V49.5915H85.7164V50.6526H85.823C85.8968 50.5162 86.0034 50.3586 86.1426 50.1796C86.2818 50.0006 86.475 49.8443 86.7221 49.7108C86.9693 49.5745 87.296 49.5063 87.7022 49.5063C88.2306 49.5063 88.7022 49.6398 89.117 49.9068C89.5318 50.1739 89.8571 50.5588 90.0929 51.0617C90.3315 51.5645 90.4508 52.1696 90.4508 52.877C90.4508 53.5844 90.3329 54.1909 90.0971 54.6966C89.8613 55.1995 89.5375 55.5872 89.1255 55.86C88.7136 56.1299 88.2434 56.2648 87.715 56.2648C87.3173 56.2648 86.992 56.198 86.7392 56.0645C86.4892 55.931 86.2931 55.7747 86.1511 55.5958C86.009 55.4168 85.8997 55.2577 85.823 55.1185H85.7463V58.5915H84.4721ZM85.7207 52.8642C85.7207 53.3245 85.7875 53.7279 85.921 54.0745C86.0545 54.4211 86.2477 54.6924 86.5005 54.8884C86.7534 55.0816 87.063 55.1782 87.4295 55.1782C87.8102 55.1782 88.1284 55.0773 88.384 54.8756C88.6397 54.6711 88.8329 54.3941 88.9636 54.0446C89.0971 53.6952 89.1639 53.3017 89.1639 52.8642C89.1639 52.4324 89.0985 52.0446 88.9679 51.7009C88.84 51.3571 88.6468 51.0858 88.3883 50.887C88.1326 50.6881 87.813 50.5887 87.4295 50.5887C87.0602 50.5887 86.7477 50.6838 86.492 50.8742C86.2392 51.0645 86.0474 51.3301 85.9167 51.6711C85.786 52.012 85.7207 52.4097 85.7207 52.8642ZM93.1525 47.4097V56.137H91.8784V47.4097H93.1525ZM97.6877 56.2691C97.0428 56.2691 96.4874 56.1313 96.0215 55.8557C95.5584 55.5773 95.2005 55.1867 94.9476 54.6838C94.6976 54.1782 94.5726 53.5858 94.5726 52.9068C94.5726 52.2364 94.6976 51.6455 94.9476 51.1341C95.2005 50.6228 95.5527 50.2236 96.0044 49.9367C96.459 49.6497 96.9902 49.5063 97.5982 49.5063C97.9675 49.5063 98.3255 49.5674 98.672 49.6895C99.0186 49.8117 99.3297 50.0034 99.6053 50.2648C99.8808 50.5262 100.098 50.8657 100.257 51.2833C100.416 51.698 100.496 52.2023 100.496 52.7961V53.2478H95.2928V52.2932H99.2473C99.2473 51.958 99.1791 51.6611 99.0428 51.4026C98.9064 51.1412 98.7147 50.9353 98.4675 50.7847C98.2232 50.6341 97.9362 50.5588 97.6067 50.5588C97.2487 50.5588 96.9362 50.6469 96.6692 50.823C96.405 50.9963 96.2005 51.2236 96.0556 51.5049C95.9135 51.7833 95.8425 52.0858 95.8425 52.4125V53.1583C95.8425 53.5958 95.9192 53.9679 96.0726 54.2747C96.2289 54.5816 96.4462 54.8159 96.7246 54.9779C97.003 55.137 97.3283 55.2165 97.7005 55.2165C97.9419 55.2165 98.1621 55.1824 98.361 55.1142C98.5598 55.0432 98.7317 54.9381 98.8766 54.7989C99.0215 54.6597 99.1323 54.4878 99.209 54.2833L100.415 54.5006C100.318 54.8557 100.145 55.1668 99.8951 55.4338C99.6479 55.698 99.3368 55.904 98.9618 56.0517C98.5897 56.1966 98.1649 56.2691 97.6877 56.2691ZM103.005 47.4097V48.2279C103.005 48.4693 102.959 48.7236 102.868 48.9907C102.78 49.2549 102.655 49.5091 102.493 49.7534C102.331 49.9978 102.141 50.208 101.922 50.3841L101.292 49.9324C101.459 49.6881 101.604 49.4282 101.726 49.1526C101.851 48.877 101.914 48.573 101.914 48.2407V47.4097H103.005ZM105.174 47.4097V48.2279C105.174 48.4693 105.128 48.7236 105.037 48.9907C104.949 49.2549 104.824 49.5091 104.662 49.7534C104.5 49.9978 104.31 50.208 104.091 50.3841L103.461 49.9324C103.628 49.6881 103.773 49.4282 103.895 49.1526C104.02 48.877 104.083 48.573 104.083 48.2407V47.4097H105.174ZM112.577 56.2691C111.963 56.2691 111.428 56.1284 110.97 55.8472C110.513 55.5659 110.158 55.1725 109.905 54.6668C109.652 54.1611 109.526 53.5702 109.526 52.8941C109.526 52.2151 109.652 51.6213 109.905 51.1128C110.158 50.6043 110.513 50.2094 110.97 49.9282C111.428 49.6469 111.963 49.5063 112.577 49.5063C113.19 49.5063 113.726 49.6469 114.183 49.9282C114.641 50.2094 114.996 50.6043 115.249 51.1128C115.501 51.6213 115.628 52.2151 115.628 52.8941C115.628 53.5702 115.501 54.1611 115.249 54.6668C114.996 55.1725 114.641 55.5659 114.183 55.8472C113.726 56.1284 113.19 56.2691 112.577 56.2691ZM112.581 55.1995C112.979 55.1995 113.308 55.0943 113.57 54.8841C113.831 54.6739 114.024 54.3941 114.149 54.0446C114.277 53.6952 114.341 53.3103 114.341 52.8898C114.341 52.4722 114.277 52.0887 114.149 51.7392C114.024 51.387 113.831 51.1043 113.57 50.8912C113.308 50.6782 112.979 50.5716 112.581 50.5716C112.18 50.5716 111.848 50.6782 111.584 50.8912C111.323 51.1043 111.128 51.387 111 51.7392C110.875 52.0887 110.813 52.4722 110.813 52.8898C110.813 53.3103 110.875 53.6952 111 54.0446C111.128 54.3941 111.323 54.6739 111.584 54.8841C111.848 55.0943 112.18 55.1995 112.581 55.1995ZM120.165 49.5915V50.6142H116.466V49.5915H120.165ZM117.481 56.137V48.833C117.481 48.4239 117.57 48.0844 117.749 47.8145C117.928 47.5418 118.165 47.3387 118.461 47.2051C118.756 47.0688 119.077 47.0006 119.424 47.0006C119.679 47.0006 119.898 47.0219 120.08 47.0645C120.262 47.1043 120.397 47.1412 120.485 47.1753L120.187 48.2066C120.127 48.1895 120.05 48.1696 119.956 48.1469C119.863 48.1213 119.749 48.1086 119.615 48.1086C119.306 48.1086 119.084 48.1853 118.951 48.3387C118.82 48.4921 118.755 48.7137 118.755 49.0034V56.137H117.481ZM124.595 49.5915V50.6142H120.896V49.5915H124.595ZM121.91 56.137V48.833C121.91 48.4239 122 48.0844 122.179 47.8145C122.358 47.5418 122.595 47.3387 122.89 47.2051C123.186 47.0688 123.507 47.0006 123.853 47.0006C124.109 47.0006 124.328 47.0219 124.51 47.0645C124.691 47.1043 124.826 47.1412 124.914 47.1753L124.616 48.2066C124.557 48.1895 124.48 48.1696 124.386 48.1469C124.292 48.1213 124.179 48.1086 124.045 48.1086C123.736 48.1086 123.514 48.1853 123.38 48.3387C123.25 48.4921 123.184 48.7137 123.184 49.0034V56.137H121.91ZM125.91 56.137V49.5915H127.184V56.137H125.91ZM126.553 48.5816C126.331 48.5816 126.141 48.5077 125.982 48.36C125.826 48.2094 125.748 48.0304 125.748 47.823C125.748 47.6128 125.826 47.4338 125.982 47.2861C126.141 47.1355 126.331 47.0603 126.553 47.0603C126.775 47.0603 126.963 47.1355 127.12 47.2861C127.279 47.4338 127.358 47.6128 127.358 47.823C127.358 48.0304 127.279 48.2094 127.12 48.36C126.963 48.5077 126.775 48.5816 126.553 48.5816ZM131.655 56.2691C131.021 56.2691 130.476 56.1256 130.019 55.8387C129.564 55.5489 129.215 55.1497 128.97 54.6412C128.726 54.1327 128.604 53.5503 128.604 52.8941C128.604 52.2293 128.729 51.6426 128.979 51.1341C129.229 50.6228 129.581 50.2236 130.036 49.9367C130.49 49.6497 131.026 49.5063 131.642 49.5063C132.139 49.5063 132.582 49.5986 132.972 49.7833C133.361 49.9651 133.675 50.2208 133.913 50.5503C134.155 50.8799 134.298 51.2648 134.344 51.7051H133.104C133.036 51.3983 132.879 51.1341 132.635 50.9125C132.394 50.6909 132.07 50.5801 131.663 50.5801C131.308 50.5801 130.997 50.6739 130.73 50.8614C130.466 51.0461 130.26 51.3103 130.112 51.654C129.965 51.9949 129.891 52.3983 129.891 52.8642C129.891 53.3415 129.963 53.7534 130.108 54.1C130.253 54.4466 130.457 54.7151 130.722 54.9054C130.989 55.0958 131.303 55.1909 131.663 55.1909C131.905 55.1909 132.124 55.1469 132.32 55.0588C132.519 54.9679 132.685 54.8387 132.818 54.6711C132.955 54.5034 133.05 54.3017 133.104 54.0659H134.344C134.298 54.4892 134.161 54.8671 133.93 55.1995C133.7 55.5318 133.392 55.7932 133.006 55.9836C132.622 56.1739 132.172 56.2691 131.655 56.2691ZM138.527 56.2691C137.883 56.2691 137.327 56.1313 136.861 55.8557C136.398 55.5773 136.04 55.1867 135.787 54.6838C135.537 54.1782 135.412 53.5858 135.412 52.9068C135.412 52.2364 135.537 51.6455 135.787 51.1341C136.04 50.6228 136.392 50.2236 136.844 49.9367C137.299 49.6497 137.83 49.5063 138.438 49.5063C138.807 49.5063 139.165 49.5674 139.512 49.6895C139.858 49.8117 140.169 50.0034 140.445 50.2648C140.721 50.5262 140.938 50.8657 141.097 51.2833C141.256 51.698 141.336 52.2023 141.336 52.7961V53.2478H136.133V52.2932H140.087C140.087 51.958 140.019 51.6611 139.883 51.4026C139.746 51.1412 139.554 50.9353 139.307 50.7847C139.063 50.6341 138.776 50.5588 138.446 50.5588C138.088 50.5588 137.776 50.6469 137.509 50.823C137.245 50.9963 137.04 51.2236 136.895 51.5049C136.753 51.7833 136.682 52.0858 136.682 52.4125V53.1583C136.682 53.5958 136.759 53.9679 136.912 54.2747C137.069 54.5816 137.286 54.8159 137.564 54.9779C137.843 55.137 138.168 55.2165 138.54 55.2165C138.782 55.2165 139.002 55.1824 139.201 55.1142C139.4 55.0432 139.571 54.9381 139.716 54.7989C139.861 54.6597 139.972 54.4878 140.049 54.2833L141.255 54.5006C141.158 54.8557 140.985 55.1668 140.735 55.4338C140.488 55.698 140.177 55.904 139.802 56.0517C139.429 56.1966 139.005 56.2691 138.527 56.2691ZM147.83 56.2818C147.415 56.2818 147.04 56.2051 146.705 56.0517C146.37 55.8955 146.104 55.6696 145.908 55.3742C145.715 55.0787 145.618 54.7165 145.618 54.2875C145.618 53.9182 145.689 53.6142 145.831 53.3756C145.973 53.137 146.165 52.948 146.407 52.8088C146.648 52.6696 146.918 52.5645 147.216 52.4935C147.515 52.4225 147.819 52.3685 148.128 52.3316C148.52 52.2861 148.838 52.2492 149.083 52.2208C149.327 52.1895 149.505 52.1398 149.615 52.0716C149.726 52.0034 149.782 51.8926 149.782 51.7392V51.7094C149.782 51.3372 149.677 51.0489 149.466 50.8443C149.259 50.6398 148.949 50.5375 148.537 50.5375C148.108 50.5375 147.77 50.6327 147.523 50.823C147.279 51.0105 147.11 51.2193 147.016 51.4495L145.819 51.1767C145.961 50.779 146.168 50.458 146.441 50.2137C146.716 49.9665 147.033 49.7875 147.391 49.6767C147.749 49.5631 148.125 49.5063 148.52 49.5063C148.782 49.5063 149.059 49.5375 149.351 49.6C149.647 49.6597 149.922 49.7705 150.178 49.9324C150.437 50.0943 150.648 50.3259 150.813 50.627C150.978 50.9253 151.06 51.3131 151.06 51.7904V56.137H149.816V55.2421H149.765C149.682 55.4068 149.559 55.5688 149.394 55.7279C149.229 55.887 149.017 56.0191 148.759 56.1242C148.5 56.2293 148.191 56.2818 147.83 56.2818ZM148.107 55.2591C148.459 55.2591 148.76 55.1895 149.01 55.0503C149.263 54.9111 149.455 54.7293 149.586 54.5049C149.719 54.2776 149.786 54.0347 149.786 53.7762V52.9324C149.74 52.9779 149.652 53.0205 149.522 53.0603C149.394 53.0972 149.248 53.1299 149.083 53.1583C148.918 53.1838 148.758 53.208 148.601 53.2307C148.445 53.2506 148.314 53.2676 148.209 53.2818C147.962 53.3131 147.736 53.3657 147.532 53.4395C147.33 53.5134 147.168 53.6199 147.046 53.7591C146.927 53.8955 146.867 54.0773 146.867 54.3046C146.867 54.6199 146.983 54.8586 147.216 55.0205C147.449 55.1796 147.746 55.2591 148.107 55.2591ZM156.903 53.4225V49.5915H158.182V56.137H156.929V55.0034H156.861C156.71 55.3529 156.469 55.6441 156.136 55.877C155.807 56.1071 155.396 56.2222 154.905 56.2222C154.484 56.2222 154.112 56.1299 153.788 55.9452C153.467 55.7577 153.215 55.4807 153.03 55.1142C152.848 54.7478 152.757 54.2946 152.757 53.7549V49.5915H154.031V53.6015C154.031 54.0475 154.155 54.4026 154.402 54.6668C154.649 54.931 154.97 55.0631 155.365 55.0631C155.604 55.0631 155.841 55.0034 156.077 54.8841C156.315 54.7648 156.513 54.5844 156.669 54.3429C156.828 54.1015 156.906 53.7946 156.903 53.4225ZM162.949 49.5915V50.6142H159.374V49.5915H162.949ZM160.333 48.0233H161.607V54.2151C161.607 54.4622 161.644 54.6483 161.718 54.7733C161.792 54.8955 161.887 54.9793 162.003 55.0247C162.123 55.0674 162.252 55.0887 162.391 55.0887C162.493 55.0887 162.583 55.0816 162.66 55.0674C162.736 55.0532 162.796 55.0418 162.838 55.0333L163.069 56.0858C162.995 56.1142 162.89 56.1426 162.753 56.1711C162.617 56.2023 162.446 56.2193 162.242 56.2222C161.907 56.2279 161.594 56.1682 161.304 56.0432C161.015 55.9182 160.78 55.725 160.601 55.4637C160.422 55.2023 160.333 54.8742 160.333 54.4793V48.0233ZM167.046 56.2691C166.432 56.2691 165.896 56.1284 165.439 55.8472C164.982 55.5659 164.626 55.1725 164.374 54.6668C164.121 54.1611 163.994 53.5702 163.994 52.8941C163.994 52.2151 164.121 51.6213 164.374 51.1128C164.626 50.6043 164.982 50.2094 165.439 49.9282C165.896 49.6469 166.432 49.5063 167.046 49.5063C167.659 49.5063 168.195 49.6469 168.652 49.9282C169.109 50.2094 169.465 50.6043 169.717 51.1128C169.97 51.6213 170.097 52.2151 170.097 52.8941C170.097 53.5702 169.97 54.1611 169.717 54.6668C169.465 55.1725 169.109 55.5659 168.652 55.8472C168.195 56.1284 167.659 56.2691 167.046 56.2691ZM167.05 55.1995C167.448 55.1995 167.777 55.0943 168.038 54.8841C168.3 54.6739 168.493 54.3941 168.618 54.0446C168.746 53.6952 168.81 53.3103 168.81 52.8898C168.81 52.4722 168.746 52.0887 168.618 51.7392C168.493 51.387 168.3 51.1043 168.038 50.8912C167.777 50.6782 167.448 50.5716 167.05 50.5716C166.649 50.5716 166.317 50.6782 166.053 50.8912C165.791 51.1043 165.597 51.387 165.469 51.7392C165.344 52.0887 165.281 52.4722 165.281 52.8898C165.281 53.3103 165.344 53.6952 165.469 54.0446C165.597 54.3941 165.791 54.6739 166.053 54.8841C166.317 55.0943 166.649 55.1995 167.05 55.1995ZM171.519 56.137V49.5915H172.742V50.6568H172.823C172.959 50.2961 173.182 50.0148 173.492 49.8131C173.802 49.6086 174.172 49.5063 174.604 49.5063C175.042 49.5063 175.408 49.6086 175.704 49.8131C176.002 50.0176 176.222 50.2989 176.364 50.6568H176.432C176.588 50.3074 176.837 50.029 177.178 49.8216C177.519 49.6114 177.925 49.5063 178.397 49.5063C178.99 49.5063 179.475 49.6924 179.85 50.0645C180.228 50.4367 180.417 50.9978 180.417 51.7478V56.137H179.142V51.8671C179.142 51.4239 179.022 51.1029 178.78 50.904C178.539 50.7051 178.25 50.6057 177.915 50.6057C177.5 50.6057 177.178 50.7336 176.948 50.9892C176.718 51.2421 176.603 51.5674 176.603 51.9651V56.137H175.333V51.7861C175.333 51.431 175.222 51.1455 175 50.9296C174.779 50.7137 174.49 50.6057 174.135 50.6057C173.894 50.6057 173.671 50.6696 173.466 50.7975C173.265 50.9225 173.101 51.0972 172.976 51.3216C172.854 51.5461 172.793 51.806 172.793 52.1015V56.137H171.519ZM184.029 56.2818C183.614 56.2818 183.239 56.2051 182.904 56.0517C182.569 55.8955 182.303 55.6696 182.107 55.3742C181.914 55.0787 181.818 54.7165 181.818 54.2875C181.818 53.9182 181.889 53.6142 182.031 53.3756C182.173 53.137 182.364 52.948 182.606 52.8088C182.847 52.6696 183.117 52.5645 183.416 52.4935C183.714 52.4225 184.018 52.3685 184.327 52.3316C184.72 52.2861 185.038 52.2492 185.282 52.2208C185.526 52.1895 185.704 52.1398 185.815 52.0716C185.925 52.0034 185.981 51.8926 185.981 51.7392V51.7094C185.981 51.3372 185.876 51.0489 185.666 50.8443C185.458 50.6398 185.149 50.5375 184.737 50.5375C184.308 50.5375 183.97 50.6327 183.722 50.823C183.478 51.0105 183.309 51.2193 183.215 51.4495L182.018 51.1767C182.16 50.779 182.367 50.458 182.64 50.2137C182.916 49.9665 183.232 49.7875 183.59 49.6767C183.948 49.5631 184.325 49.5063 184.72 49.5063C184.981 49.5063 185.258 49.5375 185.55 49.6C185.846 49.6597 186.122 49.7705 186.377 49.9324C186.636 50.0943 186.847 50.3259 187.012 50.627C187.177 50.9253 187.259 51.3131 187.259 51.7904V56.137H186.015V55.2421H185.964C185.881 55.4068 185.758 55.5688 185.593 55.7279C185.428 55.887 185.217 56.0191 184.958 56.1242C184.7 56.2293 184.39 56.2818 184.029 56.2818ZM184.306 55.2591C184.658 55.2591 184.96 55.1895 185.21 55.0503C185.462 54.9111 185.654 54.7293 185.785 54.5049C185.918 54.2776 185.985 54.0347 185.985 53.7762V52.9324C185.94 52.9779 185.852 53.0205 185.721 53.0603C185.593 53.0972 185.447 53.1299 185.282 53.1583C185.117 53.1838 184.957 53.208 184.8 53.2307C184.644 53.2506 184.514 53.2676 184.408 53.2818C184.161 53.3131 183.935 53.3657 183.731 53.4395C183.529 53.5134 183.367 53.6199 183.245 53.7591C183.126 53.8955 183.066 54.0773 183.066 54.3046C183.066 54.6199 183.183 54.8586 183.416 55.0205C183.649 55.1796 183.945 55.2591 184.306 55.2591ZM192.012 49.5915V50.6142H188.437V49.5915H192.012ZM189.395 48.0233H190.669V54.2151C190.669 54.4622 190.706 54.6483 190.78 54.7733C190.854 54.8955 190.949 54.9793 191.066 55.0247C191.185 55.0674 191.314 55.0887 191.454 55.0887C191.556 55.0887 191.645 55.0816 191.722 55.0674C191.799 55.0532 191.858 55.0418 191.901 55.0333L192.131 56.0858C192.057 56.1142 191.952 56.1426 191.816 56.1711C191.679 56.2023 191.509 56.2193 191.304 56.2222C190.969 56.2279 190.657 56.1682 190.367 56.0432C190.077 55.9182 189.843 55.725 189.664 55.4637C189.485 55.2023 189.395 54.8742 189.395 54.4793V48.0233ZM193.421 56.137V49.5915H194.695V56.137H193.421ZM194.065 48.5816C193.843 48.5816 193.653 48.5077 193.494 48.36C193.337 48.2094 193.259 48.0304 193.259 47.823C193.259 47.6128 193.337 47.4338 193.494 47.2861C193.653 47.1355 193.843 47.0603 194.065 47.0603C194.286 47.0603 194.475 47.1355 194.631 47.2861C194.791 47.4338 194.87 47.6128 194.87 47.823C194.87 48.0304 194.791 48.2094 194.631 48.36C194.475 48.5077 194.286 48.5816 194.065 48.5816ZM199.167 56.2691C198.553 56.2691 198.017 56.1284 197.56 55.8472C197.103 55.5659 196.748 55.1725 196.495 54.6668C196.242 54.1611 196.115 53.5702 196.115 52.8941C196.115 52.2151 196.242 51.6213 196.495 51.1128C196.748 50.6043 197.103 50.2094 197.56 49.9282C198.017 49.6469 198.553 49.5063 199.167 49.5063C199.78 49.5063 200.316 49.6469 200.773 49.9282C201.231 50.2094 201.586 50.6043 201.838 51.1128C202.091 51.6213 202.218 52.2151 202.218 52.8941C202.218 53.5702 202.091 54.1611 201.838 54.6668C201.586 55.1725 201.231 55.5659 200.773 55.8472C200.316 56.1284 199.78 56.2691 199.167 56.2691ZM199.171 55.1995C199.569 55.1995 199.898 55.0943 200.16 54.8841C200.421 54.6739 200.614 54.3941 200.739 54.0446C200.867 53.6952 200.931 53.3103 200.931 52.8898C200.931 52.4722 200.867 52.0887 200.739 51.7392C200.614 51.387 200.421 51.1043 200.16 50.8912C199.898 50.6782 199.569 50.5716 199.171 50.5716C198.77 50.5716 198.438 50.6782 198.174 50.8912C197.912 51.1043 197.718 51.387 197.59 51.7392C197.465 52.0887 197.402 52.4722 197.402 52.8898C197.402 53.3103 197.465 53.6952 197.59 54.0446C197.718 54.3941 197.912 54.6739 198.174 54.8841C198.438 55.0943 198.77 55.1995 199.171 55.1995ZM204.914 52.2506V56.137H203.64V49.5915H204.863V50.6568H204.944C205.095 50.3103 205.33 50.0318 205.651 49.8216C205.975 49.6114 206.383 49.5063 206.874 49.5063C207.32 49.5063 207.711 49.6 208.046 49.7875C208.381 49.9722 208.641 50.2478 208.826 50.6142C209.011 50.9807 209.103 51.4338 209.103 51.9736V56.137H207.829V52.127C207.829 51.6526 207.705 51.2818 207.458 51.0148C207.211 50.7449 206.872 50.61 206.44 50.61C206.144 50.61 205.881 50.6739 205.651 50.8017C205.424 50.9296 205.244 51.1171 205.11 51.3642C204.979 51.6086 204.914 51.904 204.914 52.2506Z" fill="#131A2A"/>
</svg>
