<svg width="211" height="64" viewBox="0 0 211 64" fill="none" xmlns="http://www.w3.org/2000/svg">
<g clip-path="url(#clip0_681_33)">
<mask id="mask0_681_33" style="mask-type:luminance" maskUnits="userSpaceOnUse" x="0" y="0" width="198" height="38">
<path d="M197.455 0.136963H0.0725098V37.137H197.455V0.136963Z" fill="white"/>
</mask>
<g mask="url(#mask0_681_33)">
<path d="M52.76 12.1028H56.6921V29.1069H52.9174V26.824H52.8387C51.5805 28.5559 49.7718 29.3432 47.4127 29.3432C45.0534 29.3432 43.0089 28.5559 41.436 26.9028C39.8634 25.3283 39.0769 23.2028 39.0769 20.6049C39.0769 18.007 39.8634 15.9602 41.436 14.307C43.0089 12.6538 44.9749 11.7879 47.334 11.7879C49.6932 11.7879 51.3445 12.5751 52.6027 14.0708H52.76V12.1028ZM48.0418 25.8006C49.3785 25.8006 50.5583 25.3283 51.5018 24.3836C52.4454 23.4389 52.9174 22.1793 52.9174 20.6836C52.9174 19.1879 52.4454 17.9283 51.5018 16.9049C50.5583 15.8815 49.3785 15.4091 48.0418 15.4091C46.6263 15.4091 45.4467 15.8815 44.5029 16.9049C43.5594 17.8496 43.0876 19.1879 43.0876 20.7623C43.0876 22.2581 43.5594 23.5177 44.4242 24.4623C45.4467 25.3283 46.6263 25.8006 48.0418 25.8006Z" fill="white"/>
<path d="M72.734 12.1027H76.666V27.375C76.666 30.1305 75.9583 32.2559 74.5427 33.9092C73.1271 35.4836 70.9254 36.2709 67.9371 36.2709C65.2634 36.2709 62.9043 35.6411 60.9382 34.4603L61.882 31.075C62.9829 31.6261 63.9265 32.0986 64.7916 32.3346C65.6567 32.5709 66.6002 32.7284 67.7011 32.7284C69.3527 32.7284 70.5323 32.3346 71.4758 31.5473C72.3409 30.7603 72.8127 29.7367 72.8127 28.5559V26.7452C71.4758 28.1623 69.7458 28.8709 67.5441 28.8709C65.106 28.8709 63.1403 28.0836 61.5674 26.5091C59.9947 24.9347 59.2083 22.9666 59.2083 20.4474C59.2083 17.9283 59.9947 15.8815 61.4887 14.307C62.9829 12.6538 64.9489 11.8666 67.308 11.8666C69.4311 11.8666 71.2401 12.5751 72.6554 13.9921H72.734V12.1027ZM68.0158 25.2495C69.4311 25.2495 70.6109 24.7772 71.4758 23.8325C72.3409 22.8879 72.8127 21.707 72.8127 20.29C72.8127 18.873 72.3409 17.6921 71.3971 16.8262C70.4536 15.9602 69.3527 15.4879 67.9371 15.4879C66.5216 15.4879 65.342 15.9602 64.3985 16.8262C63.5334 17.7708 63.0616 18.9517 63.0616 20.3687C63.0616 21.7857 63.5334 23.0453 64.4769 23.9113C65.4994 24.7772 66.6002 25.2495 68.0158 25.2495Z" fill="white"/>
<path d="M84.2941 8.79623C83.7436 9.34729 83.1145 9.58349 82.4067 9.58349C81.6989 9.58349 81.0698 9.34729 80.5194 8.79623C79.9689 8.24517 79.7329 7.69411 79.7329 6.98561C79.7329 6.27709 79.9689 5.64729 80.5194 5.17496C81.0698 4.6239 81.6203 4.38773 82.4067 4.38773C83.1145 4.38773 83.7436 4.6239 84.2941 5.17496C84.8445 5.72602 85.0805 6.27709 85.0805 6.98561C85.0805 7.69411 84.7658 8.3239 84.2941 8.79623ZM80.4407 29.1069V12.1026H84.3727V29.1069H80.4407Z" fill="white"/>
<path d="M88.5402 29.1069V3.44312H92.4722V29.1069H88.5402Z" fill="white"/>
<path d="M112.132 20.3687C112.132 20.7623 112.132 21.3134 112.053 21.9432H99.5498C99.7856 23.124 100.336 24.0687 101.201 24.7772C102.066 25.4857 103.167 25.8006 104.425 25.8006C106.234 25.8006 107.65 25.1708 108.75 23.8325L111.503 26.1942C109.851 28.3199 107.414 29.4219 104.268 29.4219C101.752 29.4219 99.6285 28.6346 97.9769 26.9815C96.3256 25.3283 95.5391 23.2815 95.5391 20.6049C95.5391 18.007 96.3256 15.9602 97.8982 14.307C99.4711 12.6538 101.437 11.8666 103.875 11.8666C106.313 11.8666 108.357 12.6538 109.93 14.2283C111.424 15.8027 112.132 17.8495 112.132 20.3687ZM106.706 16.2751C105.998 15.6453 105.133 15.3304 104.032 15.3304C102.931 15.3304 101.988 15.6453 101.201 16.1964C100.415 16.8262 99.8642 17.6134 99.6285 18.7155H108.2C107.885 17.7708 107.414 16.9049 106.706 16.2751Z" fill="white"/>
<path d="M122.827 29.3432C120.153 29.3432 117.951 28.5559 116.3 26.9028C114.648 25.2495 113.783 23.2028 113.783 20.6049C113.783 18.007 114.648 15.9602 116.3 14.307C117.951 12.6538 120.153 11.7879 122.827 11.7879C125.5 11.7879 127.624 12.5751 129.275 14.2283C130.926 15.8815 131.791 17.9283 131.791 20.6049C131.791 23.2815 130.926 25.2495 129.275 26.9028C127.624 28.5559 125.422 29.3432 122.827 29.3432ZM122.827 25.8006C124.242 25.8006 125.422 25.3283 126.365 24.3049C127.309 23.3602 127.781 22.1006 127.781 20.6049C127.781 19.1091 127.309 17.7708 126.365 16.8262C125.422 15.8815 124.242 15.3304 122.827 15.3304C121.411 15.3304 120.153 15.8028 119.209 16.8262C118.266 17.8495 117.794 19.1091 117.794 20.6049C117.794 22.1006 118.266 23.2815 119.209 24.3049C120.153 25.3283 121.332 25.8006 122.827 25.8006Z" fill="#4A90E2"/>
<path d="M135.016 29.1069V15.4091H133.128V12.1027H135.016V9.0325C135.016 7.14312 135.487 5.6474 136.352 4.70271C137.217 3.67929 138.554 3.20696 140.206 3.20696C141.857 3.20696 143.273 3.60059 144.531 4.38781L143.666 7.69419C142.408 7.14312 141.464 6.82823 140.835 6.82823C139.655 6.82823 139.026 7.69419 139.026 9.50483V12.1814H143.273V15.4878H139.026V29.1857L135.016 29.1069Z" fill="#4A90E2"/>
<path d="M145.71 29.1069V15.4091H143.823V12.1027H145.71V9.0325C145.71 7.14312 146.182 5.6474 147.047 4.70271C147.912 3.67929 149.249 3.20696 150.9 3.20696C152.552 3.20696 153.967 3.60059 155.226 4.38781L154.36 7.69419C153.102 7.14312 152.159 6.82823 151.53 6.82823C150.35 6.82823 149.721 7.69419 149.721 9.50483V12.1814H153.967V15.4878H149.721V29.1857L145.71 29.1069Z" fill="#4A90E2"/>
<path d="M159.787 8.79623C159.236 9.34729 158.607 9.58349 157.899 9.58349C157.192 9.58349 156.562 9.34729 156.012 8.79623C155.462 8.24517 155.226 7.69411 155.226 6.98561C155.226 6.27709 155.462 5.64729 156.012 5.17496C156.484 4.6239 157.113 4.38773 157.899 4.38773C158.607 4.38773 159.236 4.6239 159.787 5.17496C160.337 5.72602 160.573 6.27709 160.573 6.98561C160.573 7.69411 160.337 8.3239 159.787 8.79623ZM155.933 29.1069V12.1026H159.865V29.1069H155.933Z" fill="#4A90E2"/>
<path d="M171.582 29.3432C169.066 29.3432 166.943 28.5559 165.291 26.9028C163.64 25.2495 162.853 23.2028 162.853 20.6049C162.853 18.007 163.718 15.8815 165.37 14.2283C167.021 12.5751 169.144 11.7879 171.74 11.7879C173.155 11.7879 174.492 12.024 175.75 12.5751C177.008 13.1262 178.109 13.9134 178.974 14.9368L176.3 17.2198C175.2 15.8815 173.706 15.2517 171.975 15.2517C170.481 15.2517 169.223 15.724 168.279 16.6687C167.336 17.6134 166.864 18.873 166.864 20.4474C166.864 22.0219 167.336 23.2815 168.279 24.2262C169.223 25.1708 170.481 25.6432 171.975 25.6432C173.784 25.6432 175.2 25.0134 176.3 23.8325L178.974 26.1942C178.188 27.0603 177.166 27.7688 175.829 28.3199C174.57 29.1069 173.155 29.3432 171.582 29.3432Z" fill="#4A90E2"/>
<path d="M196.825 20.3687C196.825 20.7623 196.825 21.3134 196.747 21.9432H184.243C184.479 23.124 185.03 24.0687 185.894 24.7772C186.76 25.4857 187.86 25.8006 189.119 25.8006C190.927 25.8006 192.343 25.1708 193.444 23.8325L196.196 26.1942C194.545 28.3199 192.107 29.4219 188.961 29.4219C186.445 29.4219 184.322 28.6346 182.67 26.9815C180.94 25.3283 180.154 23.2027 180.154 20.6049C180.154 18.007 180.94 15.9602 182.513 14.307C184.086 12.6538 186.13 11.8666 188.49 11.8666C190.927 11.8666 192.972 12.6538 194.545 14.2283C196.039 15.8027 196.825 17.8495 196.825 20.3687ZM191.399 16.2751C190.691 15.6453 189.826 15.3304 188.726 15.3304C187.624 15.3304 186.681 15.6453 185.894 16.1964C185.108 16.8262 184.558 17.6134 184.322 18.7155H192.893C192.579 17.7708 192.107 16.9049 191.399 16.2751Z" fill="#4A90E2"/>
<path d="M0.387039 10.6068V26.6665C0.387039 27.375 0.78023 28.0833 1.40934 28.4771L15.4069 36.5069C16.0361 36.9004 16.8224 36.9004 17.5302 36.5069L31.5278 28.3984C32.157 28.0048 32.5501 27.375 32.5501 26.5877V10.6068C32.5501 9.89833 32.157 9.18981 31.5278 8.7962L17.5302 0.766404C16.9011 0.372787 16.1147 0.372787 15.4069 0.766404L1.40934 8.7962C0.78023 9.18981 0.387039 9.8196 0.387039 10.6068Z" fill="#4A90E2"/>
<path d="M21.3834 16.5109L19.9679 18.9513L16.8224 12.9683L8.25084 27.296H5.41986L6.36353 25.7215L7.77902 23.3598L8.64404 21.9428L10.0595 19.5811L10.61 18.6364L12.0255 16.2747L15.4069 10.6066L16.8224 8.1662L18.1593 10.6853L21.3834 16.5109Z" fill="white"/>
<path d="M26.8883 27.2178L24.2145 27.2963L22.0913 23.0453L23.5068 20.6049L26.8883 27.2178Z" fill="white"/>
<path d="M23.1134 19.8173L21.6979 22.2577L20.4397 19.7385L20.9901 18.7939L21.8552 17.2981L23.1134 19.8173Z" fill="white"/>
<path d="M20.1255 24.8554L18.71 27.2958L17.3731 24.7767L15.7217 21.549L17.1372 19.1086L18.7886 22.3363L20.1255 24.8554Z" fill="white"/>
<path d="M27.0456 13.2043L23.1136 19.8171L21.6981 22.2575L20.204 24.7767L18.7885 27.217L17.373 24.6192L18.0021 23.5171L18.7885 22.1788V22.1001L20.204 19.7383L20.2826 19.6596L20.8331 18.715L21.6981 17.2192L22.2486 16.3532L25.63 10.6852L27.0456 13.2043Z" fill="white"/>
<path d="M27.0456 13.2043L23.1136 19.8171L21.6981 22.2575L20.204 24.7767L18.7885 27.217L17.373 24.6192L18.0021 23.5171L18.7885 22.1788V22.1001L20.204 19.7383L20.2826 19.6596L20.8331 18.715L21.6981 17.2192L22.2486 16.3532L25.63 10.6852L27.0456 13.2043Z" fill="white"/>
<path d="M10.4528 15.3302L9.03731 17.6919H4.16173L5.57722 15.3302H10.4528Z" fill="white"/>
<path d="M8.17228 15.3302L6.75679 17.6919H4.16173L5.57722 15.3302H8.17228Z" fill="white"/>
<path d="M12.7334 11.5511L11.3179 13.9128H7.70052L9.116 11.5511H12.7334Z" fill="white"/>
<path d="M10.6888 11.5511L9.2733 13.9128H7.70052L9.116 11.5511H10.6888Z" fill="white"/>
<path d="M14.3845 7.7726L12.969 10.1343H11.3963L12.8118 7.7726H14.3845Z" fill="white"/>
<path d="M14.935 7.7726L13.5195 10.1343H11.3963L12.8118 7.7726H14.935Z" fill="white"/>
</g>
</g>
<path d="M0.794811 50.137V49.3188C0.794811 49.0773 0.840265 48.823 0.931175 48.556C1.02208 48.289 1.1485 48.0333 1.31044 47.789C1.47237 47.5446 1.66271 47.3358 1.88146 47.1625L2.51214 47.6142C2.33885 47.8671 2.19112 48.1313 2.06896 48.4068C1.9468 48.6824 1.88572 48.9821 1.88572 49.306V50.137H0.794811ZM2.96811 50.137V49.3188C2.96811 49.0773 3.01356 48.823 3.10447 48.556C3.19538 48.289 3.3218 48.0333 3.48373 47.789C3.64566 47.5446 3.836 47.3358 4.05475 47.1625L4.68544 47.6142C4.51214 47.8671 4.36441 48.1313 4.24225 48.4068C4.1201 48.6824 4.05902 48.9821 4.05902 49.306V50.137H2.96811ZM10.6428 49.7023C10.5974 49.2989 10.4099 48.9864 10.0803 48.7648C9.75078 48.5404 9.336 48.4282 8.836 48.4282C8.47805 48.4282 8.16839 48.485 7.90703 48.5986C7.64566 48.7094 7.44254 48.8628 7.29765 49.0588C7.15561 49.252 7.08458 49.4722 7.08458 49.7193C7.08458 49.9267 7.13288 50.1057 7.22947 50.2563C7.3289 50.4068 7.45816 50.5333 7.61725 50.6355C7.77919 50.735 7.95248 50.8188 8.13714 50.887C8.3218 50.9523 8.49936 51.0063 8.66981 51.0489L9.52208 51.2705C9.80049 51.3387 10.086 51.431 10.3786 51.5475C10.6712 51.664 10.9425 51.8174 11.1925 52.0077C11.4425 52.198 11.6442 52.4338 11.7977 52.7151C11.9539 52.9963 12.032 53.333 12.032 53.725C12.032 54.2193 11.9042 54.6583 11.6485 55.0418C11.3957 55.4253 11.0278 55.7279 10.5448 55.9495C10.0647 56.1711 9.48373 56.2818 8.80191 56.2818C8.1485 56.2818 7.58316 56.1782 7.10589 55.9708C6.62862 55.7634 6.25504 55.4693 5.98515 55.0887C5.71527 54.7051 5.56612 54.2506 5.53771 53.725H6.85873C6.8843 54.0404 6.98657 54.3032 7.16555 54.5134C7.34737 54.7208 7.5789 54.8756 7.86015 54.9779C8.14424 55.0773 8.45532 55.127 8.79339 55.127C9.16555 55.127 9.49652 55.0688 9.78629 54.9523C10.0789 54.833 10.309 54.6682 10.4766 54.458C10.6442 54.2449 10.728 53.9963 10.728 53.7122C10.728 53.4537 10.6542 53.2421 10.5065 53.0773C10.3616 52.9125 10.1641 52.7762 9.91413 52.6682C9.66697 52.5603 9.38714 52.4651 9.07464 52.3827L8.04339 52.1015C7.34453 51.9111 6.79055 51.6313 6.38146 51.262C5.97521 50.8926 5.77208 50.404 5.77208 49.7961C5.77208 49.2932 5.90845 48.8543 6.18117 48.4793C6.4539 48.1043 6.82322 47.8131 7.28913 47.6057C7.75504 47.3955 8.28061 47.2904 8.86583 47.2904C9.45674 47.2904 9.97805 47.3941 10.4298 47.6015C10.8843 47.8088 11.2423 48.0943 11.5036 48.458C11.765 48.8188 11.9013 49.2336 11.9127 49.7023H10.6428ZM14.9223 56.137L12.9962 49.5915H14.3129L15.5956 54.3983H15.6595L16.9464 49.5915H18.2632L19.5416 54.377H19.6055L20.8797 49.5915H22.1964L20.2746 56.137H18.9749L17.6453 51.4111H17.5473L16.2178 56.137H14.9223ZM23.4056 56.137V49.5915H24.6798V56.137H23.4056ZM24.0491 48.5816C23.8275 48.5816 23.6371 48.5077 23.478 48.36C23.3218 48.2094 23.2437 48.0304 23.2437 47.823C23.2437 47.6128 23.3218 47.4338 23.478 47.2861C23.6371 47.1355 23.8275 47.0603 24.0491 47.0603C24.2707 47.0603 24.4596 47.1355 24.6158 47.2861C24.7749 47.4338 24.8545 47.6128 24.8545 47.823C24.8545 48.0304 24.7749 48.2094 24.6158 48.36C24.4596 48.5077 24.2707 48.5816 24.0491 48.5816ZM29.5089 49.5915V50.6142H25.8101V49.5915H29.5089ZM26.8243 56.137V48.833C26.8243 48.4239 26.9138 48.0844 27.0928 47.8145C27.2717 47.5418 27.5089 47.3387 27.8044 47.2051C28.0999 47.0688 28.4209 47.0006 28.7675 47.0006C29.0231 47.0006 29.2419 47.0219 29.4237 47.0645C29.6055 47.1043 29.7405 47.1412 29.8285 47.1753L29.5303 48.2066C29.4706 48.1895 29.3939 48.1696 29.3001 48.1469C29.2064 48.1213 29.0928 48.1086 28.9592 48.1086C28.6496 48.1086 28.428 48.1853 28.2945 48.3387C28.1638 48.4921 28.0984 48.7137 28.0984 49.0034V56.137H26.8243ZM33.879 49.5915V50.6142H30.3037V49.5915H33.879ZM31.2625 48.0233H32.5366V54.2151C32.5366 54.4622 32.5736 54.6483 32.6474 54.7733C32.7213 54.8955 32.8165 54.9793 32.933 55.0247C33.0523 55.0674 33.1815 55.0887 33.3207 55.0887C33.423 55.0887 33.5125 55.0816 33.5892 55.0674C33.6659 55.0532 33.7256 55.0418 33.7682 55.0333L33.9983 56.0858C33.9244 56.1142 33.8193 56.1426 33.683 56.1711C33.5466 56.2023 33.3761 56.2193 33.1716 56.2222C32.8364 56.2279 32.5239 56.1682 32.2341 56.0432C31.9443 55.9182 31.7099 55.725 31.531 55.4637C31.352 55.2023 31.2625 54.8742 31.2625 54.4793V48.0233ZM40.369 56.2818C39.9543 56.2818 39.5793 56.2051 39.244 56.0517C38.9088 55.8955 38.6432 55.6696 38.4472 55.3742C38.254 55.0787 38.1574 54.7165 38.1574 54.2875C38.1574 53.9182 38.2284 53.6142 38.3705 53.3756C38.5125 53.137 38.7043 52.948 38.9457 52.8088C39.1872 52.6696 39.4571 52.5645 39.7554 52.4935C40.0537 52.4225 40.3577 52.3685 40.6673 52.3316C41.0594 52.2861 41.3776 52.2492 41.6219 52.2208C41.8662 52.1895 42.0437 52.1398 42.1545 52.0716C42.2653 52.0034 42.3207 51.8926 42.3207 51.7392V51.7094C42.3207 51.3372 42.2156 51.0489 42.0054 50.8443C41.798 50.6398 41.4883 50.5375 41.0764 50.5375C40.6474 50.5375 40.3094 50.6327 40.0622 50.823C39.8179 51.0105 39.6489 51.2193 39.5551 51.4495L38.3577 51.1767C38.4997 50.779 38.7071 50.458 38.9798 50.2137C39.2554 49.9665 39.5722 49.7875 39.9301 49.6767C40.2881 49.5631 40.6645 49.5063 41.0594 49.5063C41.3207 49.5063 41.5977 49.5375 41.8903 49.6C42.1858 49.6597 42.4614 49.7705 42.717 49.9324C42.9756 50.0943 43.1872 50.3259 43.352 50.627C43.5168 50.9253 43.5991 51.3131 43.5991 51.7904V56.137H42.3548V55.2421H42.3037C42.2213 55.4068 42.0977 55.5688 41.933 55.7279C41.7682 55.887 41.5565 56.0191 41.298 56.1242C41.0395 56.2293 40.7298 56.2818 40.369 56.2818ZM40.646 55.2591C40.9983 55.2591 41.2994 55.1895 41.5494 55.0503C41.8023 54.9111 41.994 54.7293 42.1247 54.5049C42.2582 54.2776 42.325 54.0347 42.325 53.7762V52.9324C42.2795 52.9779 42.1915 53.0205 42.0608 53.0603C41.933 53.0972 41.7866 53.1299 41.6219 53.1583C41.4571 53.1838 41.2966 53.208 41.1403 53.2307C40.9841 53.2506 40.8534 53.2676 40.7483 53.2818C40.5011 53.3131 40.2753 53.3657 40.0707 53.4395C39.869 53.5134 39.7071 53.6199 39.5849 53.7591C39.4656 53.8955 39.406 54.0773 39.406 54.3046C39.406 54.6199 39.5224 54.8586 39.7554 55.0205C39.9883 55.1796 40.2852 55.2591 40.646 55.2591ZM46.5704 52.2506V56.137H45.2962V49.5915H46.5192V50.6568H46.6002C46.7508 50.3103 46.9866 50.0318 47.3076 49.8216C47.6315 49.6114 48.0391 49.5063 48.5306 49.5063C48.9766 49.5063 49.3673 49.6 49.7025 49.7875C50.0377 49.9722 50.2977 50.2478 50.4823 50.6142C50.667 50.9807 50.7593 51.4338 50.7593 51.9736V56.137H49.4852V52.127C49.4852 51.6526 49.3616 51.2818 49.1144 51.0148C48.8673 50.7449 48.5278 50.61 48.0959 50.61C47.8005 50.61 47.5377 50.6739 47.3076 50.8017C47.0803 50.9296 46.8999 51.1171 46.7664 51.3642C46.6357 51.6086 46.5704 51.904 46.5704 52.2506ZM54.9184 56.2648C54.39 56.2648 53.9184 56.1299 53.5036 55.86C53.0917 55.5872 52.7678 55.1995 52.532 54.6966C52.2991 54.1909 52.1826 53.5844 52.1826 52.877C52.1826 52.1696 52.3005 51.5645 52.5363 51.0617C52.7749 50.5588 53.1016 50.1739 53.5164 49.9068C53.9312 49.6398 54.4013 49.5063 54.9269 49.5063C55.3332 49.5063 55.6599 49.5745 55.907 49.7108C56.157 49.8443 56.3502 50.0006 56.4866 50.1796C56.6258 50.3586 56.7337 50.5162 56.8104 50.6526H56.8871V47.4097H58.1613V56.137H56.917V55.1185H56.8104C56.7337 55.2577 56.6229 55.4168 56.478 55.5958C56.336 55.7747 56.14 55.931 55.89 56.0645C55.64 56.198 55.3161 56.2648 54.9184 56.2648ZM55.1996 55.1782C55.5661 55.1782 55.8758 55.0816 56.1286 54.8884C56.3843 54.6924 56.5775 54.4211 56.7082 54.0745C56.8417 53.7279 56.9084 53.3245 56.9084 52.8642C56.9084 52.4097 56.8431 52.012 56.7124 51.6711C56.5817 51.3301 56.39 51.0645 56.1371 50.8742C55.8843 50.6838 55.5718 50.5887 55.1996 50.5887C54.8161 50.5887 54.4965 50.6881 54.2408 50.887C53.9852 51.0858 53.792 51.3571 53.6613 51.7009C53.5334 52.0446 53.4695 52.4324 53.4695 52.8642C53.4695 53.3017 53.5349 53.6952 53.6655 54.0446C53.7962 54.3941 53.9894 54.6711 54.2451 54.8756C54.5036 55.0773 54.8218 55.1782 55.1996 55.1782ZM68.0178 49.7023C67.9724 49.2989 67.7849 48.9864 67.4553 48.7648C67.1258 48.5404 66.711 48.4282 66.211 48.4282C65.853 48.4282 65.5434 48.485 65.282 48.5986C65.0207 48.7094 64.8175 48.8628 64.6727 49.0588C64.5306 49.252 64.4596 49.4722 64.4596 49.7193C64.4596 49.9267 64.5079 50.1057 64.6045 50.2563C64.7039 50.4068 64.8332 50.5333 64.9923 50.6355C65.1542 50.735 65.3275 50.8188 65.5121 50.887C65.6968 50.9523 65.8744 51.0063 66.0448 51.0489L66.8971 51.2705C67.1755 51.3387 67.461 51.431 67.7536 51.5475C68.0462 51.664 68.3175 51.8174 68.5675 52.0077C68.8175 52.198 69.0192 52.4338 69.1727 52.7151C69.3289 52.9963 69.407 53.333 69.407 53.725C69.407 54.2193 69.2792 54.6583 69.0235 55.0418C68.7707 55.4253 68.4028 55.7279 67.9198 55.9495C67.4397 56.1711 66.8587 56.2818 66.1769 56.2818C65.5235 56.2818 64.9582 56.1782 64.4809 55.9708C64.0036 55.7634 63.63 55.4693 63.3602 55.0887C63.0903 54.7051 62.9411 54.2506 62.9127 53.725H64.2337C64.2593 54.0404 64.3616 54.3032 64.5405 54.5134C64.7224 54.7208 64.9539 54.8756 65.2352 54.9779C65.5192 55.0773 65.8303 55.127 66.1684 55.127C66.5405 55.127 66.8715 55.0688 67.1613 54.9523C67.4539 54.833 67.684 54.6682 67.8516 54.458C68.0192 54.2449 68.103 53.9963 68.103 53.7122C68.103 53.4537 68.0292 53.2421 67.8815 53.0773C67.7366 52.9125 67.5391 52.7762 67.2891 52.6682C67.042 52.5603 66.7621 52.4651 66.4496 52.3827L65.4184 52.1015C64.7195 51.9111 64.1655 51.6313 63.7565 51.262C63.3502 50.8926 63.1471 50.404 63.1471 49.7961C63.1471 49.2932 63.2834 48.8543 63.5562 48.4793C63.8289 48.1043 64.1982 47.8131 64.6641 47.6057C65.13 47.3955 65.6556 47.2904 66.2408 47.2904C66.8317 47.2904 67.353 47.3941 67.8048 47.6015C68.2593 47.8088 68.6173 48.0943 68.8786 48.458C69.14 48.8188 69.2763 49.2336 69.2877 49.7023H68.0178ZM70.8783 56.137V49.5915H72.1524V56.137H70.8783ZM71.5217 48.5816C71.3001 48.5816 71.1098 48.5077 70.9507 48.36C70.7945 48.2094 70.7163 48.0304 70.7163 47.823C70.7163 47.6128 70.7945 47.4338 70.9507 47.2861C71.1098 47.1355 71.3001 47.0603 71.5217 47.0603C71.7433 47.0603 71.9322 47.1355 72.0885 47.2861C72.2476 47.4338 72.3271 47.6128 72.3271 47.823C72.3271 48.0304 72.2476 48.2094 72.0885 48.36C71.9322 48.5077 71.7433 48.5816 71.5217 48.5816ZM73.8665 56.137V49.5915H75.0896V50.6568H75.1705C75.3069 50.2961 75.5299 50.0148 75.8396 49.8131C76.1492 49.6086 76.52 49.5063 76.9518 49.5063C77.3893 49.5063 77.7557 49.6086 78.0512 49.8131C78.3495 50.0176 78.5697 50.2989 78.7117 50.6568H78.7799C78.9361 50.3074 79.1847 50.029 79.5256 49.8216C79.8665 49.6114 80.2728 49.5063 80.7444 49.5063C81.3381 49.5063 81.8225 49.6924 82.1975 50.0645C82.5754 50.4367 82.7643 50.9978 82.7643 51.7478V56.137H81.4901V51.8671C81.4901 51.4239 81.3694 51.1029 81.1279 50.904C80.8864 50.7051 80.5981 50.6057 80.2629 50.6057C79.8481 50.6057 79.5256 50.7336 79.2955 50.9892C79.0654 51.2421 78.9504 51.5674 78.9504 51.9651V56.137H77.6805V51.7861C77.6805 51.431 77.5697 51.1455 77.3481 50.9296C77.1265 50.7137 76.8381 50.6057 76.483 50.6057C76.2415 50.6057 76.0185 50.6696 75.814 50.7975C75.6123 50.9225 75.4489 51.0972 75.3239 51.3216C75.2018 51.5461 75.1407 51.806 75.1407 52.1015V56.137H73.8665ZM84.472 58.5915V49.5915H85.7163V50.6526H85.8229C85.8967 50.5162 86.0033 50.3586 86.1425 50.1796C86.2817 50.0006 86.4749 49.8443 86.722 49.7108C86.9692 49.5745 87.2959 49.5063 87.7021 49.5063C88.2305 49.5063 88.7021 49.6398 89.1169 49.9068C89.5317 50.1739 89.857 50.5588 90.0928 51.0617C90.3314 51.5645 90.4507 52.1696 90.4507 52.877C90.4507 53.5844 90.3328 54.1909 90.097 54.6966C89.8612 55.1995 89.5374 55.5872 89.1254 55.86C88.7135 56.1299 88.2433 56.2648 87.7149 56.2648C87.3172 56.2648 86.9919 56.198 86.7391 56.0645C86.4891 55.931 86.293 55.7747 86.151 55.5958C86.0089 55.4168 85.8996 55.2577 85.8229 55.1185H85.7462V58.5915H84.472ZM85.7206 52.8642C85.7206 53.3245 85.7874 53.7279 85.9209 54.0745C86.0544 54.4211 86.2476 54.6924 86.5004 54.8884C86.7533 55.0816 87.0629 55.1782 87.4294 55.1782C87.8101 55.1782 88.1283 55.0773 88.3839 54.8756C88.6396 54.6711 88.8328 54.3941 88.9635 54.0446C89.097 53.6952 89.1638 53.3017 89.1638 52.8642C89.1638 52.4324 89.0984 52.0446 88.9678 51.7009C88.8399 51.3571 88.6467 51.0858 88.3882 50.887C88.1325 50.6881 87.8129 50.5887 87.4294 50.5887C87.0601 50.5887 86.7476 50.6838 86.4919 50.8742C86.2391 51.0645 86.0473 51.3301 85.9166 51.6711C85.7859 52.012 85.7206 52.4097 85.7206 52.8642ZM93.1524 47.4097V56.137H91.8783V47.4097H93.1524ZM97.6876 56.2691C97.0427 56.2691 96.4873 56.1313 96.0214 55.8557C95.5583 55.5773 95.2004 55.1867 94.9475 54.6838C94.6975 54.1782 94.5725 53.5858 94.5725 52.9068C94.5725 52.2364 94.6975 51.6455 94.9475 51.1341C95.2004 50.6228 95.5526 50.2236 96.0043 49.9367C96.4589 49.6497 96.9901 49.5063 97.5981 49.5063C97.9674 49.5063 98.3254 49.5674 98.6719 49.6895C99.0185 49.8117 99.3296 50.0034 99.6052 50.2648C99.8807 50.5262 100.098 50.8657 100.257 51.2833C100.416 51.698 100.496 52.2023 100.496 52.7961V53.2478H95.2927V52.2932H99.2472C99.2472 51.958 99.179 51.6611 99.0427 51.4026C98.9063 51.1412 98.7146 50.9353 98.4674 50.7847C98.2231 50.6341 97.9361 50.5588 97.6066 50.5588C97.2486 50.5588 96.9361 50.6469 96.6691 50.823C96.4049 50.9963 96.2004 51.2236 96.0555 51.5049C95.9134 51.7833 95.8424 52.0858 95.8424 52.4125V53.1583C95.8424 53.5958 95.9191 53.9679 96.0725 54.2747C96.2288 54.5816 96.4461 54.8159 96.7245 54.9779C97.0029 55.137 97.3282 55.2165 97.7004 55.2165C97.9418 55.2165 98.162 55.1824 98.3609 55.1142C98.5597 55.0432 98.7316 54.9381 98.8765 54.7989C99.0214 54.6597 99.1322 54.4878 99.2089 54.2833L100.415 54.5006C100.318 54.8557 100.145 55.1668 99.895 55.4338C99.6478 55.698 99.3367 55.904 98.9617 56.0517C98.5896 56.1966 98.1648 56.2691 97.6876 56.2691ZM103.005 47.4097V48.2279C103.005 48.4693 102.959 48.7236 102.868 48.9907C102.78 49.2549 102.655 49.5091 102.493 49.7534C102.331 49.9978 102.141 50.208 101.922 50.3841L101.292 49.9324C101.459 49.6881 101.604 49.4282 101.726 49.1526C101.851 48.877 101.914 48.573 101.914 48.2407V47.4097H103.005ZM105.174 47.4097V48.2279C105.174 48.4693 105.128 48.7236 105.037 48.9907C104.949 49.2549 104.824 49.5091 104.662 49.7534C104.5 49.9978 104.31 50.208 104.091 50.3841L103.461 49.9324C103.628 49.6881 103.773 49.4282 103.895 49.1526C104.02 48.877 104.083 48.573 104.083 48.2407V47.4097H105.174ZM112.577 56.2691C111.963 56.2691 111.428 56.1284 110.97 55.8472C110.513 55.5659 110.158 55.1725 109.905 54.6668C109.652 54.1611 109.526 53.5702 109.526 52.8941C109.526 52.2151 109.652 51.6213 109.905 51.1128C110.158 50.6043 110.513 50.2094 110.97 49.9282C111.428 49.6469 111.963 49.5063 112.577 49.5063C113.19 49.5063 113.726 49.6469 114.183 49.9282C114.641 50.2094 114.996 50.6043 115.249 51.1128C115.501 51.6213 115.628 52.2151 115.628 52.8941C115.628 53.5702 115.501 54.1611 115.249 54.6668C114.996 55.1725 114.641 55.5659 114.183 55.8472C113.726 56.1284 113.19 56.2691 112.577 56.2691ZM112.581 55.1995C112.979 55.1995 113.308 55.0943 113.57 54.8841C113.831 54.6739 114.024 54.3941 114.149 54.0446C114.277 53.6952 114.341 53.3103 114.341 52.8898C114.341 52.4722 114.277 52.0887 114.149 51.7392C114.024 51.387 113.831 51.1043 113.57 50.8912C113.308 50.6782 112.979 50.5716 112.581 50.5716C112.18 50.5716 111.848 50.6782 111.584 50.8912C111.323 51.1043 111.128 51.387 111 51.7392C110.875 52.0887 110.813 52.4722 110.813 52.8898C110.813 53.3103 110.875 53.6952 111 54.0446C111.128 54.3941 111.323 54.6739 111.584 54.8841C111.848 55.0943 112.18 55.1995 112.581 55.1995ZM120.165 49.5915V50.6142H116.466V49.5915H120.165ZM117.481 56.137V48.833C117.481 48.4239 117.57 48.0844 117.749 47.8145C117.928 47.5418 118.165 47.3387 118.461 47.2051C118.756 47.0688 119.077 47.0006 119.424 47.0006C119.679 47.0006 119.898 47.0219 120.08 47.0645C120.262 47.1043 120.397 47.1412 120.485 47.1753L120.187 48.2066C120.127 48.1895 120.05 48.1696 119.956 48.1469C119.863 48.1213 119.749 48.1086 119.615 48.1086C119.306 48.1086 119.084 48.1853 118.951 48.3387C118.82 48.4921 118.755 48.7137 118.755 49.0034V56.137H117.481ZM124.595 49.5915V50.6142H120.896V49.5915H124.595ZM121.91 56.137V48.833C121.91 48.4239 122 48.0844 122.179 47.8145C122.358 47.5418 122.595 47.3387 122.89 47.2051C123.186 47.0688 123.507 47.0006 123.853 47.0006C124.109 47.0006 124.328 47.0219 124.51 47.0645C124.691 47.1043 124.826 47.1412 124.914 47.1753L124.616 48.2066C124.557 48.1895 124.48 48.1696 124.386 48.1469C124.292 48.1213 124.179 48.1086 124.045 48.1086C123.736 48.1086 123.514 48.1853 123.38 48.3387C123.25 48.4921 123.184 48.7137 123.184 49.0034V56.137H121.91ZM125.91 56.137V49.5915H127.184V56.137H125.91ZM126.553 48.5816C126.331 48.5816 126.141 48.5077 125.982 48.36C125.826 48.2094 125.748 48.0304 125.748 47.823C125.748 47.6128 125.826 47.4338 125.982 47.2861C126.141 47.1355 126.331 47.0603 126.553 47.0603C126.775 47.0603 126.963 47.1355 127.12 47.2861C127.279 47.4338 127.358 47.6128 127.358 47.823C127.358 48.0304 127.279 48.2094 127.12 48.36C126.963 48.5077 126.775 48.5816 126.553 48.5816ZM131.655 56.2691C131.021 56.2691 130.476 56.1256 130.019 55.8387C129.564 55.5489 129.215 55.1497 128.97 54.6412C128.726 54.1327 128.604 53.5503 128.604 52.8941C128.604 52.2293 128.729 51.6426 128.979 51.1341C129.229 50.6228 129.581 50.2236 130.036 49.9367C130.49 49.6497 131.026 49.5063 131.642 49.5063C132.139 49.5063 132.582 49.5986 132.972 49.7833C133.361 49.9651 133.675 50.2208 133.913 50.5503C134.155 50.8799 134.298 51.2648 134.344 51.7051H133.104C133.036 51.3983 132.879 51.1341 132.635 50.9125C132.394 50.6909 132.07 50.5801 131.663 50.5801C131.308 50.5801 130.997 50.6739 130.73 50.8614C130.466 51.0461 130.26 51.3103 130.112 51.654C129.965 51.9949 129.891 52.3983 129.891 52.8642C129.891 53.3415 129.963 53.7534 130.108 54.1C130.253 54.4466 130.457 54.7151 130.722 54.9054C130.989 55.0958 131.303 55.1909 131.663 55.1909C131.905 55.1909 132.124 55.1469 132.32 55.0588C132.519 54.9679 132.685 54.8387 132.818 54.6711C132.955 54.5034 133.05 54.3017 133.104 54.0659H134.344C134.298 54.4892 134.161 54.8671 133.93 55.1995C133.7 55.5318 133.392 55.7932 133.006 55.9836C132.622 56.1739 132.172 56.2691 131.655 56.2691ZM138.527 56.2691C137.883 56.2691 137.327 56.1313 136.861 55.8557C136.398 55.5773 136.04 55.1867 135.787 54.6838C135.537 54.1782 135.412 53.5858 135.412 52.9068C135.412 52.2364 135.537 51.6455 135.787 51.1341C136.04 50.6228 136.392 50.2236 136.844 49.9367C137.299 49.6497 137.83 49.5063 138.438 49.5063C138.807 49.5063 139.165 49.5674 139.512 49.6895C139.858 49.8117 140.169 50.0034 140.445 50.2648C140.721 50.5262 140.938 50.8657 141.097 51.2833C141.256 51.698 141.336 52.2023 141.336 52.7961V53.2478H136.133V52.2932H140.087C140.087 51.958 140.019 51.6611 139.883 51.4026C139.746 51.1412 139.554 50.9353 139.307 50.7847C139.063 50.6341 138.776 50.5588 138.446 50.5588C138.088 50.5588 137.776 50.6469 137.509 50.823C137.245 50.9963 137.04 51.2236 136.895 51.5049C136.753 51.7833 136.682 52.0858 136.682 52.4125V53.1583C136.682 53.5958 136.759 53.9679 136.912 54.2747C137.069 54.5816 137.286 54.8159 137.564 54.9779C137.843 55.137 138.168 55.2165 138.54 55.2165C138.782 55.2165 139.002 55.1824 139.201 55.1142C139.4 55.0432 139.571 54.9381 139.716 54.7989C139.861 54.6597 139.972 54.4878 140.049 54.2833L141.255 54.5006C141.158 54.8557 140.985 55.1668 140.735 55.4338C140.488 55.698 140.177 55.904 139.802 56.0517C139.429 56.1966 139.005 56.2691 138.527 56.2691ZM147.83 56.2818C147.415 56.2818 147.04 56.2051 146.705 56.0517C146.37 55.8955 146.104 55.6696 145.908 55.3742C145.715 55.0787 145.618 54.7165 145.618 54.2875C145.618 53.9182 145.689 53.6142 145.831 53.3756C145.973 53.137 146.165 52.948 146.407 52.8088C146.648 52.6696 146.918 52.5645 147.216 52.4935C147.515 52.4225 147.819 52.3685 148.128 52.3316C148.52 52.2861 148.838 52.2492 149.083 52.2208C149.327 52.1895 149.505 52.1398 149.615 52.0716C149.726 52.0034 149.782 51.8926 149.782 51.7392V51.7094C149.782 51.3372 149.677 51.0489 149.466 50.8443C149.259 50.6398 148.949 50.5375 148.537 50.5375C148.108 50.5375 147.77 50.6327 147.523 50.823C147.279 51.0105 147.11 51.2193 147.016 51.4495L145.819 51.1767C145.961 50.779 146.168 50.458 146.441 50.2137C146.716 49.9665 147.033 49.7875 147.391 49.6767C147.749 49.5631 148.125 49.5063 148.52 49.5063C148.782 49.5063 149.059 49.5375 149.351 49.6C149.647 49.6597 149.922 49.7705 150.178 49.9324C150.437 50.0943 150.648 50.3259 150.813 50.627C150.978 50.9253 151.06 51.3131 151.06 51.7904V56.137H149.816V55.2421H149.765C149.682 55.4068 149.559 55.5688 149.394 55.7279C149.229 55.887 149.017 56.0191 148.759 56.1242C148.5 56.2293 148.191 56.2818 147.83 56.2818ZM148.107 55.2591C148.459 55.2591 148.76 55.1895 149.01 55.0503C149.263 54.9111 149.455 54.7293 149.586 54.5049C149.719 54.2776 149.786 54.0347 149.786 53.7762V52.9324C149.74 52.9779 149.652 53.0205 149.522 53.0603C149.394 53.0972 149.248 53.1299 149.083 53.1583C148.918 53.1838 148.758 53.208 148.601 53.2307C148.445 53.2506 148.314 53.2676 148.209 53.2818C147.962 53.3131 147.736 53.3657 147.532 53.4395C147.33 53.5134 147.168 53.6199 147.046 53.7591C146.927 53.8955 146.867 54.0773 146.867 54.3046C146.867 54.6199 146.983 54.8586 147.216 55.0205C147.449 55.1796 147.746 55.2591 148.107 55.2591ZM156.903 53.4225V49.5915H158.182V56.137H156.929V55.0034H156.861C156.71 55.3529 156.469 55.6441 156.136 55.877C155.807 56.1071 155.396 56.2222 154.905 56.2222C154.484 56.2222 154.112 56.1299 153.788 55.9452C153.467 55.7577 153.215 55.4807 153.03 55.1142C152.848 54.7478 152.757 54.2946 152.757 53.7549V49.5915H154.031V53.6015C154.031 54.0475 154.155 54.4026 154.402 54.6668C154.649 54.931 154.97 55.0631 155.365 55.0631C155.604 55.0631 155.841 55.0034 156.077 54.8841C156.315 54.7648 156.513 54.5844 156.669 54.3429C156.828 54.1015 156.906 53.7946 156.903 53.4225ZM162.949 49.5915V50.6142H159.374V49.5915H162.949ZM160.333 48.0233H161.607V54.2151C161.607 54.4622 161.644 54.6483 161.718 54.7733C161.792 54.8955 161.887 54.9793 162.003 55.0247C162.123 55.0674 162.252 55.0887 162.391 55.0887C162.493 55.0887 162.583 55.0816 162.66 55.0674C162.736 55.0532 162.796 55.0418 162.838 55.0333L163.069 56.0858C162.995 56.1142 162.89 56.1426 162.753 56.1711C162.617 56.2023 162.446 56.2193 162.242 56.2222C161.907 56.2279 161.594 56.1682 161.304 56.0432C161.015 55.9182 160.78 55.725 160.601 55.4637C160.422 55.2023 160.333 54.8742 160.333 54.4793V48.0233ZM167.046 56.2691C166.432 56.2691 165.896 56.1284 165.439 55.8472C164.982 55.5659 164.626 55.1725 164.374 54.6668C164.121 54.1611 163.994 53.5702 163.994 52.8941C163.994 52.2151 164.121 51.6213 164.374 51.1128C164.626 50.6043 164.982 50.2094 165.439 49.9282C165.896 49.6469 166.432 49.5063 167.046 49.5063C167.659 49.5063 168.195 49.6469 168.652 49.9282C169.109 50.2094 169.465 50.6043 169.717 51.1128C169.97 51.6213 170.097 52.2151 170.097 52.8941C170.097 53.5702 169.97 54.1611 169.717 54.6668C169.465 55.1725 169.109 55.5659 168.652 55.8472C168.195 56.1284 167.659 56.2691 167.046 56.2691ZM167.05 55.1995C167.448 55.1995 167.777 55.0943 168.038 54.8841C168.3 54.6739 168.493 54.3941 168.618 54.0446C168.746 53.6952 168.81 53.3103 168.81 52.8898C168.81 52.4722 168.746 52.0887 168.618 51.7392C168.493 51.387 168.3 51.1043 168.038 50.8912C167.777 50.6782 167.448 50.5716 167.05 50.5716C166.649 50.5716 166.317 50.6782 166.053 50.8912C165.791 51.1043 165.597 51.387 165.469 51.7392C165.344 52.0887 165.281 52.4722 165.281 52.8898C165.281 53.3103 165.344 53.6952 165.469 54.0446C165.597 54.3941 165.791 54.6739 166.053 54.8841C166.317 55.0943 166.649 55.1995 167.05 55.1995ZM171.519 56.137V49.5915H172.742V50.6568H172.823C172.959 50.2961 173.182 50.0148 173.492 49.8131C173.802 49.6086 174.172 49.5063 174.604 49.5063C175.042 49.5063 175.408 49.6086 175.704 49.8131C176.002 50.0176 176.222 50.2989 176.364 50.6568H176.432C176.588 50.3074 176.837 50.029 177.178 49.8216C177.519 49.6114 177.925 49.5063 178.397 49.5063C178.99 49.5063 179.475 49.6924 179.85 50.0645C180.228 50.4367 180.417 50.9978 180.417 51.7478V56.137H179.142V51.8671C179.142 51.4239 179.022 51.1029 178.78 50.904C178.539 50.7051 178.25 50.6057 177.915 50.6057C177.5 50.6057 177.178 50.7336 176.948 50.9892C176.718 51.2421 176.603 51.5674 176.603 51.9651V56.137H175.333V51.7861C175.333 51.431 175.222 51.1455 175 50.9296C174.779 50.7137 174.49 50.6057 174.135 50.6057C173.894 50.6057 173.671 50.6696 173.466 50.7975C173.265 50.9225 173.101 51.0972 172.976 51.3216C172.854 51.5461 172.793 51.806 172.793 52.1015V56.137H171.519ZM184.029 56.2818C183.614 56.2818 183.239 56.2051 182.904 56.0517C182.569 55.8955 182.303 55.6696 182.107 55.3742C181.914 55.0787 181.818 54.7165 181.818 54.2875C181.818 53.9182 181.889 53.6142 182.031 53.3756C182.173 53.137 182.364 52.948 182.606 52.8088C182.847 52.6696 183.117 52.5645 183.416 52.4935C183.714 52.4225 184.018 52.3685 184.327 52.3316C184.72 52.2861 185.038 52.2492 185.282 52.2208C185.526 52.1895 185.704 52.1398 185.815 52.0716C185.925 52.0034 185.981 51.8926 185.981 51.7392V51.7094C185.981 51.3372 185.876 51.0489 185.666 50.8443C185.458 50.6398 185.149 50.5375 184.737 50.5375C184.308 50.5375 183.97 50.6327 183.722 50.823C183.478 51.0105 183.309 51.2193 183.215 51.4495L182.018 51.1767C182.16 50.779 182.367 50.458 182.64 50.2137C182.916 49.9665 183.232 49.7875 183.59 49.6767C183.948 49.5631 184.325 49.5063 184.72 49.5063C184.981 49.5063 185.258 49.5375 185.55 49.6C185.846 49.6597 186.122 49.7705 186.377 49.9324C186.636 50.0943 186.847 50.3259 187.012 50.627C187.177 50.9253 187.259 51.3131 187.259 51.7904V56.137H186.015V55.2421H185.964C185.881 55.4068 185.758 55.5688 185.593 55.7279C185.428 55.887 185.217 56.0191 184.958 56.1242C184.7 56.2293 184.39 56.2818 184.029 56.2818ZM184.306 55.2591C184.658 55.2591 184.96 55.1895 185.21 55.0503C185.462 54.9111 185.654 54.7293 185.785 54.5049C185.918 54.2776 185.985 54.0347 185.985 53.7762V52.9324C185.94 52.9779 185.852 53.0205 185.721 53.0603C185.593 53.0972 185.447 53.1299 185.282 53.1583C185.117 53.1838 184.957 53.208 184.8 53.2307C184.644 53.2506 184.514 53.2676 184.408 53.2818C184.161 53.3131 183.935 53.3657 183.731 53.4395C183.529 53.5134 183.367 53.6199 183.245 53.7591C183.126 53.8955 183.066 54.0773 183.066 54.3046C183.066 54.6199 183.183 54.8586 183.416 55.0205C183.649 55.1796 183.945 55.2591 184.306 55.2591ZM192.012 49.5915V50.6142H188.437V49.5915H192.012ZM189.395 48.0233H190.669V54.2151C190.669 54.4622 190.706 54.6483 190.78 54.7733C190.854 54.8955 190.949 54.9793 191.066 55.0247C191.185 55.0674 191.314 55.0887 191.454 55.0887C191.556 55.0887 191.645 55.0816 191.722 55.0674C191.799 55.0532 191.858 55.0418 191.901 55.0333L192.131 56.0858C192.057 56.1142 191.952 56.1426 191.816 56.1711C191.679 56.2023 191.509 56.2193 191.304 56.2222C190.969 56.2279 190.657 56.1682 190.367 56.0432C190.077 55.9182 189.843 55.725 189.664 55.4637C189.485 55.2023 189.395 54.8742 189.395 54.4793V48.0233ZM193.421 56.137V49.5915H194.695V56.137H193.421ZM194.065 48.5816C193.843 48.5816 193.653 48.5077 193.494 48.36C193.337 48.2094 193.259 48.0304 193.259 47.823C193.259 47.6128 193.337 47.4338 193.494 47.2861C193.653 47.1355 193.843 47.0603 194.065 47.0603C194.286 47.0603 194.475 47.1355 194.631 47.2861C194.791 47.4338 194.87 47.6128 194.87 47.823C194.87 48.0304 194.791 48.2094 194.631 48.36C194.475 48.5077 194.286 48.5816 194.065 48.5816ZM199.167 56.2691C198.553 56.2691 198.017 56.1284 197.56 55.8472C197.103 55.5659 196.748 55.1725 196.495 54.6668C196.242 54.1611 196.115 53.5702 196.115 52.8941C196.115 52.2151 196.242 51.6213 196.495 51.1128C196.748 50.6043 197.103 50.2094 197.56 49.9282C198.017 49.6469 198.553 49.5063 199.167 49.5063C199.78 49.5063 200.316 49.6469 200.773 49.9282C201.231 50.2094 201.586 50.6043 201.838 51.1128C202.091 51.6213 202.218 52.2151 202.218 52.8941C202.218 53.5702 202.091 54.1611 201.838 54.6668C201.586 55.1725 201.231 55.5659 200.773 55.8472C200.316 56.1284 199.78 56.2691 199.167 56.2691ZM199.171 55.1995C199.569 55.1995 199.898 55.0943 200.16 54.8841C200.421 54.6739 200.614 54.3941 200.739 54.0446C200.867 53.6952 200.931 53.3103 200.931 52.8898C200.931 52.4722 200.867 52.0887 200.739 51.7392C200.614 51.387 200.421 51.1043 200.16 50.8912C199.898 50.6782 199.569 50.5716 199.171 50.5716C198.77 50.5716 198.438 50.6782 198.174 50.8912C197.912 51.1043 197.718 51.387 197.59 51.7392C197.465 52.0887 197.402 52.4722 197.402 52.8898C197.402 53.3103 197.465 53.6952 197.59 54.0446C197.718 54.3941 197.912 54.6739 198.174 54.8841C198.438 55.0943 198.77 55.1995 199.171 55.1995ZM204.914 52.2506V56.137H203.64V49.5915H204.863V50.6568H204.944C205.095 50.3103 205.33 50.0318 205.651 49.8216C205.975 49.6114 206.383 49.5063 206.874 49.5063C207.32 49.5063 207.711 49.6 208.046 49.7875C208.381 49.9722 208.641 50.2478 208.826 50.6142C209.011 50.9807 209.103 51.4338 209.103 51.9736V56.137H207.829V52.127C207.829 51.6526 207.705 51.2818 207.458 51.0148C207.211 50.7449 206.872 50.61 206.44 50.61C206.144 50.61 205.881 50.6739 205.651 50.8017C205.424 50.9296 205.244 51.1171 205.11 51.3642C204.979 51.6086 204.914 51.904 204.914 52.2506Z" fill="#B0B8C5"/>
<defs>
<clipPath id="clip0_681_33">
<rect width="198" height="37" fill="white" transform="translate(0.0725098 0.136963)"/>
</clipPath>
</defs>
</svg>
