<svg width="80" height="20" viewBox="0 0 80 20" fill="none" xmlns="http://www.w3.org/2000/svg">
<g clip-path="url(#clip0_1309_290)">
<path d="M30.0523 11.4402C30.0523 11.6695 30.0393 11.9497 30.0002 12.2936H23.1486C23.2919 12.9433 23.5915 13.4527 24.0735 13.8221C24.5424 14.1915 25.1285 14.3826 25.8189 14.3826C26.7958 14.3826 27.5774 14.0259 28.1635 13.3127L29.6615 14.5737C28.7498 15.7328 27.4341 16.306 25.7016 16.306C24.321 16.306 23.1747 15.873 22.2628 14.994C21.3511 14.1151 20.9082 12.9814 20.9082 11.5548C20.9082 10.1282 21.3381 9.03272 22.2108 8.14109C23.0705 7.26218 24.1777 6.8291 25.4933 6.8291C26.8088 6.8291 27.9682 7.26218 28.8018 8.11561C29.6354 8.969 30.0523 10.0773 30.0523 11.4402ZM27.0954 9.22379C26.7047 8.89265 26.2097 8.72703 25.6105 8.72703C25.0113 8.72703 24.4903 8.89265 24.0605 9.21106C23.6306 9.5422 23.344 10.0008 23.1877 10.5867H27.8901C27.7337 10.0135 27.4732 9.55502 27.0954 9.22379Z" fill="#131A2A"/>
<path d="M38.506 2.29443H40.6423V16.1404H38.5842V14.9176H38.5451C37.8287 15.8347 36.8127 16.2932 35.4971 16.2932C34.1814 16.2932 33.0873 15.8602 32.2276 14.994C31.3679 14.1278 30.938 12.9942 30.938 11.5803C30.938 10.1663 31.3679 9.05821 32.2406 8.16653C33.1133 7.27489 34.1814 6.81633 35.484 6.81633C36.7866 6.81633 37.7375 7.22394 38.467 8.06463H38.506V2.29443ZM33.8949 13.6055C34.4029 14.1151 35.0411 14.3825 35.8357 14.3825C36.6303 14.3825 37.2685 14.1278 37.8026 13.6055C38.3237 13.0961 38.5972 12.421 38.5972 11.6057C38.5972 10.7905 38.3367 10.0899 37.8287 9.54224C37.3207 8.99449 36.6563 8.72698 35.8618 8.72698C35.0672 8.72698 34.4419 8.99449 33.9209 9.5167C33.3999 10.039 33.1394 10.7395 33.1394 11.6057C33.1394 12.421 33.3869 13.0961 33.8949 13.6055Z" fill="#131A2A"/>
<path d="M49.5135 6.95652H51.6628V15.1978C51.6628 16.6754 51.272 17.8473 50.5034 18.7134C49.7349 19.5796 48.5235 19.9999 46.8692 19.9999C45.4103 19.9999 44.1338 19.6815 43.0396 19.0446L43.5606 17.1976C44.1598 17.516 44.6939 17.7454 45.1498 17.8854C45.6057 18.0256 46.1397 18.1021 46.7519 18.1021C47.6377 18.1021 48.3281 17.8854 48.8101 17.4524C49.292 17.0193 49.5395 16.4844 49.5395 15.8474V14.8666H49.5265C48.784 15.6182 47.8201 16.0003 46.6608 16.0003C45.3452 16.0003 44.2511 15.5799 43.3783 14.7392C42.5186 13.8986 42.0757 12.8031 42.0757 11.4656C42.0757 10.1282 42.4925 9.00726 43.3392 8.12839C44.1859 7.24949 45.241 6.81641 46.5436 6.81641C47.7289 6.81641 48.6929 7.19854 49.4744 7.95006H49.5135V6.95652ZM46.9604 14.0514C47.7419 14.0514 48.3802 13.7967 48.8752 13.2871C49.3702 12.7776 49.6177 12.1407 49.6177 11.351C49.6177 10.5613 49.3571 9.96259 48.8621 9.46583C48.3541 8.9818 47.7159 8.72711 46.9604 8.72711C46.1658 8.72711 45.5145 8.96908 45.0195 9.46583C44.5245 9.96259 44.277 10.5995 44.277 11.3765C44.277 12.1535 44.5245 12.8285 45.0325 13.3127C45.5536 13.8094 46.1919 14.0514 46.9604 14.0514Z" fill="#131A2A"/>
<path d="M61.9137 11.4402C61.9137 11.6694 61.9006 11.9496 61.8615 12.2936H54.9187C55.062 12.956 55.3747 13.4782 55.8566 13.8476C56.3386 14.217 56.9247 14.408 57.6281 14.408C58.6181 14.408 59.4127 14.0514 60.0118 13.3254L61.5359 14.5991C60.611 15.771 59.2694 16.357 57.5109 16.357C56.1041 16.357 54.9448 15.9111 54.033 15.0322C53.1212 14.1533 52.6523 12.9814 52.6523 11.5548C52.6523 10.1281 53.0951 8.99453 53.9679 8.10285C54.8406 7.21121 55.9608 6.76538 57.2894 6.76538C58.6832 6.76538 59.8035 7.19846 60.6501 8.07737C61.4838 8.94354 61.9137 10.0645 61.9137 11.4402ZM58.9047 9.19833C58.5139 8.8671 58.0189 8.68876 57.4067 8.68876C56.7945 8.68876 56.2734 8.85437 55.8306 9.1856C55.4007 9.51674 55.1011 9.97532 54.9448 10.574H59.6993C59.556 10.0008 59.2954 9.52947 58.9047 9.19833Z" fill="#DAA520"/>
<path d="M68.5569 6.76538H68.8305V9.14733C68.4918 9.12188 68.2703 9.10916 68.1661 9.10916C67.3586 9.10916 66.7203 9.36385 66.2644 9.8607C65.8085 10.3575 65.574 11.0071 65.574 11.7968V16.2041H63.3857V6.89276H65.574V8.30665H65.587C66.3556 7.27489 67.3456 6.76538 68.5569 6.76538Z" fill="#DAA520"/>
<path d="M75.3566 6.76538C76.6852 6.76538 77.7793 7.22394 78.6521 8.12832C79.5248 9.03271 79.9546 10.1919 79.9546 11.593C79.9546 12.9941 79.5248 14.1661 78.6521 15.045C77.7793 15.9239 76.6721 16.357 75.3305 16.357C73.9888 16.357 73.0509 15.9239 72.3215 15.0577H72.3084V19.9744H70.1201V6.89276H72.3084V8.03916C73.0379 7.18573 74.0539 6.76538 75.3566 6.76538ZM73.0119 13.6311C73.5459 14.1533 74.2103 14.408 75.0049 14.408C75.7994 14.408 76.4507 14.1533 76.9718 13.6311C77.4797 13.1088 77.7402 12.4337 77.7402 11.6058C77.7402 10.7269 77.4798 10.0262 76.9457 9.49129C76.4246 8.95627 75.7603 8.68876 74.9788 8.68876C74.1972 8.68876 73.5069 8.96899 72.9858 9.51674C72.4648 10.0645 72.2043 10.7651 72.2043 11.6058C72.2173 12.4337 72.4778 13.1088 73.0119 13.6311Z" fill="#DAA520"/>
<path d="M18.1978 5.6155V14.1837C18.1978 14.6592 17.9341 15.0989 17.5047 15.336L11.0642 18.9127L9.78935 19.6214C9.36264 19.8585 8.83386 19.8585 8.4045 19.6214L7.15086 18.9242L0.693085 15.336C0.263716 15.0989 0 14.6592 0 14.1837V5.6155C0 5.14006 0.263716 4.69903 0.693085 4.46067L8.4045 0.177815C8.83386 -0.0592717 9.36264 -0.0592717 9.78935 0.177815L17.5047 4.46067C17.9341 4.69775 18.1978 5.14006 18.1978 5.6155Z" fill="#DAA520"/>
<path d="M8.71682 8.81206C7.9707 8.81206 7.36377 8.22828 7.36377 7.51066C7.36377 6.793 7.9707 6.20923 8.71682 6.20923C9.4629 6.20923 10.0698 6.793 10.0698 7.51066C10.0698 8.22828 9.4629 8.81206 8.71682 8.81206ZM8.71682 6.93066C8.38419 6.93066 8.11382 7.19069 8.11382 7.51066C8.11382 7.83059 8.38419 8.09062 8.71682 8.09062C9.04944 8.09062 9.31978 7.83059 9.31978 7.51066C9.31978 7.19069 9.04944 6.93066 8.71682 6.93066Z" fill="white"/>
<path d="M8.06475 7.14844H1.58447V7.86987H8.06475V7.14844Z" fill="white"/>
<path d="M8.55325 13.5889C7.80717 13.5889 7.2002 13.0052 7.2002 12.2875C7.2002 11.5699 7.80717 10.9861 8.55325 10.9861C9.29934 10.9861 9.9063 11.5699 9.9063 12.2875C9.9063 13.0052 9.29934 13.5889 8.55325 13.5889ZM8.55325 11.7076C8.22063 11.7076 7.95029 11.9676 7.95029 12.2875C7.95029 12.6075 8.22063 12.8675 8.55325 12.8675C8.88588 12.8675 9.15622 12.6075 9.15622 12.2875C9.15622 11.9676 8.88588 11.7076 8.55325 11.7076Z" fill="white"/>
<path d="M7.57574 11.927H1.58447V12.6484H7.57574V11.927Z" fill="white"/>
<path d="M11.1617 11.2005C10.4156 11.2005 9.80859 10.6167 9.80859 9.89906C9.80859 9.18143 10.4156 8.59766 11.1617 8.59766C11.9078 8.59766 12.5147 9.18143 12.5147 9.89906C12.5147 10.6167 11.9078 11.2005 11.1617 11.2005ZM11.1617 9.31909C10.8291 9.31909 10.5587 9.57912 10.5587 9.89906C10.5587 10.219 10.8291 10.4791 11.1617 10.4791C11.4943 10.4791 11.7647 10.219 11.7647 9.89906C11.7647 9.57912 11.4943 9.31909 11.1617 9.31909Z" fill="white"/>
<path d="M10.5084 9.53809H1.58447V10.2595H10.5084V9.53809Z" fill="white"/>
<path d="M15.3116 10.8579L15.8775 11.1842C15.8338 11.397 15.7794 11.6048 15.7105 11.8177C15.6469 12.0254 15.5674 12.2345 15.4839 12.432L14.82 12.404C14.0726 12.3658 13.5716 13.1369 13.9347 13.7704L14.2594 14.3287C13.9599 14.655 13.6299 14.9533 13.2668 15.2223L12.7116 14.8768C12.0768 14.4842 11.2459 14.91 11.2313 15.634L11.222 16.2726C10.7887 16.4141 10.3474 16.5135 9.89952 16.5709L9.5947 16.0036C9.25546 15.3599 8.30661 15.3319 7.9236 15.9514L7.58436 16.4956C7.36305 16.4536 7.14174 16.4013 6.92043 16.335C6.70441 16.2739 6.48707 16.1974 6.28166 16.1171L6.31615 15.4836C6.35059 14.7596 5.54883 14.2777 4.89019 14.6321L4.30974 14.9393C3.97051 14.6512 3.6604 14.3338 3.38477 13.9846L3.66436 13.5678H6.36914C7.11126 14.0496 8.00711 14.3338 8.97054 14.3338C11.6593 14.3338 13.8234 12.1351 13.6167 9.50543C13.4444 7.28243 11.556 5.49921 9.24088 5.37174C8.17939 5.31437 7.18548 5.59863 6.37443 6.12888H4.08315C4.06328 6.0626 4.03941 5.99122 3.99967 5.92494L3.67498 5.36664C3.97447 5.04033 4.30445 4.74203 4.66756 4.47691L5.22282 4.82235C5.85759 5.21495 6.68851 4.78412 6.70309 4.0614L6.71238 3.42278C7.14571 3.28131 7.58701 3.18188 8.03491 3.12451L8.33974 3.69172C8.67897 4.33925 9.62782 4.36857 10.0108 3.74909L10.3553 3.20099C10.5713 3.24304 10.7927 3.30041 11.014 3.36159C11.23 3.42278 11.4473 3.49925 11.6527 3.57957L11.6183 4.21816C11.5838 4.94216 12.3856 5.41889 13.0442 5.06963L13.6246 4.75735C13.9639 5.04543 14.274 5.3628 14.5496 5.71206L14.1905 6.24616C13.7876 6.8567 14.2303 7.65974 14.9817 7.66993L15.6456 7.67884C15.7927 8.09566 15.8961 8.52011 15.9557 8.95098L15.366 9.24412C14.6967 9.57556 14.6623 10.4831 15.3116 10.8566V10.8579Z" fill="white"/>
</g>
<defs>
<clipPath id="clip0_1309_290">
<rect width="80" height="20" fill="white"/>
</clipPath>
</defs>
</svg>
