<svg width="80" height="20" viewBox="0 0 80 20" fill="none" xmlns="http://www.w3.org/2000/svg">
<path d="M30.0525 11.4402C30.0525 11.6695 30.0395 11.9497 30.0004 12.2936H23.1488C23.2921 12.9433 23.5917 13.4527 24.0737 13.8221C24.5426 14.1915 25.1287 14.3826 25.8191 14.3826C26.796 14.3826 27.5776 14.0259 28.1637 13.3127L29.6617 14.5737C28.75 15.7328 27.4343 16.306 25.7018 16.306C24.3212 16.306 23.1749 15.873 22.263 14.994C21.3513 14.1151 20.9084 12.9814 20.9084 11.5548C20.9084 10.1282 21.3383 9.03275 22.211 8.14112C23.0707 7.26221 24.1779 6.82913 25.4935 6.82913C26.809 6.82913 27.9684 7.26221 28.802 8.11564C29.6356 8.96903 30.0525 10.0773 30.0525 11.4402ZM27.0956 9.22382C26.7049 8.89268 26.2099 8.72706 25.6107 8.72706C25.0115 8.72706 24.4905 8.89268 24.0607 9.21109C23.6308 9.54223 23.3442 10.0008 23.1879 10.5867H27.8903C27.7339 10.0135 27.4734 9.55505 27.0956 9.22382Z" fill="white"/>
<path d="M38.506 2.29453H40.6423V16.1405H38.5842V14.9177H38.5451C37.8287 15.8348 36.8127 16.2933 35.4971 16.2933C34.1814 16.2933 33.0873 15.8603 32.2276 14.9941C31.3679 14.1279 30.938 12.9943 30.938 11.5804C30.938 10.1664 31.3679 9.05831 32.2406 8.16663C33.1133 7.27499 34.1814 6.81643 35.484 6.81643C36.7866 6.81643 37.7375 7.22404 38.467 8.06473H38.506V2.29453ZM33.8949 13.6056C34.4029 14.1152 35.0411 14.3826 35.8357 14.3826C36.6303 14.3826 37.2685 14.1279 37.8026 13.6056C38.3237 13.0962 38.5972 12.4211 38.5972 11.6058C38.5972 10.7906 38.3367 10.09 37.8287 9.54234C37.3207 8.99459 36.6563 8.72708 35.8618 8.72708C35.0672 8.72708 34.4419 8.99459 33.9209 9.5168C33.3999 10.0391 33.1394 10.7396 33.1394 11.6058C33.1394 12.4211 33.3869 13.0962 33.8949 13.6056Z" fill="white"/>
<path d="M49.5133 6.95658H51.6626V15.1979C51.6626 16.6755 51.2718 17.8474 50.5032 18.7135C49.7347 19.5797 48.5233 20 46.869 20C45.4101 20 44.1336 19.6816 43.0394 19.0447L43.5604 17.1977C44.1596 17.5161 44.6937 17.7455 45.1496 17.8855C45.6055 18.0257 46.1395 18.1022 46.7517 18.1022C47.6375 18.1022 48.3279 17.8855 48.8099 17.4525C49.2918 17.0194 49.5393 16.4845 49.5393 15.8475V14.8667H49.5263C48.7838 15.6183 47.8199 16.0004 46.6606 16.0004C45.345 16.0004 44.2509 15.58 43.3781 14.7393C42.5184 13.8987 42.0755 12.8032 42.0755 11.4657C42.0755 10.1283 42.4923 9.00732 43.339 8.12845C44.1857 7.24955 45.2408 6.81647 46.5434 6.81647C47.7287 6.81647 48.6927 7.1986 49.4742 7.95012H49.5133V6.95658ZM46.9602 14.0515C47.7417 14.0515 48.38 13.7968 48.875 13.2872C49.37 12.7777 49.6175 12.1408 49.6175 11.3511C49.6175 10.5614 49.3569 9.96265 48.8619 9.46589C48.3539 8.98186 47.7157 8.72717 46.9602 8.72717C46.1656 8.72717 45.5143 8.96914 45.0193 9.46589C44.5243 9.96265 44.2768 10.5996 44.2768 11.3766C44.2768 12.1536 44.5243 12.8286 45.0323 13.3128C45.5534 13.8095 46.1917 14.0515 46.9602 14.0515Z" fill="white"/>
<path d="M61.9137 11.4403C61.9137 11.6695 61.9006 11.9497 61.8615 12.2937H54.9187C55.062 12.9561 55.3747 13.4783 55.8566 13.8477C56.3386 14.2171 56.9247 14.4081 57.6281 14.4081C58.6181 14.4081 59.4127 14.0515 60.0118 13.3255L61.5359 14.5992C60.611 15.7711 59.2694 16.3571 57.5109 16.3571C56.1041 16.3571 54.9448 15.9112 54.033 15.0323C53.1212 14.1534 52.6523 12.9815 52.6523 11.5549C52.6523 10.1282 53.0951 8.99465 53.9679 8.10297C54.8406 7.21133 55.9608 6.7655 57.2894 6.7655C58.6832 6.7655 59.8035 7.19858 60.6501 8.07749C61.4838 8.94366 61.9137 10.0646 61.9137 11.4403ZM58.9047 9.19845C58.5139 8.86722 58.0189 8.68888 57.4067 8.68888C56.7945 8.68888 56.2734 8.85449 55.8306 9.18572C55.4007 9.51686 55.1011 9.97544 54.9448 10.5741H59.6993C59.556 10.0009 59.2954 9.52959 58.9047 9.19845Z" fill="#DAA520"/>
<path d="M68.5568 6.7655H68.8304V9.14745C68.4917 9.122 68.2702 9.10928 68.166 9.10928C67.3585 9.10928 66.7202 9.36397 66.2643 9.86082C65.8084 10.3576 65.5739 11.0072 65.5739 11.7969V16.2042H63.3856V6.89288H65.5739V8.30677H65.5869C66.3555 7.27501 67.3455 6.7655 68.5568 6.7655Z" fill="#DAA520"/>
<path d="M75.3564 6.7655C76.685 6.7655 77.7791 7.22406 78.6519 8.12844C79.5246 9.03283 79.9544 10.192 79.9544 11.5931C79.9544 12.9942 79.5246 14.1662 78.6519 15.0451C77.7791 15.924 76.6719 16.3571 75.3303 16.3571C73.9886 16.3571 73.0507 15.924 72.3213 15.0578H72.3082V19.9745H70.1199V6.89288H72.3082V8.03928C73.0377 7.18585 74.0537 6.7655 75.3564 6.7655ZM73.0117 13.6312C73.5457 14.1534 74.2101 14.4081 75.0047 14.4081C75.7992 14.4081 76.4505 14.1534 76.9716 13.6312C77.4795 13.1089 77.74 12.4338 77.74 11.6059C77.74 10.727 77.4796 10.0263 76.9455 9.49141C76.4244 8.95639 75.7601 8.68888 74.9786 8.68888C74.197 8.68888 73.5067 8.96911 72.9856 9.51686C72.4646 10.0646 72.2041 10.7652 72.2041 11.6059C72.2171 12.4338 72.4776 13.1089 73.0117 13.6312Z" fill="#DAA520"/>
<path d="M18.1978 5.6155V14.1837C18.1978 14.6592 17.9341 15.0989 17.5047 15.336L11.0642 18.9127L9.78935 19.6214C9.36264 19.8585 8.83386 19.8585 8.4045 19.6214L7.15086 18.9242L0.693085 15.336C0.263716 15.0989 0 14.6592 0 14.1837V5.6155C0 5.14006 0.263716 4.69903 0.693085 4.46067L8.4045 0.177815C8.83386 -0.0592717 9.36264 -0.0592717 9.78935 0.177815L17.5047 4.46067C17.9341 4.69775 18.1978 5.14006 18.1978 5.6155Z" fill="#DAA520"/>
<path d="M8.71702 8.81194C7.9709 8.81194 7.36397 8.22816 7.36397 7.51054C7.36397 6.79288 7.9709 6.20911 8.71702 6.20911C9.4631 6.20911 10.07 6.79288 10.07 7.51054C10.07 8.22816 9.4631 8.81194 8.71702 8.81194ZM8.71702 6.93054C8.38439 6.93054 8.11402 7.19057 8.11402 7.51054C8.11402 7.83047 8.38439 8.0905 8.71702 8.0905C9.04964 8.0905 9.31998 7.83047 9.31998 7.51054C9.31998 7.19057 9.04964 6.93054 8.71702 6.93054Z" fill="white"/>
<path d="M8.06474 7.14841H1.58446V7.86984H8.06474V7.14841Z" fill="white"/>
<path d="M8.55309 13.5889C7.80701 13.5889 7.20004 13.0052 7.20004 12.2875C7.20004 11.5699 7.80701 10.9861 8.55309 10.9861C9.29918 10.9861 9.90614 11.5699 9.90614 12.2875C9.90614 13.0052 9.29918 13.5889 8.55309 13.5889ZM8.55309 11.7076C8.22047 11.7076 7.95013 11.9676 7.95013 12.2875C7.95013 12.6075 8.22047 12.8675 8.55309 12.8675C8.88572 12.8675 9.15606 12.6075 9.15606 12.2875C9.15606 11.9676 8.88572 11.7076 8.55309 11.7076Z" fill="white"/>
<path d="M7.57573 11.9269H1.58446V12.6483H7.57573V11.9269Z" fill="white"/>
<path d="M11.1615 11.2005C10.4154 11.2005 9.80844 10.6167 9.80844 9.89906C9.80844 9.18143 10.4154 8.59766 11.1615 8.59766C11.9076 8.59766 12.5145 9.18143 12.5145 9.89906C12.5145 10.6167 11.9076 11.2005 11.1615 11.2005ZM11.1615 9.31909C10.8289 9.31909 10.5585 9.57912 10.5585 9.89906C10.5585 10.219 10.8289 10.4791 11.1615 10.4791C11.4941 10.4791 11.7645 10.219 11.7645 9.89906C11.7645 9.57912 11.4941 9.31909 11.1615 9.31909Z" fill="white"/>
<path d="M10.5084 9.53809H1.58446V10.2595H10.5084V9.53809Z" fill="white"/>
<path d="M15.3117 10.8579L15.8776 11.1842C15.8339 11.397 15.7795 11.6048 15.7106 11.8177C15.647 12.0254 15.5675 12.2345 15.484 12.432L14.8201 12.404C14.0727 12.3658 13.5717 13.1369 13.9348 13.7704L14.2595 14.3287C13.96 14.655 13.63 14.9533 13.2669 15.2223L12.7117 14.8768C12.0769 14.4842 11.246 14.91 11.2314 15.634L11.2221 16.2726C10.7888 16.4141 10.3475 16.5135 9.89958 16.5709L9.59476 16.0036C9.25552 15.3599 8.30667 15.3319 7.92366 15.9514L7.58442 16.4956C7.36311 16.4536 7.1418 16.4013 6.92049 16.335C6.70447 16.2739 6.48713 16.1974 6.28172 16.1171L6.31621 15.4836C6.35065 14.7596 5.54889 14.2777 4.89025 14.6321L4.3098 14.9393C3.97057 14.6512 3.66046 14.3338 3.38483 13.9846L3.66442 13.5678H6.3692C7.11132 14.0496 8.00717 14.3338 8.9706 14.3338C11.6594 14.3338 13.8235 12.1351 13.6168 9.50543C13.4445 7.28243 11.5561 5.49921 9.24094 5.37174C8.17945 5.31437 7.18554 5.59863 6.37449 6.12888H4.08321C4.06334 6.0626 4.03947 5.99122 3.99973 5.92494L3.67504 5.36664C3.97453 5.04033 4.30451 4.74203 4.66762 4.47691L5.22288 4.82235C5.85765 5.21495 6.68857 4.78412 6.70315 4.0614L6.71244 3.42278C7.14577 3.28131 7.58707 3.18188 8.03497 3.12451L8.3398 3.69172C8.67903 4.33925 9.62788 4.36857 10.0109 3.74909L10.3554 3.20099C10.5714 3.24304 10.7928 3.30041 11.0141 3.36159C11.2301 3.42278 11.4474 3.49925 11.6528 3.57957L11.6184 4.21816C11.5839 4.94216 12.3857 5.41889 13.0443 5.06963L13.6247 4.75735C13.964 5.04543 14.2741 5.3628 14.5497 5.71206L14.1906 6.24616C13.7877 6.8567 14.2304 7.65974 14.9818 7.66993L15.6457 7.67884C15.7928 8.09566 15.8962 8.52011 15.9558 8.95098L15.3661 9.24412C14.6968 9.57556 14.6624 10.4831 15.3117 10.8566V10.8579Z" fill="white"/>
</svg>
