<svg width="121" height="100" viewBox="0 0 121 100" fill="none" xmlns="http://www.w3.org/2000/svg">
<g clip-path="url(#clip0_3315_1886)">
<path fill-rule="evenodd" clip-rule="evenodd" d="M60.4009 0C66.8463 0 73.147 1.91128 78.5061 5.49214C83.8652 9.073 88.0422 14.1626 90.5087 20.1174C92.9752 26.0721 93.6206 32.6246 92.3632 38.9461C91.1058 45.2676 88.002 51.0744 83.4444 55.6319C78.8869 60.1895 73.0802 63.2932 66.7586 64.5507C60.4371 65.8081 53.8846 65.1628 47.9299 62.6962C41.9751 60.2297 36.8855 56.0527 33.3046 50.6936C29.7238 45.3344 27.8125 39.0338 27.8125 32.5885C27.8125 23.9455 31.2459 15.6564 37.3574 9.54492C43.469 3.4334 51.7579 0 60.4009 0ZM60.4009 1.24798C66.5995 1.24798 72.6588 3.08606 77.8127 6.52979C82.9667 9.97352 86.9836 14.8683 89.3557 20.595C91.7278 26.3217 92.3484 32.6232 91.1392 38.7026C89.9299 44.7821 86.945 50.3664 82.562 54.7494C78.1789 59.1325 72.5946 62.1174 66.5152 63.3266C60.4357 64.5359 54.1342 63.9153 48.4075 61.5432C42.6808 59.1711 37.786 55.1541 34.3423 50.0002C30.8986 44.8463 29.0605 38.787 29.0605 32.5885C29.0605 24.2765 32.3624 16.3049 38.2399 10.4274C44.1174 4.54995 52.0889 1.24798 60.4009 1.24798ZM53.3302 17.8191L52.4371 23.5053L48.3616 17.7957L53.3458 17.8191H53.3302ZM67.5028 17.8191L68.3998 23.5053L72.487 17.7996L67.5028 17.8191ZM55.1359 16.8714L53.6032 26.1807C53.5808 26.2868 53.5278 26.3839 53.4507 26.4601C53.3736 26.5363 53.2759 26.5882 53.1696 26.6093C53.0633 26.6305 52.9532 26.62 52.8528 26.5792C52.7524 26.5384 52.6662 26.469 52.6048 26.3796L45.8617 17.0937C45.7981 17.0116 45.7588 16.9133 45.7484 16.81C45.738 16.7067 45.7568 16.6025 45.8028 16.5094C45.8487 16.4162 45.9199 16.3379 46.0083 16.2833C46.0966 16.2287 46.1986 16.2001 46.3024 16.2006H54.5314C54.6188 16.1906 54.7074 16.2015 54.7897 16.2325C54.872 16.2635 54.9458 16.3137 55.0049 16.3789C55.064 16.4441 55.1067 16.5224 55.1295 16.6073C55.1523 16.6923 55.1545 16.7815 55.1359 16.8675V16.8714ZM65.701 16.8714L67.2337 26.1807C67.2562 26.2868 67.3092 26.3839 67.3863 26.4601C67.4633 26.5363 67.5611 26.5882 67.6674 26.6093C67.7737 26.6305 67.8838 26.62 67.9842 26.5792C68.0846 26.5384 68.1708 26.469 68.2321 26.3796L74.9713 17.0937C75.035 17.0116 75.0743 16.9133 75.0847 16.81C75.0951 16.7067 75.0762 16.6025 75.0303 16.5094C74.9843 16.4162 74.9131 16.3379 74.8248 16.2833C74.7364 16.2287 74.6345 16.2001 74.5306 16.2006H66.3016C66.2143 16.1904 66.1259 16.2012 66.0436 16.2322C65.9614 16.2632 65.8877 16.3135 65.8289 16.3788C65.7701 16.4441 65.7278 16.5225 65.7055 16.6076C65.6833 16.6926 65.6817 16.7818 65.701 16.8675V16.8714ZM42.1216 35.5758H36.3652C36.2769 35.5768 36.1926 35.6126 36.1306 35.6754C36.0685 35.7382 36.0337 35.8229 36.0337 35.9112V36.3012C36.0337 36.3891 36.0686 36.4735 36.1308 36.5356C36.193 36.5978 36.2773 36.6328 36.3652 36.6328H42.1216C42.2099 36.6328 42.2946 36.5979 42.3574 36.5359C42.4202 36.4738 42.456 36.3895 42.457 36.3012V35.9112C42.456 35.8226 42.4203 35.7379 42.3577 35.6752C42.295 35.6125 42.2103 35.5768 42.1216 35.5758ZM42.1216 30.9543H36.3652C36.2769 30.9554 36.1926 30.9911 36.1306 31.0539C36.0685 31.1167 36.0337 31.2014 36.0337 31.2897V31.6797C36.0347 31.7673 36.07 31.851 36.1319 31.913C36.1939 31.9749 36.2776 32.0102 36.3652 32.0112H42.1216C42.2099 32.0112 42.2946 31.9764 42.3574 31.9144C42.4202 31.8523 42.456 31.768 42.457 31.6797V31.2897C42.457 31.2008 42.4217 31.1155 42.3588 31.0526C42.2959 30.9897 42.2106 30.9543 42.1216 30.9543ZM42.1216 25.8063H36.3652C36.2769 25.8074 36.1926 25.8431 36.1306 25.9059C36.0685 25.9687 36.0337 26.0535 36.0337 26.1417V26.5317C36.0337 26.62 36.0685 26.7047 36.1306 26.7675C36.1926 26.8303 36.2769 26.8661 36.3652 26.8671H42.1216C42.2103 26.8661 42.295 26.8305 42.3577 26.7678C42.4203 26.7051 42.456 26.6204 42.457 26.5317V26.1417C42.456 26.0531 42.4203 25.9684 42.3577 25.9057C42.295 25.843 42.2103 25.8074 42.1216 25.8063ZM43.1122 32.643C42.4375 32.643 42.2971 33.3099 42.5038 33.3723C42.6364 33.4113 43.1629 32.9044 43.5997 33.0253C44.8384 33.4091 46.0545 33.8622 47.2423 34.3824C47.6323 34.5618 47.9248 34.0158 47.9248 34.0158L48.5215 33.1383C48.6385 32.9667 48.658 32.7912 48.3577 32.6079C47.9677 32.3856 43.9819 29.9286 43.2331 29.757C42.7768 29.6517 42.4921 29.718 42.4531 29.913C42.4141 30.108 42.6754 30.1704 42.9991 30.1392C43.0749 30.1392 43.1499 30.1544 43.2196 30.1841C43.2893 30.2138 43.3523 30.2573 43.4047 30.3119C43.4572 30.3666 43.4981 30.4312 43.5249 30.5021C43.5517 30.573 43.5639 30.6485 43.5607 30.7242C43.5607 31.2 43.5607 31.668 43.5607 32.1438C43.5531 32.2611 43.5081 32.3729 43.4323 32.4627C43.3565 32.5526 43.2539 32.6157 43.1395 32.643H43.1122ZM34.9144 16.77L34.8832 16.7466C35.4162 15.8912 35.9895 15.0657 36.6031 14.2701L57.5734 14.2935L53.6344 40.3455H67.5574L63.7471 14.3013H84.2417C84.8507 15.0898 85.4195 15.9085 85.946 16.7544L82.1396 20.0382C81.7886 20.3658 81.5663 20.0655 81.4259 19.9563C81.2855 19.8471 78.6139 17.2614 78.3682 16.9533C78.3139 16.872 78.2397 16.806 78.1527 16.7614C78.0656 16.7169 77.9687 16.6954 77.871 16.6989C77.7733 16.7025 77.6781 16.7309 77.5945 16.7815C77.5109 16.8322 77.4416 16.9035 77.3932 16.9884L67.9045 29.8585C67.7953 30.0379 67.7875 30.2484 68.0293 30.5526C68.7079 31.6173 82.9313 52.3692 82.982 52.4472C82.4386 53.0634 81.8744 53.655 81.2894 54.2218C81.2309 54.1789 70.3694 45.1737 68.6261 43.9725C67.3274 43.0443 66.9256 42.2916 64.4569 42.3891C62.7487 42.4866 58.0882 42.4282 56.1382 42.5725C53.8255 42.6076 53.4316 43.2978 52.9636 43.5201C52.7959 43.7112 40.2808 53.8279 39.5554 54.2218L37.8901 52.4785C37.8901 52.4785 52.1641 31.6485 52.8427 30.5838C53.0884 30.2679 53.0806 30.069 52.9714 29.8896L43.4827 17.0196C43.4344 16.9346 43.3651 16.8634 43.2815 16.8128C43.1979 16.7621 43.1027 16.7336 43.005 16.7301C42.9073 16.7266 42.8103 16.7482 42.7233 16.7927C42.6362 16.8372 42.562 16.9032 42.5077 16.9845C42.262 17.2926 39.5905 19.8822 39.4501 19.9875C39.3097 20.0928 39.0835 20.3775 38.7364 20.0694L34.93 16.7856L34.9144 16.77ZM86.726 18.1506L82.1084 22.3548C82.0478 22.4193 81.9747 22.4706 81.8936 22.5058C81.8124 22.5409 81.7249 22.559 81.6364 22.559C81.548 22.559 81.4605 22.5409 81.3794 22.5058C81.2982 22.4706 81.2251 22.4193 81.1646 22.3548C81.1646 22.3548 78.9767 20.1474 78.497 19.6755C78.4443 19.6177 78.3802 19.5715 78.3087 19.5399C78.2372 19.5082 78.1598 19.4919 78.0816 19.4919C78.0034 19.4919 77.9261 19.5082 77.8545 19.5399C77.783 19.5715 77.7189 19.6177 77.6663 19.6755L70.2563 29.5347C70.2563 29.5347 70.0261 29.7492 70.3381 30.1899C70.6501 30.6306 70.9699 31.1493 71.0674 31.2819C71.1666 31.3655 71.2903 31.4146 71.4197 31.4216C71.5492 31.4286 71.6775 31.3933 71.7851 31.321C72.0035 31.1962 75.0767 29.1915 76.9838 28.3881C77.3129 28.287 77.6647 28.287 77.9938 28.3881C78.1966 28.4388 78.3371 28.0761 78.1226 27.9201C77.834 27.7056 77.2996 27.339 77.2957 26.8242C77.2957 26.0442 77.2957 25.8804 77.2957 25.3734C77.3019 25.2432 77.3551 25.1196 77.4455 25.0256C77.5358 24.9317 77.6572 24.8737 77.7871 24.8625H85.5521C85.6814 24.8743 85.8024 24.9318 85.8932 25.0247C85.9839 25.1176 86.0386 25.2399 86.0474 25.3695V26.8242C86.0462 26.9387 86.0101 27.0501 85.9439 27.1435C85.8777 27.2369 85.7845 27.3079 85.6769 27.3468C85.2206 27.5028 84.811 27.1752 84.7564 28.1268C84.7299 28.6853 84.7508 29.245 84.8189 29.7999C84.8657 29.9052 84.8735 30.0963 85.5599 30.1665C85.6812 30.1781 85.795 30.2308 85.8822 30.316C85.9695 30.4011 86.025 30.5135 86.0396 30.6345C86.0591 30.7437 86.0396 31.668 86.0396 32.1516C86.0388 32.2796 85.9918 32.403 85.9073 32.499C85.8227 32.5951 85.7062 32.6573 85.5794 32.6742C85.2479 32.6742 84.7058 32.7171 84.6473 33.2124C84.5888 33.7077 84.5614 34.4994 84.8578 34.593C85.0787 34.6686 85.3109 34.7056 85.5442 34.7022C85.6736 34.714 85.7946 34.7715 85.8854 34.8644C85.9761 34.9574 86.0308 35.0796 86.0396 35.2092C86.0396 35.4432 86.0123 35.9892 86.0396 36.6249C86.0494 36.7616 86.0082 36.8971 85.9239 37.0051C85.8396 37.1132 85.7182 37.1862 85.5832 37.2099C85.1932 37.245 85.0645 37.1124 84.8032 37.5999C84.6848 37.892 84.6277 38.2053 84.6356 38.5203C84.6249 38.6415 84.5749 38.7559 84.4933 38.846C84.4116 38.9361 84.3027 38.9971 84.1831 39.0196C83.2744 39.0703 77.3387 39.2223 77.3192 38.9454C77.2997 38.6685 76.664 38.5164 76.5392 38.5164C76.4884 38.5355 76.4423 38.5648 76.4035 38.6027C76.3648 38.6405 76.3343 38.686 76.3142 38.7363C76.294 38.7866 76.2845 38.8405 76.2863 38.8946C76.2881 38.9488 76.3011 39.0019 76.3246 39.0507L84.3314 50.7936C87.8416 46.1709 89.9382 40.6307 90.368 34.8421C90.7978 29.0536 89.5423 23.2645 86.7532 18.174L86.726 18.1506ZM34.0993 18.1506L38.7247 22.3626C38.7856 22.4272 38.859 22.4786 38.9405 22.5138C39.022 22.549 39.1098 22.5671 39.1986 22.5671C39.2873 22.5671 39.3751 22.549 39.4566 22.5138C39.5381 22.4786 39.6115 22.4272 39.6724 22.3626C39.6724 22.3626 41.8564 20.1552 42.34 19.6833C42.3923 19.6249 42.4564 19.5783 42.5279 19.5463C42.5995 19.5143 42.677 19.4978 42.7554 19.4978C42.8337 19.4978 42.9112 19.5143 42.9828 19.5463C43.0544 19.5783 43.1184 19.6249 43.1707 19.6833L50.5807 29.5425C50.5807 29.5425 50.8108 29.757 50.4988 30.1977C50.1868 30.6385 49.867 31.1571 49.7695 31.2897C49.6692 31.3725 49.545 31.4209 49.4152 31.4279C49.2854 31.4349 49.1567 31.4002 49.048 31.3287C48.8296 31.2039 45.7564 29.1994 43.8532 28.396C43.5228 28.2948 43.1697 28.2948 42.8392 28.396C42.6364 28.4467 42.4999 28.0839 42.7105 27.9279C43.003 27.7134 43.5373 27.3468 43.5412 26.832C43.5412 26.052 43.5412 25.8882 43.5412 25.3812C43.5359 25.2507 43.483 25.1267 43.3924 25.0325C43.3019 24.9384 43.18 24.8807 43.0498 24.8703H35.2888C35.1591 24.8813 35.0377 24.9386 34.9468 25.0317C34.8559 25.1248 34.8015 25.2474 34.7935 25.3773V26.832C34.7946 26.9465 34.8307 27.0579 34.8969 27.1513C34.9632 27.2448 35.0563 27.3157 35.164 27.3546C35.6164 27.5106 36.0298 27.183 36.0805 28.1151C36.108 28.6748 36.0884 29.2358 36.022 29.7921C35.9713 29.8974 35.9635 30.0885 35.2771 30.1587C35.156 30.171 35.0426 30.224 34.9555 30.309C34.8684 30.394 34.8127 30.506 34.7974 30.6267C34.7974 30.7359 34.7974 31.6602 34.7974 32.1438C34.798 32.2712 34.8445 32.3941 34.9283 32.4901C35.0121 32.5861 35.1276 32.6486 35.2537 32.6664C35.5891 32.6664 36.1312 32.7093 36.1897 33.2046C36.2482 33.6999 36.2755 34.4878 35.9791 34.5853C35.7582 34.6606 35.5261 34.6975 35.2927 34.6944C35.163 34.7054 35.0417 34.7627 34.9507 34.8558C34.8598 34.9488 34.8054 35.0716 34.7974 35.2014C34.7974 35.4354 34.8247 35.9814 34.7974 36.6171C34.7876 36.7538 34.8288 36.8893 34.9131 36.9973C34.9974 37.1054 35.1188 37.1784 35.2537 37.2021C35.6203 37.2372 35.7724 37.1046 36.0337 37.5921C36.1497 37.8848 36.2054 38.1978 36.1975 38.5125C36.2124 38.6328 36.2656 38.7451 36.3491 38.8328C36.4327 38.9206 36.5422 38.9792 36.6616 39C37.5703 39.0507 43.5061 39.2029 43.5256 38.9221C43.5451 38.6413 44.1808 38.493 44.3056 38.493C44.3572 38.5116 44.4043 38.5408 44.4438 38.5788C44.4833 38.6167 44.5144 38.6626 44.535 38.7134C44.5556 38.7642 44.5653 38.8187 44.5634 38.8735C44.5615 38.9283 44.5481 38.982 44.524 39.0312L36.5134 50.7741C32.5418 45.5345 30.3855 39.1436 30.3709 32.5689C30.3619 27.5114 31.6367 22.5343 34.0759 18.1038L34.1071 18.135L34.0993 18.1506ZM78.6998 30.931H84.4678C84.5565 30.932 84.6412 30.9676 84.7039 31.0303C84.7666 31.093 84.8022 31.1777 84.8032 31.2663V31.6563C84.8022 31.7446 84.7664 31.8289 84.7036 31.891C84.6409 31.953 84.5561 31.9878 84.4678 31.9878H78.6998C78.6118 31.9878 78.5275 31.9529 78.4653 31.8907C78.4032 31.8286 78.3682 31.7443 78.3682 31.6563V31.2663C78.3682 31.1781 78.4031 31.0933 78.4651 31.0305C78.5272 30.9678 78.6115 30.932 78.6998 30.931ZM78.6998 35.5524H84.4678C84.5565 35.5535 84.6412 35.5891 84.7039 35.6518C84.7666 35.7145 84.8022 35.7992 84.8032 35.8878V36.2778C84.8022 36.3661 84.7664 36.4504 84.7036 36.5125C84.6409 36.5746 84.5561 36.6093 84.4678 36.6093H78.6998C78.6118 36.6093 78.5275 36.5744 78.4653 36.5123C78.4032 36.4501 78.3682 36.3658 78.3682 36.2778V35.8878C78.3682 35.7996 78.4031 35.7148 78.4651 35.652C78.5272 35.5893 78.6115 35.5535 78.6998 35.5524ZM78.6998 25.7829H84.4678C84.5565 25.7839 84.6412 25.8196 84.7039 25.8823C84.7666 25.945 84.8022 26.0297 84.8032 26.1183V26.5083C84.8022 26.597 84.7666 26.6817 84.7039 26.7444C84.6412 26.807 84.5565 26.8427 84.4678 26.8437H78.6998C78.6115 26.8427 78.5272 26.8069 78.4651 26.7441C78.4031 26.6813 78.3682 26.5966 78.3682 26.5083V26.1183C78.3682 26.03 78.4031 25.9453 78.4651 25.8825C78.5272 25.8197 78.6115 25.7839 78.6998 25.7829ZM77.7092 32.6196C78.3878 32.6196 78.5281 33.2865 78.3214 33.3489C78.1888 33.3879 77.6624 32.8809 77.2256 33.0018C75.9857 33.3858 74.7683 33.8389 73.5791 34.359C73.1891 34.5384 72.8966 33.9924 72.8966 33.9924L72.2998 33.1149C72.1828 32.9433 72.1673 32.7679 72.4676 32.5846C72.8576 32.3623 76.8433 29.9052 77.5882 29.7375C78.0484 29.6283 78.3292 29.6985 78.3682 29.8896C78.4072 30.0807 78.146 30.147 77.8184 30.1158C77.7428 30.1157 77.6679 30.131 77.5984 30.1607C77.5289 30.1904 77.4662 30.234 77.414 30.2887C77.3619 30.3434 77.3214 30.4082 77.295 30.479C77.2686 30.5499 77.2569 30.6253 77.2606 30.7008C77.2606 31.1766 77.2606 31.6446 77.2606 32.1204C77.2695 32.2373 77.3149 32.3485 77.3905 32.4382C77.4661 32.5278 77.5681 32.5913 77.6819 32.6196H77.7092ZM65.2954 38.3097H55.9666L60.6466 6.61049L65.2876 38.3097H65.2954ZM62.0194 2.58961C66.019 2.80193 69.9354 3.81382 73.5373 5.5655C77.1391 7.31718 80.3532 9.77311 82.9898 12.7881H82.9664L63.4663 12.5229L62.0038 2.58961H62.0194ZM79.9828 55.3801C74.562 60.0407 67.6562 62.6146 60.5073 62.6389C53.3584 62.6632 46.4353 60.1363 40.9828 55.5126L54.6328 44.5926C54.9465 44.3844 55.3174 44.2794 55.6936 44.2923C55.6936 44.2923 63.4546 44.0622 64.6909 44.1558C65.7249 44.219 66.7067 44.6316 67.4755 45.3258L80.0024 55.3722L79.9828 55.3801ZM37.9291 12.6555C40.6153 9.62009 43.8897 7.16153 47.5539 5.42863C51.2182 3.69573 55.196 2.72456 59.2465 2.57399L57.7957 12.6204L37.9291 12.6555Z" fill="#F07D00"/>
<path fill-rule="evenodd" clip-rule="evenodd" d="M14.4727 82.8516V74.2404H20.5294V75.6951H16.1302V77.61H20.2213V79.0647H16.1302V81.4047H20.6893V82.8594L14.4727 82.8516ZM22.1401 82.8516V74.3106H23.7898V81.3969H27.8926V82.8516H22.1401ZM29.0704 82.8516V74.2404H35.1232V75.6951H30.7279V77.61H34.8151V79.0647H30.7279V81.4047H35.2831V82.8594L29.0704 82.8516ZM41.9404 79.677L43.5394 80.1957C43.3699 81.0142 42.942 81.7566 42.3187 82.3134C41.695 82.7847 40.9275 83.0258 40.1464 82.9959C39.6405 83.0114 39.1374 82.9144 38.6735 82.7121C38.2095 82.5098 37.7962 82.2071 37.4632 81.8259C36.7651 81.0459 36.4102 79.9851 36.4102 78.6279C36.4102 77.1966 36.7651 76.0773 37.4632 75.2817C37.8112 74.8941 38.2406 74.5882 38.7206 74.3859C39.2007 74.1836 39.7195 74.09 40.24 74.1117C40.6892 74.0938 41.1373 74.1676 41.557 74.3285C41.9767 74.4894 42.3593 74.7342 42.6814 75.0477C43.0958 75.4932 43.3839 76.0411 43.516 76.635L41.8819 77.025C41.8073 76.6139 41.5939 76.2408 41.2774 75.9681C40.9623 75.7096 40.5656 75.5714 40.1581 75.5781C39.876 75.5708 39.5961 75.6289 39.3403 75.748C39.0845 75.8671 38.8598 76.044 38.6839 76.2645C38.2939 76.7208 38.1145 77.4696 38.1145 78.4914C38.1145 79.5717 38.2978 80.3556 38.6722 80.8314C38.8418 81.0539 39.0617 81.2332 39.3139 81.3545C39.566 81.4758 39.8432 81.5358 40.123 81.5295C40.3317 81.5349 40.5393 81.4983 40.7336 81.4219C40.9278 81.3455 41.1048 81.2309 41.254 81.0849C41.6192 80.7046 41.8588 80.2213 41.9404 79.7004V79.677ZM46.7959 82.8516V75.6951H44.374V74.2404H50.8597V75.6951H48.4495V82.8516H46.7959ZM51.9322 82.8516V74.2404H55.4188C56.0589 74.2069 56.7 74.2834 57.3142 74.4666C57.7177 74.6288 58.0554 74.9212 58.2736 75.2973C58.5158 75.7093 58.6387 76.1806 58.6285 76.6584C58.6469 77.2388 58.4559 77.8063 58.0903 78.2574C57.6646 78.7026 57.0928 78.9795 56.4796 79.0374C56.8091 79.2306 57.1065 79.4741 57.361 79.7589C57.7053 80.2019 58.018 80.6684 58.297 81.1551L59.2876 82.836H57.3142L56.1442 80.9601C55.8799 80.52 55.5868 80.0979 55.2667 79.6965C55.1367 79.5365 54.9674 79.4129 54.7753 79.3377C54.5 79.2616 54.2145 79.2287 53.929 79.2402H53.5975V82.836L51.9322 82.8516ZM53.5897 77.883H54.8104C55.3081 77.9094 55.8072 77.8741 56.2963 77.7777C56.485 77.7118 56.6458 77.584 56.7526 77.415C56.8717 77.2205 56.9313 76.9955 56.9242 76.7676C56.9384 76.5131 56.8624 76.2619 56.7097 76.0578C56.5463 75.8751 56.3242 75.7551 56.0818 75.7185C55.9531 75.7185 55.5436 75.6951 54.8806 75.6951H53.5897V77.883ZM60.1222 82.8516V74.2404H61.7797V82.8516H60.1222ZM68.5852 79.677L70.1842 80.1957C70.0166 81.0149 69.5884 81.7578 68.9635 82.3134C68.3413 82.7847 67.5751 83.0258 66.7951 82.9959C66.2886 83.0117 65.7849 82.9148 65.3202 82.7125C64.8556 82.5102 64.4416 82.2074 64.108 81.8259C63.3698 80.9291 62.9954 79.7877 63.0589 78.6279C63.0589 77.1966 63.4138 76.0773 64.108 75.2817C64.4563 74.8945 64.8858 74.5888 65.3658 74.3866C65.8457 74.1844 66.3644 74.0905 66.8848 74.1117C67.3346 74.0935 67.7834 74.1671 68.2038 74.328C68.6242 74.489 69.0074 74.7339 69.3301 75.0477C69.7431 75.4936 70.0299 76.0415 70.1608 76.635L68.5306 77.025C68.4545 76.6144 68.2414 76.2419 67.9261 75.9681C67.6096 75.7093 67.2117 75.5711 66.8029 75.5781C66.5214 75.5705 66.2419 75.6286 65.9867 75.7477C65.7315 75.8668 65.5076 76.0438 65.3326 76.2645C64.9426 76.7208 64.7593 77.4696 64.7593 78.4914C64.7593 79.5717 64.9426 80.3556 65.3209 80.8314C65.4901 81.0544 65.7099 81.234 65.9622 81.3553C66.2144 81.4767 66.4919 81.5364 66.7717 81.5295C66.9804 81.5349 67.188 81.4983 67.3823 81.4219C67.5766 81.3455 67.7535 81.2309 67.9027 81.0849C68.2667 80.7043 68.5049 80.2209 68.5852 79.7004V79.677ZM71.5453 82.8516V74.2404H73.2028V82.8516H71.5453ZM74.7784 74.2404H77.7931C78.3186 74.2167 78.8447 74.2733 79.3531 74.4081C79.8273 74.5436 80.2516 74.8147 80.5738 75.1881C80.9296 75.5917 81.1955 76.0663 81.3538 76.5804C81.5402 77.2425 81.6282 77.9285 81.6151 78.6162C81.6288 79.2355 81.5432 79.8531 81.3616 80.4453C81.1925 81.0128 80.8964 81.5342 80.4958 81.9702C80.1645 82.2869 79.7639 82.5218 79.3258 82.6566C78.8544 82.791 78.365 82.8516 77.875 82.836H74.755V74.2248L74.7784 74.2404ZM76.432 75.6951V81.3969H77.6683C78.0006 81.4106 78.3333 81.3831 78.6589 81.315C78.9058 81.2491 79.1333 81.1247 79.3219 80.9523C79.5331 80.7168 79.6795 80.4306 79.747 80.1216C79.8747 79.6118 79.9324 79.087 79.9186 78.5616C79.9364 78.0463 79.8786 77.5313 79.747 77.0328C79.6627 76.7195 79.505 76.4307 79.2868 76.1904C79.0677 75.9912 78.7978 75.8562 78.5068 75.8004C78.0627 75.7242 77.6116 75.6954 77.1613 75.7146L76.432 75.6951ZM90.3901 82.8516H88.6078L87.9019 80.9016H84.622L83.9356 82.8516H82.1884L85.363 74.2404H87.1141L90.3901 82.8516ZM87.3637 79.4352L86.2327 76.2489L85.1251 79.4352H87.3637ZM91.2637 74.2404H94.2784C94.8039 74.2167 95.33 74.2733 95.8384 74.4081C96.3122 74.5447 96.7362 74.8156 97.0591 75.1881C97.4165 75.5906 97.6826 76.0655 97.8391 76.5804C98.0292 77.2419 98.1186 77.9281 98.1044 78.6162C98.118 79.2355 98.0324 79.8531 97.8509 80.4453C97.6805 81.0122 97.3846 81.5334 96.9851 81.9702C96.6537 82.2869 96.2531 82.5218 95.8151 82.6566C95.3436 82.791 94.8542 82.8516 94.3642 82.836H91.2442V74.2248L91.2637 74.2404ZM92.9173 75.6951V81.3969H94.1537C94.486 81.4106 94.8187 81.3831 95.1442 81.315C95.3911 81.2491 95.6186 81.1247 95.8073 80.9523C96.0184 80.7168 96.1648 80.4306 96.2323 80.1216C96.3584 79.6115 96.4148 79.0868 96.4001 78.5616C96.4188 78.0465 96.3623 77.5316 96.2323 77.0328C96.148 76.7195 95.9902 76.4307 95.7721 76.1904C95.5529 75.9912 95.283 75.8562 94.9921 75.8004C94.5479 75.7244 94.0969 75.6956 93.6466 75.7146L92.9173 75.6951ZM99.5084 82.8516V74.2404H105.561V75.6951H101.166V77.61H105.253V79.0647H101.166V81.4047H105.721V82.8594L99.5084 82.8516Z" fill="#F07D00"/>
<path fill-rule="evenodd" clip-rule="evenodd" d="M0 88.9206H2.9445C3.45476 88.8986 3.96532 88.9565 4.4577 89.0921C4.92297 89.2304 5.33775 89.5015 5.6511 89.8721C6.00713 90.2799 6.27293 90.7584 6.4311 91.2762C6.61592 91.9412 6.70265 92.6297 6.68852 93.3198C6.70242 93.9424 6.61953 94.5634 6.44281 95.1606C6.27653 95.7285 5.98762 96.253 5.5965 96.6971C5.27537 97.0122 4.88557 97.2485 4.4577 97.3874C3.99836 97.5222 3.52044 97.5828 3.042 97.5669H0V88.9206ZM1.61461 90.387V96.1199H2.8197C3.14577 96.1344 3.47231 96.1056 3.79079 96.0342C4.03263 95.9671 4.25472 95.8427 4.43821 95.6715C4.63655 95.4307 4.77072 95.1435 4.82821 94.8369C4.95539 94.3191 5.0118 93.7864 4.9959 93.2535C5.01484 92.7358 4.95835 92.2182 4.82821 91.7169C4.75252 91.4023 4.59973 91.1114 4.3836 90.8706C4.17567 90.6748 3.91802 90.5399 3.63871 90.4806C3.20322 90.4087 2.76155 90.3812 2.32051 90.3987L1.61461 90.387ZM8.04961 97.5824V88.9206H13.9542V90.387H9.66422V92.3096H13.65V93.7721H9.66422V96.1121H14.1141V97.5746L8.04961 97.5824Z" fill="#F07D00"/>
<path fill-rule="evenodd" clip-rule="evenodd" d="M18.5605 97.5936V88.92H20.9785L22.4176 94.8246L23.8216 88.92H26.2513V97.5819H24.7576V90.7608L23.1742 97.5819H21.6142L20.0542 90.7608V97.5819L18.5605 97.5936ZM27.5306 93.3036C27.509 92.5446 27.6335 91.7887 27.8972 91.0767C28.0764 90.6468 28.3283 90.251 28.642 89.9067C28.9259 89.5781 29.2753 89.3125 29.6677 89.1267C30.2122 88.8895 30.8017 88.7737 31.3954 88.7874C31.923 88.7638 32.4494 88.8564 32.9373 89.0586C33.4252 89.2607 33.8627 89.5676 34.219 89.9574C34.921 90.7374 35.276 91.8567 35.276 93.2724C35.276 94.6881 34.9328 95.7645 34.2269 96.5601C33.8734 96.9493 33.4386 97.2559 32.9533 97.4581C32.468 97.6603 31.9441 97.7532 31.4188 97.7301C30.8881 97.7557 30.3583 97.6642 29.8669 97.462C29.3755 97.2598 28.9347 96.9518 28.5758 96.5601C27.8855 95.7801 27.5306 94.6998 27.5306 93.3075V93.3036ZM29.1919 93.2451C29.1362 94.0396 29.3566 94.829 29.816 95.4798C30.0024 95.7244 30.2433 95.9222 30.5195 96.0576C30.7957 96.193 31.0996 96.2622 31.4072 96.2598C31.7125 96.2644 32.0148 96.1994 32.2912 96.0697C32.5676 95.9399 32.8108 95.7488 33.0022 95.511C33.4156 95.0001 33.6146 94.2513 33.6146 93.2334C33.6146 92.2155 33.4157 91.5057 33.014 91.0221C32.8155 90.7906 32.5693 90.6048 32.2923 90.4774C32.0153 90.35 31.714 90.284 31.4091 90.284C31.1042 90.284 30.8029 90.35 30.5259 90.4774C30.2489 90.6048 30.0027 90.7906 29.8042 91.0221C29.3908 91.5174 29.1919 92.2662 29.1919 93.2607V93.2451ZM41.6408 94.3917L43.2008 94.9143C43.0411 95.7335 42.6228 96.4798 42.0074 97.0437C41.4048 97.5156 40.6545 97.7588 39.8897 97.7301C39.3935 97.7447 38.9005 97.6471 38.4473 97.4445C37.9942 97.2419 37.5927 96.9396 37.2728 96.5601C36.5903 95.7801 36.2471 94.7115 36.2471 93.3426C36.2471 91.9035 36.5903 90.7803 37.2728 89.9808C37.6045 89.5901 38.0203 89.2796 38.489 89.0723C38.9577 88.8649 39.4672 88.7662 39.9794 88.7835C40.4209 88.7665 40.8612 88.8416 41.2721 89.0041C41.6831 89.1666 42.0556 89.4128 42.3662 89.7273C42.7727 90.1785 43.0538 90.7285 43.1812 91.3224L41.5862 91.7358C41.5152 91.3239 41.3061 90.9484 40.9934 90.6711C40.6887 90.4129 40.3006 90.2743 39.9014 90.2811C39.625 90.2747 39.3511 90.3335 39.1017 90.4527C38.8524 90.572 38.6346 90.7483 38.4662 90.9675C38.0957 91.4277 37.9085 92.1804 37.9085 93.2061C37.9085 94.2942 38.0839 95.082 38.4544 95.5461C38.6162 95.7687 38.8295 95.9488 39.076 96.0711C39.3226 96.1933 39.595 96.2541 39.8701 96.2481C40.075 96.2531 40.2788 96.2158 40.4686 96.1386C40.6585 96.0615 40.8305 95.9461 40.9739 95.7996C41.3325 95.4141 41.5652 94.9284 41.6408 94.4073V94.3917ZM38.1308 99.8985V99.2082C38.4974 99.2433 38.8445 99.2667 39.1565 99.2667C39.4119 99.289 39.6671 99.2215 39.878 99.0756C39.9382 99.0373 39.9867 98.9833 40.0184 98.9193C40.05 98.8553 40.0635 98.784 40.0574 98.7129C40.0581 98.6454 40.0434 98.5787 40.0143 98.5179C39.9853 98.457 39.9426 98.4036 39.8897 98.3619C39.7389 98.2514 39.5534 98.1988 39.3671 98.2137C39.1242 98.2148 38.8831 98.2557 38.6533 98.3346L38.786 97.7418C39.08 97.6365 39.3902 97.5836 39.7025 97.5858C40.0762 97.5585 40.4462 97.6758 40.736 97.9134C40.848 98.0103 40.9379 98.13 40.9998 98.2645C41.0617 98.399 41.0941 98.5453 41.0948 98.6934C41.0991 98.8555 41.0661 99.0164 40.9985 99.1638C40.9309 99.3112 40.8304 99.4411 40.7048 99.5436C40.268 99.8675 39.7301 100.025 39.1876 99.9882C38.8329 99.9974 38.4783 99.966 38.1308 99.8946V99.8985ZM51.7808 97.5858H50.0375L49.3472 95.6358H46.1492L45.4784 97.5858H43.7741L46.8941 88.9239H48.5984L51.7964 97.5858H51.7808ZM48.8285 94.1499L47.7248 90.944L46.6445 94.1499H48.8285ZM52.6193 97.5858V88.92H55.0373L56.4764 94.8246L57.8804 88.92H60.3101V97.5819H58.8125V90.7608L57.2291 97.5819H55.6691L54.1091 90.7608V97.5819L52.6193 97.5858ZM61.9247 88.9239H65.1305C65.604 88.9104 66.0778 88.9391 66.5462 89.0097C66.8453 89.0688 67.1293 89.1882 67.3808 89.3607C67.6351 89.5552 67.844 89.8027 67.9931 90.0861C68.1613 90.3985 68.246 90.7492 68.2388 91.104C68.2405 91.4947 68.1367 91.8787 67.9385 92.2155C67.7535 92.5531 67.4688 92.8255 67.1234 92.9955C67.5734 93.1204 67.967 93.3956 68.2388 93.7755C68.5036 94.1588 68.6402 94.6162 68.6288 95.082C68.6346 95.4867 68.5465 95.8871 68.3714 96.252C68.226 96.6065 67.9875 96.915 67.6811 97.1451C67.3649 97.3778 66.9916 97.5207 66.6008 97.5585C66.3317 97.5936 65.6882 97.6053 64.6508 97.617H61.9208V88.92L61.9247 88.9239ZM63.5432 90.363V92.3598H64.6001C64.9904 92.3686 65.381 92.3569 65.7701 92.3247C65.8927 92.3197 66.0131 92.2903 66.1242 92.2381C66.2353 92.1859 66.3349 92.1121 66.417 92.0209C66.4991 91.9297 66.5622 91.8229 66.6024 91.707C66.6427 91.5911 66.6594 91.4682 66.6515 91.3458C66.6616 91.1111 66.5914 90.88 66.4526 90.6906C66.2907 90.5186 66.0716 90.4118 65.8364 90.3903C65.6804 90.3903 65.2241 90.363 64.4675 90.363H63.5432ZM63.5432 93.7989V96.1389H65.0369C65.4055 96.1473 65.7743 96.1304 66.1406 96.0882C66.3724 96.045 66.5812 95.9205 66.7295 95.7372C66.8659 95.5309 66.9426 95.2909 66.9508 95.0437C66.9591 94.7966 66.8986 94.552 66.7763 94.3371C66.6565 94.1549 66.4795 94.0177 66.2732 93.9471C65.8055 93.8394 65.3249 93.7987 64.8458 93.8262L63.5432 93.7989ZM69.9197 97.5858V88.92H71.5343V97.5819L69.9197 97.5858ZM79.4942 96.486C79.8786 96.7982 80.3105 97.047 80.7734 97.2231L80.1845 98.4711C79.9333 98.3935 79.6934 98.2834 79.4708 98.1435C79.4279 98.1201 79.0808 97.8627 78.4022 97.3635C77.8597 97.6244 77.2647 97.7578 76.6628 97.7535C76.1267 97.7806 75.5912 97.6898 75.0939 97.4877C74.5967 97.2856 74.1497 96.9769 73.7846 96.5835C73.0826 95.8035 72.7394 94.6842 72.7394 93.2685C72.7394 91.8528 73.0826 90.753 73.7846 89.9652C74.1531 89.5896 74.5928 89.2913 75.0779 89.0876C75.5631 88.8839 76.084 88.7791 76.6102 88.7791C77.1363 88.7791 77.6572 88.8839 78.1424 89.0876C78.6275 89.2913 79.0672 89.5896 79.4357 89.9652C80.1299 90.7452 80.4731 91.8528 80.4731 93.2685C80.4821 93.9298 80.3847 94.5882 80.1845 95.2185C80.0289 95.6751 79.7953 96.1013 79.4942 96.4782V96.486ZM78.1994 95.5071C78.4135 95.2221 78.5686 94.8972 78.6557 94.5516C78.7639 94.1286 78.8163 93.6933 78.8117 93.2568C78.8117 92.2506 78.6128 91.5018 78.1994 91.0065C78.0043 90.7737 77.7605 90.5865 77.4853 90.458C77.21 90.3296 76.91 90.263 76.6063 90.263C76.3025 90.263 76.0024 90.3296 75.7272 90.458C75.4519 90.5865 75.2082 90.7737 75.0131 91.0065C74.5997 91.5018 74.4008 92.2506 74.4008 93.2451C74.4008 94.2396 74.5997 95.0235 75.0131 95.5188C75.2639 95.8479 75.6138 96.0877 76.0113 96.2028C76.4087 96.318 76.8326 96.3024 77.2205 96.1584C76.9148 95.9339 76.5803 95.7516 76.226 95.6163L76.6862 94.5984C77.2366 94.8119 77.7479 95.115 78.1994 95.4954V95.5071ZM81.7445 88.9239H83.363V93.6039C83.3518 94.0881 83.3701 94.5726 83.4176 95.0547C83.4778 95.3854 83.6516 95.6847 83.909 95.901C84.2103 96.1341 84.5856 96.2504 84.9659 96.2286C85.3335 96.2562 85.6985 96.1479 85.9916 95.9244C86.2107 95.7292 86.3566 95.465 86.405 95.1756C86.4582 94.6861 86.4804 94.1937 86.4713 93.7014V88.92H88.0859V93.4713C88.107 94.2109 88.0627 94.9508 87.9533 95.6826C87.8842 96.0788 87.7195 96.4523 87.4736 96.7707C87.2245 97.0785 86.9029 97.3197 86.5376 97.4727C86.0546 97.6709 85.5342 97.7613 85.0127 97.7379C84.4226 97.7703 83.8326 97.6718 83.285 97.4493C82.9389 97.2905 82.634 97.0542 82.3939 96.7587C82.1538 96.4631 81.985 96.1163 81.9005 95.745C81.78 95.0169 81.7278 94.2792 81.7445 93.5415V88.92V88.9239ZM89.7941 97.5858V88.92H95.7026V90.3864H91.4126V92.3091H95.4023V93.7716H91.4126V96.1116H95.8625V97.5741L89.7941 97.5858ZM97.1729 95.9283H98.6978V97.0983C98.7106 97.481 98.674 97.8638 98.5886 98.2371C98.509 98.5198 98.3587 98.7775 98.1518 98.9859C97.9278 99.2168 97.6545 99.3941 97.3523 99.5046L97.052 98.8182C97.314 98.7388 97.5437 98.5775 97.7072 98.358C97.8448 98.1214 97.915 97.8516 97.91 97.578H97.1729V95.94V95.9283Z" fill="#F07D00"/>
<path fill-rule="evenodd" clip-rule="evenodd" d="M103.418 97.5938V88.9202H109.326V90.3866H105.036V92.3092H109.026V93.7717H105.036V96.1118H109.486V97.5743L103.418 97.5938ZM110.828 97.5938V95.9402H112.357V97.5977L110.828 97.5938Z" fill="#F07D00"/>
<path fill-rule="evenodd" clip-rule="evenodd" d="M113.295 97.5936V88.92H115.881C116.522 88.889 117.165 88.9334 117.796 89.0525C118.276 89.1848 118.692 89.487 118.966 89.9028C119.288 90.4026 119.447 90.9897 119.422 91.5836C119.437 92.0456 119.344 92.5047 119.153 92.9253C119 93.2587 118.771 93.5522 118.486 93.7833C118.236 93.9724 117.953 94.1127 117.652 94.1967C117.098 94.285 116.539 94.3254 115.978 94.3176H114.929V97.5819L113.295 97.5936ZM114.91 90.3981V92.8629H115.791C116.219 92.887 116.649 92.8423 117.063 92.7303C117.268 92.6381 117.441 92.4875 117.562 92.2974C117.687 92.0939 117.75 91.8577 117.741 91.6188C117.752 91.3362 117.661 91.0591 117.484 90.8388C117.324 90.6345 117.095 90.4958 116.84 90.4488C116.459 90.4001 116.074 90.3805 115.69 90.3903L114.91 90.3981Z" fill="#F07D00"/>
<path fill-rule="evenodd" clip-rule="evenodd" d="M119.272 97.5935V95.936H120.801V97.5935H119.272Z" fill="#F07D00"/>
</g>
<defs>
<clipPath id="clip0_3315_1886">
<rect width="120.799" height="100" fill="white"/>
</clipPath>
</defs>
</svg>
