<svg width="25" height="28" viewBox="0 0 25 28" fill="none" xmlns="http://www.w3.org/2000/svg">
<path d="M0.234375 7.92314V20.0764C0.234375 20.6126 0.527216 21.1486 0.995763 21.4466L11.4209 27.5232C11.8895 27.821 12.4751 27.821 13.0023 27.5232L23.4275 21.387C23.896 21.0892 24.1888 20.6126 24.1888 20.0168V7.92314C24.1888 7.38698 23.896 6.8508 23.4275 6.55294L13.0023 0.476334C12.5337 0.178462 11.948 0.178462 11.4209 0.476334L0.995763 6.55294C0.527216 6.8508 0.234375 7.3274 0.234375 7.92314Z" fill="#4A90E2"/>
<path d="M15.8723 12.3911L14.8181 14.2379L12.4753 9.71021L6.09137 20.5528H3.98291L4.68574 19.3613L5.73997 17.574L6.38422 16.5017L7.43845 14.7145L7.84842 13.9996L8.90265 12.2123L11.4211 7.92297L12.4753 6.07617L13.471 7.98255L15.8723 12.3911Z" fill="white"/>
<path d="M19.9721 20.4936L17.9808 20.553L16.3994 17.3361L17.4536 15.4893L19.9721 20.4936Z" fill="white"/>
<path d="M17.1608 14.8932L16.1065 16.74L15.1694 14.8336L15.5794 14.1187L16.2237 12.9868L17.1608 14.8932Z" fill="white"/>
<path d="M20.0893 9.8888L17.1607 14.8931L16.1065 16.7399L14.9937 18.6463L13.9395 20.493L12.8853 18.5271L13.3538 17.6931L13.9395 16.6803V16.6207L14.9937 14.8335L15.0523 14.7739L15.4623 14.059L16.1065 12.9271L16.5165 12.2718L19.0349 7.98242L20.0893 9.8888Z" fill="white"/>
<path d="M10.6597 5.77832L9.60544 7.56556H8.43408L9.48831 5.77832H10.6597Z" fill="white"/>
<path d="M14.9351 18.7059L13.8809 20.5526L12.8852 18.6463L11.6553 16.2037L12.7095 14.3569L13.9395 16.7995L14.9351 18.7059Z" fill="white"/>
<path d="M20.0893 9.8888L17.1607 14.8931L16.1065 16.7399L14.9937 18.6463L13.9395 20.493L12.8853 18.5271L13.3538 17.6931L13.9395 16.6803V16.6207L14.9937 14.8335L15.0523 14.7739L15.4623 14.059L16.1065 12.9271L16.5165 12.2718L19.0349 7.98242L20.0893 9.8888Z" fill="white"/>
<path d="M7.73137 11.4976L6.67714 13.2848H3.0459L4.10013 11.4976H7.73137Z" fill="white"/>
<path d="M6.03289 11.4976L4.97866 13.2848H3.0459L4.10013 11.4976H6.03289Z" fill="white"/>
<path d="M9.42954 8.6377L8.37531 10.4249H5.68115L6.73538 8.6377H9.42954Z" fill="white"/>
<path d="M7.90676 8.6377L6.85253 10.4249H5.68115L6.73538 8.6377H7.90676Z" fill="white"/>
<path d="M11.0696 5.77832L10.0154 7.56556H8.43408L9.48831 5.77832H11.0696Z" fill="white"/>
</svg>
