<svg width="89" height="20" viewBox="0 0 89 20" fill="none" xmlns="http://www.w3.org/2000/svg">
<g clip-path="url(#clip0_1309_305)">
<mask id="mask0_1309_305" style="mask-type:luminance" maskUnits="userSpaceOnUse" x="0" y="0" width="89" height="20">
<path d="M88.75 0H0.75V20H88.75V0Z" fill="white"/>
</mask>
<g mask="url(#mask0_1309_305)">
<mask id="mask1_1309_305" style="mask-type:luminance" maskUnits="userSpaceOnUse" x="0" y="0" width="106" height="20">
<path d="M105.545 0H0.5V19.8449H105.545V0Z" fill="white"/>
</mask>
<g mask="url(#mask1_1309_305)">
<path d="M31.8562 9.84322C31.9703 9.9964 32.0159 10.1887 32.0159 10.3777V12.8873C32.0159 13.1383 31.9312 13.3534 31.7617 13.5294C31.2859 14.002 30.7253 14.3572 30.08 14.5951C29.4346 14.8331 28.7176 14.9504 27.9289 14.9504H27.2444C26.4557 14.9504 25.7354 14.8266 25.0868 14.5821C24.4382 14.3344 23.8744 13.9759 23.3985 13.5C22.9423 13.0535 22.5968 12.519 22.3621 11.8965C22.1372 11.3098 22.0264 10.671 22.0264 9.97359C22.0264 9.63789 22.0525 9.31197 22.1079 8.9893C22.16 8.6699 22.248 8.36027 22.3621 8.06368C22.5935 7.45095 22.939 6.90992 23.3985 6.44711C23.8744 5.97452 24.435 5.61275 25.0868 5.36829C25.7354 5.12059 26.4557 5 27.2444 5H27.9289C28.6003 5 29.2326 5.09452 29.8257 5.28029C30.1125 5.37482 30.3831 5.48564 30.6405 5.61601C30.8948 5.74637 31.1359 5.90282 31.3608 6.08859C31.5499 6.23852 31.6574 6.43407 31.69 6.67525C31.7226 6.91644 31.6639 7.1348 31.5205 7.33036C31.3771 7.52591 31.1881 7.63998 30.9567 7.67258C30.722 7.70517 30.5134 7.6465 30.3244 7.49984C30.0278 7.25865 29.6758 7.07614 29.2684 6.95555C28.861 6.83496 28.4145 6.77303 27.9321 6.77303H27.2477C26.7099 6.77303 26.2243 6.84799 25.7908 6.99466C25.3573 7.14458 24.9858 7.35643 24.6827 7.63672C24.3763 7.91702 24.1449 8.25272 23.9852 8.64708C23.8255 9.04145 23.744 9.4847 23.744 9.97685C23.744 10.469 23.8255 10.9122 23.9852 11.3066C24.1449 11.701 24.3796 12.0399 24.6827 12.317C24.9858 12.5972 25.3573 12.8091 25.7908 12.959C26.2243 13.1089 26.7132 13.1806 27.2477 13.1806H27.9321C28.4145 13.1806 28.8577 13.1187 29.2554 12.9981C29.653 12.8775 30.005 12.7015 30.3114 12.4669V11.2544H27.7692C27.5345 11.2544 27.3357 11.1664 27.1629 10.9904C26.9935 10.8144 26.9087 10.6059 26.9087 10.3647C26.9087 10.1235 26.9935 9.91492 27.1629 9.73567C27.3324 9.55967 27.5345 9.47167 27.7692 9.47167H31.1718C31.4488 9.47167 31.677 9.59552 31.8595 9.84322H31.8562Z" fill="#131A2A"/>
<path d="M43.959 13.4447C44.1285 13.6174 44.2132 13.8228 44.2132 14.0639C44.2132 14.3051 44.1285 14.5267 43.959 14.6995C43.7895 14.8722 43.5875 14.957 43.3528 14.957H36.8474C36.6127 14.957 36.4139 14.8722 36.2477 14.6995C36.0815 14.5267 36 14.3149 36 14.0639V5.90932C36 5.72028 36.0489 5.52799 36.1597 5.37156C36.3422 5.12386 36.5704 5 36.8474 5C37.0788 5 37.2809 5.088 37.4536 5.264C37.6231 5.43999 37.7078 5.64858 37.7078 5.88976V13.1807H43.3561C43.5875 13.1807 43.7895 13.2654 43.9623 13.4382L43.959 13.4447Z" fill="#131A2A"/>
<path d="M64.6375 13.3856C64.8037 13.5584 64.8852 13.7637 64.8852 14.0049C64.8852 14.2461 64.8037 14.4677 64.6375 14.6404C64.4713 14.8132 64.2725 14.8979 64.0378 14.8979H58.3374C57.9887 14.8979 57.6595 14.8295 57.3499 14.6959C57.0402 14.5622 56.773 14.3765 56.5448 14.1385C56.3167 13.9006 56.1374 13.6236 56.0071 13.3107C55.8767 12.9945 55.8115 12.6556 55.8115 12.2938C55.8115 11.9972 55.8571 11.7071 55.9517 11.4301C56.0462 11.1498 56.1831 10.8956 56.3623 10.6642C56.5416 10.4328 56.7534 10.2372 56.9946 10.0775C57.2358 9.92113 57.4965 9.80706 57.7736 9.74188L62.8286 8.37626C63.0177 8.33063 63.1676 8.23286 63.2849 8.08293C63.4022 7.93301 63.4609 7.76353 63.4609 7.56797C63.4609 7.2779 63.3468 7.0465 63.1219 6.8705C62.9851 6.76294 62.8123 6.71732 62.6396 6.71732H56.9555C56.7208 6.71732 56.522 6.63258 56.3558 6.45984C56.1896 6.2871 56.1081 6.08177 56.1081 5.84058C56.1081 5.5994 56.1896 5.39081 56.3558 5.2148C56.522 5.03881 56.7208 4.95081 56.9555 4.95081H62.6559C63.0046 4.95081 63.3338 5.01925 63.6369 5.1594C63.94 5.29954 64.2073 5.48859 64.4354 5.72325C64.6636 5.96118 64.8428 6.23821 64.9732 6.55435C65.1003 6.86398 65.1655 7.19968 65.1687 7.55494C65.1687 8.06663 65.0286 8.57507 64.7548 9.00855C64.3833 9.59521 63.8651 9.9635 63.2067 10.1101L58.1516 11.4757C57.9724 11.5214 57.8224 11.6191 57.7019 11.7691C57.5813 11.919 57.5193 12.095 57.5193 12.3003C57.5193 12.5317 57.5976 12.7305 57.754 12.8935C57.9104 13.0565 58.106 13.1379 58.3374 13.1379H64.0378C64.2692 13.1379 64.4713 13.2227 64.6375 13.3954V13.3856Z" fill="#131A2A"/>
<path d="M75.7681 6.39633C76.2244 6.86892 76.5666 7.40995 76.7882 8.0129C77.0196 8.60934 77.137 9.24489 77.137 9.92281C77.137 10.6007 77.0196 11.233 76.7882 11.8457C76.5536 12.4584 76.2146 12.993 75.7681 13.4492C75.2923 13.9218 74.7317 14.2836 74.0798 14.5313C73.4312 14.779 72.7077 14.8996 71.9092 14.8996H71.6061C70.8076 14.8996 70.084 14.7758 69.4354 14.5313C68.7868 14.2836 68.223 13.9251 67.7472 13.4492C67.3006 13.0027 66.9552 12.4682 66.7107 11.8457C66.4858 11.2232 66.375 10.5811 66.375 9.92281C66.375 9.58711 66.4044 9.26119 66.463 8.93852C66.5217 8.61912 66.6032 8.30949 66.7107 8.0129C66.9519 7.40017 67.2974 6.85914 67.7472 6.39633C68.223 5.92374 68.7836 5.56197 69.4354 5.31751C70.084 5.06981 70.8076 4.94922 71.6061 4.94922H71.9092C72.7077 4.94922 73.4312 5.07307 74.0798 5.31751C74.7284 5.56523 75.2923 5.92374 75.7681 6.39633ZM71.9092 13.1298C72.4469 13.1298 72.9326 13.0549 73.3661 12.9082C73.7995 12.7583 74.1711 12.5464 74.4742 12.2662C74.7773 11.9859 75.0152 11.6502 75.1814 11.2558C75.3477 10.8614 75.4291 10.4182 75.4291 9.92607C75.4291 9.43392 75.3477 8.99067 75.1814 8.5963C75.0152 8.20194 74.7806 7.86298 74.4742 7.58594C74.1678 7.30565 73.7995 7.0938 73.3661 6.94388C72.9326 6.79395 72.4437 6.72225 71.9092 6.72225H71.6061C71.0585 6.72225 70.5696 6.79721 70.1329 6.94388C69.6994 7.0938 69.3279 7.30565 69.0248 7.58594C68.7184 7.86624 68.487 8.20194 68.3273 8.5963C68.1643 8.99067 68.0861 9.43392 68.0861 9.92607C68.0861 10.4182 68.1676 10.8614 68.3273 11.2558C68.487 11.6502 68.7217 11.9891 69.0248 12.2662C69.3279 12.5464 69.6994 12.7583 70.1329 12.9082C70.5664 13.0581 71.0585 13.1298 71.6061 13.1298H71.9092Z" fill="#131A2A"/>
<path d="M86.9176 9.28751C86.7156 9.52869 86.4907 9.7438 86.2397 9.92957C86.7416 10.3109 87.1458 10.7933 87.4489 11.38L88.619 13.5962C88.7265 13.8113 88.7461 14.0362 88.6809 14.2709C88.6124 14.5088 88.4755 14.6816 88.2702 14.7924C88.1529 14.8673 88.0193 14.9032 87.8661 14.9032C87.7129 14.9032 87.5695 14.8641 87.4293 14.7858C87.2892 14.7076 87.1849 14.5936 87.1132 14.4436L85.9562 12.2274C85.7215 11.7906 85.4054 11.4451 85.0012 11.1974C84.5971 10.9465 84.1538 10.8194 83.6715 10.8194C83.1891 10.8194 82.7426 10.9465 82.3417 11.1974C81.9375 11.4484 81.6214 11.7939 81.3867 12.2274L80.2297 14.4436C80.1482 14.5936 80.0407 14.7076 79.907 14.7858C79.7734 14.8641 79.63 14.9032 79.4768 14.9032C79.4051 14.9032 79.3367 14.8967 79.2682 14.8836C79.1998 14.8706 79.1346 14.838 79.0727 14.7924C78.8674 14.6816 78.7272 14.5056 78.6555 14.2709C78.5838 14.033 78.6066 13.8081 78.7239 13.5962L79.881 11.38C80.1939 10.7933 80.598 10.3109 81.0901 9.92957C80.5882 9.53847 80.1841 9.0561 79.881 8.47922L78.7239 6.26295C78.6066 6.04784 78.5838 5.82621 78.6555 5.5948C78.7468 5.30473 78.9423 5.0994 79.2422 4.98533C79.3367 4.94948 79.4377 4.9397 79.5388 4.95274C79.8516 5.00163 80.083 5.16133 80.2297 5.42858L81.3867 7.63182C81.6214 8.07833 81.9375 8.42707 82.3417 8.67803C82.7458 8.92899 83.1891 9.05284 83.6715 9.05284C84.1538 9.05284 84.6003 8.92899 85.0012 8.67803C85.4021 8.42707 85.7215 8.07833 85.9562 7.63182L87.1132 5.42858C87.2599 5.16133 87.488 5.00163 87.8041 4.95274C87.9019 4.93644 88.0062 4.94948 88.0975 4.98533C88.4006 5.10266 88.5929 5.30473 88.6776 5.59806C88.7461 5.82947 88.7232 6.05436 88.6157 6.26621L87.4456 8.48248C87.2924 8.77907 87.1164 9.04958 86.9144 9.29077L86.9176 9.28751Z" fill="#131A2A"/>
<path d="M0.5 5.53872V14.3102C0.5 14.6979 0.716327 15.0857 1.05918 15.2979L8.71224 19.6857C9.0551 19.902 9.48775 19.902 9.87143 19.6857L17.5245 15.2571C17.8673 15.0408 18.0837 14.6979 18.0837 14.2694V5.53872C18.0837 5.15096 17.8673 4.76321 17.5245 4.55096L9.87551 0.163222C9.53265 -0.0531051 9.1 -0.0531051 8.71633 0.163222L1.05918 4.54688C0.716327 4.76321 0.5 5.10606 0.5 5.53463V5.53872Z" fill="#EE0000"/>
<path d="M13.3653 9.04077C13.1123 9.34282 12.8306 9.6122 12.5163 9.84486C13.1449 10.3224 13.651 10.9265 14.0306 11.6612L15.4959 14.4367C15.6306 14.7061 15.6551 14.9877 15.5735 15.2816C15.4878 15.5796 15.3163 15.7959 15.0592 15.9347C14.9123 16.0286 14.7449 16.0735 14.5531 16.0735C14.3612 16.0735 14.1817 16.0245 14.0061 15.9265C13.8306 15.8286 13.7 15.6857 13.6102 15.4979L12.1612 12.7224C11.8674 12.1755 11.4714 11.7428 10.9653 11.4326C10.4592 11.1184 9.9041 10.9592 9.30002 10.9592C8.69594 10.9592 8.13676 11.1184 7.63471 11.4326C7.12859 11.7469 6.73267 12.1796 6.4388 12.7224L4.98982 15.4979C4.88778 15.6857 4.75308 15.8286 4.58574 15.9265C4.41838 16.0245 4.23878 16.0735 4.04695 16.0735C3.95715 16.0735 3.87144 16.0653 3.78572 16.049C3.70001 16.0326 3.61838 15.9918 3.54082 15.9347C3.28368 15.7959 3.10817 15.5755 3.01838 15.2816C2.92858 14.9837 2.95715 14.702 3.10409 14.4367L4.55307 11.6612C4.94492 10.9265 5.45104 10.3224 6.06737 9.84486C5.4388 9.35506 4.93267 8.75098 4.55307 8.02853L3.10409 5.25302C2.95715 4.98363 2.92858 4.70608 3.01838 4.41628C3.13266 4.05302 3.37756 3.79588 3.75307 3.65302C3.87144 3.60812 3.99797 3.59588 4.1245 3.6122C4.51633 3.67343 4.80614 3.87343 4.98982 4.20812L6.4388 6.96731C6.73267 7.52649 7.12859 7.96322 7.63471 8.27751C8.14084 8.59179 8.69594 8.7469 9.30002 8.7469C9.9041 8.7469 10.4633 8.59179 10.9653 8.27751C11.4674 7.96322 11.8674 7.52649 12.1612 6.96731L13.6102 4.20812C13.7939 3.87343 14.0796 3.67343 14.4755 3.6122C14.598 3.5918 14.7286 3.60812 14.8429 3.65302C15.2225 3.79996 15.4633 4.05302 15.5694 4.42037C15.6551 4.71016 15.6266 4.99179 15.4919 5.2571L14.0266 8.03261C13.8347 8.40404 13.6143 8.74282 13.3612 9.04486L13.3653 9.04077Z" fill="white"/>
<path d="M54.6512 13.6376C54.7262 13.8103 54.7588 14.0059 54.7131 14.1884C54.6414 14.485 54.4785 14.6936 54.2243 14.8142C54.1167 14.8696 53.9994 14.8989 53.8755 14.8989C53.7126 14.8989 53.5626 14.8533 53.4192 14.7588C53.2758 14.6675 53.1683 14.5404 53.0966 14.384L50.1111 7.56566C49.9938 7.30492 49.8211 7.09959 49.5864 6.95292C49.3517 6.803 49.104 6.73129 48.8335 6.73129C48.563 6.73129 48.3023 6.80626 48.0741 6.95292C47.846 7.10285 47.6732 7.30492 47.5559 7.56566L44.5574 14.384C44.4596 14.6056 44.2999 14.7588 44.0816 14.8435C43.8632 14.9282 43.6448 14.9185 43.4297 14.8142C43.2146 14.7099 43.0679 14.5469 42.9865 14.3188C42.905 14.0906 42.9148 13.8657 43.0125 13.6441L45.998 6.84211C46.2587 6.26523 46.6401 5.80568 47.1485 5.46346C47.6537 5.12123 48.2175 4.94849 48.8368 4.94849C49.456 4.94849 50.0068 5.12123 50.5153 5.46346C51.027 5.80893 51.4083 6.26849 51.6593 6.84211L54.6545 13.6409L54.6512 13.6376Z" fill="#131A2A"/>
<path d="M50.1576 11H48.7528C48.337 11 48 11.3371 48 11.7529V11.9517C48 12.3675 48.337 12.7046 48.7528 12.7046H50.1576C50.5735 12.7046 50.9105 12.3675 50.9105 11.9517V11.7529C50.9105 11.3371 50.5735 11 50.1576 11Z" fill="#131A2A"/>
</g>
</g>
</g>
<defs>
<clipPath id="clip0_1309_305">
<rect width="89" height="20" fill="white"/>
</clipPath>
</defs>
</svg>
