<svg width="89" height="20" viewBox="0 0 89 20" fill="none" xmlns="http://www.w3.org/2000/svg">
<g clip-path="url(#clip0_657_193)">
<mask id="mask0_657_193" style="mask-type:luminance" maskUnits="userSpaceOnUse" x="0" y="0" width="106" height="20">
<path d="M105.545 0H0.5V19.8449H105.545V0Z" fill="white"/>
</mask>
<g mask="url(#mask0_657_193)">
<path d="M31.8564 9.7925C31.9705 9.94568 32.0161 10.138 32.0161 10.327V12.8366C32.0161 13.0876 31.9314 13.3027 31.7619 13.4787C31.2861 13.9513 30.7255 14.3065 30.0802 14.5444C29.4348 14.7824 28.7178 14.8997 27.9291 14.8997H27.2446C26.4559 14.8997 25.7356 14.7759 25.087 14.5314C24.4384 14.2837 23.8746 13.9252 23.3987 13.4493C22.9425 13.0028 22.597 12.4683 22.3623 11.8458C22.1374 11.2591 22.0266 10.6203 22.0266 9.92287C22.0266 9.58717 22.0527 9.26125 22.1081 8.93858C22.1602 8.61918 22.2482 8.30955 22.3623 8.01296C22.5937 7.40023 22.9392 6.8592 23.3987 6.39639C23.8746 5.9238 24.4352 5.56203 25.087 5.31757C25.7356 5.06987 26.4559 4.94928 27.2446 4.94928H27.9291C28.6005 4.94928 29.2328 5.0438 29.8259 5.22957C30.1127 5.3241 30.3833 5.43492 30.6407 5.56529C30.895 5.69565 31.1361 5.8521 31.361 6.03787C31.5501 6.1878 31.6576 6.38335 31.6902 6.62453C31.7228 6.86572 31.6641 7.08408 31.5207 7.27964C31.3773 7.47519 31.1883 7.58926 30.9569 7.62186C30.7222 7.65445 30.5136 7.59578 30.3246 7.44912C30.028 7.20793 29.676 7.02542 29.2686 6.90483C28.8612 6.78424 28.4147 6.72231 27.9323 6.72231H27.2479C26.7101 6.72231 26.2245 6.79727 25.791 6.94394C25.3575 7.09386 24.986 7.30571 24.6829 7.586C24.3765 7.8663 24.1451 8.202 23.9854 8.59636C23.8257 8.99073 23.7442 9.43398 23.7442 9.92613C23.7442 10.4183 23.8257 10.8615 23.9854 11.2559C24.1451 11.6503 24.3798 11.9892 24.6829 12.2663C24.986 12.5465 25.3575 12.7584 25.791 12.9083C26.2245 13.0582 26.7134 13.1299 27.2479 13.1299H27.9323C28.4147 13.1299 28.8579 13.068 29.2556 12.9474C29.6532 12.8268 30.0052 12.6508 30.3116 12.4162V11.2037H27.7694C27.5347 11.2037 27.3359 11.1157 27.1631 10.9397C26.9937 10.7637 26.9089 10.5552 26.9089 10.314C26.9089 10.0728 26.9937 9.8642 27.1631 9.68495C27.3326 9.50895 27.5347 9.42095 27.7694 9.42095H31.172C31.449 9.42095 31.6772 9.5448 31.8597 9.7925H31.8564Z" fill="white"/>
<path d="M41.5884 13.3907C41.7579 13.5634 41.8426 13.7688 41.8426 14.0099C41.8426 14.2511 41.7579 14.4727 41.5884 14.6455C41.4189 14.8182 41.2169 14.903 40.9822 14.903H34.4768C34.2421 14.903 34.0433 14.8182 33.8771 14.6455C33.7109 14.4727 33.6294 14.2609 33.6294 14.0099V5.85536C33.6294 5.66632 33.6783 5.47403 33.7891 5.3176C33.9716 5.0699 34.1998 4.94604 34.4768 4.94604C34.7082 4.94604 34.9103 5.03404 35.083 5.21004C35.2525 5.38603 35.3372 5.59462 35.3372 5.8358V13.1267H40.9855C41.2169 13.1267 41.4189 13.2114 41.5917 13.3842L41.5884 13.3907Z" fill="white"/>
<path d="M64.6377 13.3857C64.8039 13.5585 64.8854 13.7638 64.8854 14.005C64.8854 14.2462 64.8039 14.4678 64.6377 14.6405C64.4715 14.8133 64.2727 14.898 64.038 14.898H58.3376C57.9889 14.898 57.6597 14.8296 57.3501 14.696C57.0404 14.5623 56.7732 14.3766 56.545 14.1386C56.3169 13.9007 56.1376 13.6237 56.0073 13.3108C55.8769 12.9946 55.8117 12.6557 55.8117 12.2939C55.8117 11.9973 55.8573 11.7072 55.9519 11.4302C56.0464 11.1499 56.1833 10.8957 56.3625 10.6643C56.5418 10.4329 56.7536 10.2373 56.9948 10.0776C57.236 9.92119 57.4967 9.80712 57.7738 9.74194L62.8288 8.37632C63.0179 8.33069 63.1678 8.23292 63.2851 8.08299C63.4024 7.93307 63.4611 7.76359 63.4611 7.56803C63.4611 7.27796 63.347 7.04656 63.1221 6.87056C62.9853 6.763 62.8125 6.71738 62.6398 6.71738H56.9557C56.721 6.71738 56.5222 6.63264 56.356 6.4599C56.1898 6.28716 56.1083 6.08183 56.1083 5.84064C56.1083 5.59946 56.1898 5.39087 56.356 5.21486C56.5222 5.03887 56.721 4.95087 56.9557 4.95087H62.6561C63.0048 4.95087 63.334 5.01931 63.6371 5.15946C63.9402 5.2996 64.2075 5.48865 64.4356 5.72331C64.6638 5.96124 64.843 6.23827 64.9734 6.55441C65.1005 6.86404 65.1657 7.19974 65.1689 7.555C65.1689 8.06669 65.0288 8.57513 64.755 9.00861C64.3835 9.59527 63.8653 9.96356 63.2069 10.1102L58.1518 11.4758C57.9726 11.5215 57.8226 11.6192 57.7021 11.7692C57.5815 11.9191 57.5195 12.0951 57.5195 12.3004C57.5195 12.5318 57.5978 12.7306 57.7542 12.8936C57.9106 13.0566 58.1062 13.138 58.3376 13.138H64.038C64.2694 13.138 64.4715 13.2228 64.6377 13.3955V13.3857Z" fill="white"/>
<path d="M75.7679 6.39639C76.2242 6.86898 76.5664 7.41001 76.788 8.01296C77.0194 8.6094 77.1368 9.24495 77.1368 9.92287C77.1368 10.6008 77.0194 11.2331 76.788 11.8458C76.5534 12.4585 76.2144 12.9931 75.7679 13.4493C75.2921 13.9219 74.7315 14.2837 74.0796 14.5314C73.431 14.7791 72.7075 14.8997 71.909 14.8997H71.6059C70.8074 14.8997 70.0838 14.7759 69.4352 14.5314C68.7866 14.2837 68.2228 13.9252 67.747 13.4493C67.3004 13.0028 66.955 12.4683 66.7105 11.8458C66.4856 11.2233 66.3748 10.5812 66.3748 9.92287C66.3748 9.58717 66.4042 9.26125 66.4628 8.93858C66.5215 8.61918 66.603 8.30955 66.7105 8.01296C66.9517 7.40023 67.2972 6.8592 67.747 6.39639C68.2228 5.9238 68.7834 5.56203 69.4352 5.31757C70.0838 5.06987 70.8074 4.94928 71.6059 4.94928H71.909C72.7075 4.94928 73.431 5.07313 74.0796 5.31757C74.7282 5.56529 75.2921 5.9238 75.7679 6.39639ZM71.909 13.1299C72.4467 13.1299 72.9324 13.055 73.3659 12.9083C73.7993 12.7584 74.1709 12.5465 74.474 12.2663C74.7771 11.986 75.015 11.6503 75.1812 11.2559C75.3475 10.8615 75.4289 10.4183 75.4289 9.92613C75.4289 9.43398 75.3475 8.99073 75.1812 8.59636C75.015 8.202 74.7804 7.86304 74.474 7.586C74.1676 7.30571 73.7993 7.09386 73.3659 6.94394C72.9324 6.79401 72.4435 6.72231 71.909 6.72231H71.6059C71.0583 6.72231 70.5694 6.79727 70.1327 6.94394C69.6992 7.09386 69.3277 7.30571 69.0246 7.586C68.7182 7.8663 68.4868 8.202 68.3271 8.59636C68.1641 8.99073 68.0859 9.43398 68.0859 9.92613C68.0859 10.4183 68.1674 10.8615 68.3271 11.2559C68.4868 11.6503 68.7215 11.9892 69.0246 12.2663C69.3277 12.5465 69.6992 12.7584 70.1327 12.9083C70.5662 13.0582 71.0583 13.1299 71.6059 13.1299H71.909Z" fill="white"/>
<path d="M86.9177 9.28754C86.7157 9.52872 86.4908 9.74383 86.2398 9.9296C86.7417 10.3109 87.1459 10.7933 87.449 11.38L88.6191 13.5962C88.7266 13.8113 88.7462 14.0362 88.681 14.2709C88.6125 14.5088 88.4756 14.6816 88.2703 14.7924C88.153 14.8673 88.0194 14.9032 87.8662 14.9032C87.713 14.9032 87.5696 14.8641 87.4294 14.7858C87.2893 14.7076 87.185 14.5936 87.1133 14.4436L85.9563 12.2274C85.7216 11.7906 85.4055 11.4451 85.0013 11.1974C84.5972 10.9465 84.1539 10.8194 83.6716 10.8194C83.1892 10.8194 82.7427 10.9465 82.3418 11.1974C81.9376 11.4484 81.6215 11.7939 81.3868 12.2274L80.2298 14.4436C80.1483 14.5936 80.0408 14.7076 79.9071 14.7858C79.7735 14.8641 79.6301 14.9032 79.4769 14.9032C79.4052 14.9032 79.3368 14.8967 79.2683 14.8836C79.1999 14.8706 79.1347 14.838 79.0728 14.7924C78.8675 14.6816 78.7273 14.5056 78.6556 14.2709C78.5839 14.033 78.6067 13.8081 78.724 13.5962L79.8811 11.38C80.194 10.7933 80.5981 10.3109 81.0902 9.9296C80.5883 9.5385 80.1842 9.05613 79.8811 8.47925L78.724 6.26298C78.6067 6.04787 78.5839 5.82624 78.6556 5.59483C78.7469 5.30476 78.9424 5.09943 79.2423 4.98536C79.3368 4.94951 79.4378 4.93973 79.5389 4.95277C79.8517 5.00166 80.0831 5.16136 80.2298 5.42861L81.3868 7.63185C81.6215 8.07836 81.9376 8.4271 82.3418 8.67806C82.7459 8.92902 83.1892 9.05287 83.6716 9.05287C84.1539 9.05287 84.6004 8.92902 85.0013 8.67806C85.4022 8.4271 85.7216 8.07836 85.9563 7.63185L87.1133 5.42861C87.26 5.16136 87.4881 5.00166 87.8042 4.95277C87.902 4.93647 88.0063 4.94951 88.0976 4.98536C88.4007 5.10269 88.593 5.30476 88.6777 5.59809C88.7462 5.8295 88.7233 6.05439 88.6158 6.26624L87.4457 8.48251C87.2925 8.7791 87.1165 9.04961 86.9145 9.2908L86.9177 9.28754Z" fill="white"/>
<path d="M0.5 5.53875V14.3102C0.5 14.6979 0.716327 15.0857 1.05918 15.2979L8.71224 19.6857C9.0551 19.902 9.48775 19.902 9.87143 19.6857L17.5245 15.2571C17.8673 15.0408 18.0837 14.6979 18.0837 14.2694V5.53875C18.0837 5.15099 17.8673 4.76324 17.5245 4.55099L9.87551 0.163252C9.53265 -0.0530746 9.1 -0.0530746 8.71633 0.163252L1.05918 4.54691C0.716327 4.76324 0.5 5.10609 0.5 5.53466V5.53875Z" fill="#EE0000"/>
<path d="M13.3653 9.0408C13.1123 9.34285 12.8306 9.61223 12.5163 9.84489C13.1449 10.3224 13.651 10.9265 14.0306 11.6612L15.4959 14.4367C15.6306 14.7061 15.6551 14.9877 15.5735 15.2816C15.4878 15.5796 15.3163 15.7959 15.0592 15.9347C14.9123 16.0286 14.7449 16.0735 14.5531 16.0735C14.3612 16.0735 14.1817 16.0245 14.0061 15.9265C13.8306 15.8286 13.7 15.6857 13.6102 15.4979L12.1612 12.7224C11.8674 12.1755 11.4714 11.7428 10.9653 11.4326C10.4592 11.1184 9.9041 10.9592 9.30002 10.9592C8.69594 10.9592 8.13676 11.1184 7.63471 11.4326C7.12859 11.7469 6.73267 12.1796 6.4388 12.7224L4.98982 15.4979C4.88778 15.6857 4.75308 15.8286 4.58574 15.9265C4.41838 16.0245 4.23878 16.0735 4.04695 16.0735C3.95715 16.0735 3.87144 16.0653 3.78572 16.049C3.70001 16.0326 3.61838 15.9918 3.54082 15.9347C3.28368 15.7959 3.10817 15.5755 3.01838 15.2816C2.92858 14.9837 2.95715 14.702 3.10409 14.4367L4.55307 11.6612C4.94492 10.9265 5.45104 10.3224 6.06737 9.84489C5.4388 9.35509 4.93267 8.75101 4.55307 8.02856L3.10409 5.25305C2.95715 4.98366 2.92858 4.70611 3.01838 4.41631C3.13266 4.05305 3.37756 3.79591 3.75307 3.65305C3.87144 3.60815 3.99797 3.59591 4.1245 3.61223C4.51633 3.67346 4.80614 3.87346 4.98982 4.20815L6.4388 6.96734C6.73267 7.52652 7.12859 7.96325 7.63471 8.27754C8.14084 8.59182 8.69594 8.74693 9.30002 8.74693C9.9041 8.74693 10.4633 8.59182 10.9653 8.27754C11.4674 7.96325 11.8674 7.52652 12.1612 6.96734L13.6102 4.20815C13.7939 3.87346 14.0796 3.67346 14.4755 3.61223C14.598 3.59183 14.7286 3.60815 14.8429 3.65305C15.2225 3.79999 15.4633 4.05305 15.5694 4.4204C15.6551 4.71019 15.6266 4.99182 15.4919 5.25713L14.0266 8.03264C13.8347 8.40407 13.6143 8.74285 13.3612 9.04489L13.3653 9.0408Z" fill="white"/>
<path d="M54.6513 13.6376C54.7263 13.8103 54.7589 14.0059 54.7132 14.1884C54.6415 14.485 54.4786 14.6936 54.2244 14.8142C54.1168 14.8696 53.9995 14.8989 53.8756 14.8989C53.7127 14.8989 53.5627 14.8533 53.4193 14.7588C53.2759 14.6675 53.1684 14.5404 53.0967 14.384L50.1112 7.56566C49.9939 7.30492 49.8212 7.09959 49.5865 6.95292C49.3518 6.803 49.1041 6.73129 48.8336 6.73129C48.5631 6.73129 48.3024 6.80626 48.0742 6.95292C47.8461 7.10285 47.6733 7.30492 47.556 7.56566L44.5575 14.384C44.4597 14.6056 44.3 14.7588 44.0817 14.8435C43.8633 14.9282 43.6449 14.9185 43.4298 14.8142C43.2147 14.7099 43.068 14.5469 42.9866 14.3188C42.9051 14.0906 42.9149 13.8657 43.0126 13.6441L45.9981 6.84211C46.2588 6.26523 46.6402 5.80568 47.1486 5.46346C47.6538 5.12123 48.2176 4.94849 48.8369 4.94849C49.4561 4.94849 50.0069 5.12123 50.5154 5.46346C51.0271 5.80893 51.4084 6.26849 51.6594 6.84211L54.6546 13.6409L54.6513 13.6376Z" fill="white"/>
<path d="M49.5344 10.6521H48.1296C47.7138 10.6521 47.3768 10.9892 47.3768 11.405V11.6038C47.3768 12.0196 47.7138 12.3567 48.1296 12.3567H49.5344C49.9503 12.3567 50.2873 12.0196 50.2873 11.6038V11.405C50.2873 10.9892 49.9503 10.6521 49.5344 10.6521Z" fill="white"/>
</g>
</g>
<defs>
<clipPath id="clip0_657_193">
<rect width="88" height="20" fill="white" transform="translate(0.75)"/>
</clipPath>
</defs>
</svg>
