<svg width="108" height="20" viewBox="0 0 108 20" fill="none" xmlns="http://www.w3.org/2000/svg">
<path d="M23.5337 5.40496C23.256 5.6776 22.9248 5.81265 22.5413 5.81265C22.1578 5.81265 21.8304 5.67633 21.559 5.40496C21.2864 5.1336 21.1514 4.80491 21.1514 4.4227C21.1514 4.0405 21.2877 3.73092 21.559 3.45828C21.8304 3.18692 22.1591 3.0506 22.5413 3.0506C22.9235 3.0506 23.2547 3.18692 23.5337 3.45828C23.8115 3.73092 23.9503 4.05197 23.9503 4.4227C23.9503 4.79344 23.8115 5.1336 23.5337 5.40496ZM21.503 16.1971V7.14908H23.5796V16.1984H21.503V16.1971Z" fill="white"/>
<path d="M30.8122 7.01913C31.8505 7.01913 32.6633 7.33381 33.2506 7.96445C33.8379 8.59508 34.1309 9.56587 34.1309 10.8756V16.1984H32.0543V11.4145C32.0543 10.4997 31.89 9.85125 31.5625 9.46778C31.2351 9.0843 30.7434 8.8932 30.0885 8.8932C29.3712 8.8932 28.803 9.13399 28.3826 9.61684C27.9622 10.0984 27.752 10.7787 27.752 11.6565V16.1996H25.6754V7.14908H27.752V8.41035H27.7711C28.5495 7.48287 29.5636 7.01913 30.8122 7.01913Z" fill="white"/>
<path d="M41.5495 7.14908H43.7752L40.1965 16.1984H38.2129L34.6151 7.14908H36.8216L39.1887 13.6045H39.2079L41.5508 7.14908H41.5495Z" fill="white"/>
<path d="M48.41 16.3461C47.001 16.3461 45.8569 15.9079 44.9791 15.0301C44.1013 14.1523 43.6631 13.0401 43.6631 11.6922C43.6631 10.3443 44.1013 9.22954 44.9791 8.34538C45.8569 7.46121 47.001 7.01913 48.41 7.01913C49.8191 7.01913 50.9478 7.4523 51.832 8.31735C52.7162 9.1824 53.1582 10.3073 53.1582 11.6922C53.1582 13.077 52.7162 14.1842 51.832 15.0492C50.9478 15.9143 49.8076 16.3474 48.41 16.3474V16.3461ZM48.41 14.4542C49.1515 14.4542 49.7757 14.1943 50.2828 13.6758C50.7899 13.156 51.0434 12.4948 51.0434 11.6909C51.0434 10.887 50.7937 10.1889 50.2917 9.66907C49.791 9.14927 49.1629 8.89065 48.41 8.89065C47.6571 8.89065 46.9971 9.15692 46.5092 9.68818C46.0212 10.2194 45.7766 10.887 45.7766 11.6909C45.7766 12.4948 46.0238 13.1255 46.5181 13.6567C47.0124 14.188 47.6431 14.4542 48.41 14.4542Z" fill="white"/>
<path d="M56.7458 5.40496C56.4681 5.6776 56.1369 5.81265 55.7534 5.81265C55.3699 5.81265 55.0425 5.67633 54.7711 5.40496C54.4985 5.1336 54.3634 4.80491 54.3634 4.4227C54.3634 4.0405 54.4998 3.73092 54.7711 3.45828C55.0425 3.18692 55.3712 3.0506 55.7534 3.0506C56.1356 3.0506 56.4668 3.18692 56.7458 3.45828C57.0236 3.73092 57.1624 4.05197 57.1624 4.4227C57.1624 4.79344 57.0236 5.1336 56.7458 5.40496ZM54.7151 16.1971V7.14908H56.7917V16.1984H54.7151V16.1971Z" fill="white"/>
<path d="M62.9668 16.3462C61.6189 16.3462 60.5131 15.913 59.648 15.0479C58.783 14.1829 58.3498 13.063 58.3498 11.6909C58.3498 10.3188 58.7881 9.18115 59.6659 8.3161C60.5437 7.45105 61.6686 7.01788 63.0407 7.01788C63.7694 7.01788 64.4752 7.16312 65.1543 7.45359C65.8346 7.74407 66.3964 8.16194 66.8423 8.70594L65.4333 9.93026C64.8396 9.23848 64.079 8.89195 63.1528 8.89195C62.3489 8.89195 61.7005 9.14802 61.2061 9.66145C60.7118 10.1749 60.4647 10.845 60.4647 11.6731C60.4647 12.5012 60.7118 13.1726 61.2061 13.6848C61.7005 14.1982 62.3489 14.4543 63.1528 14.4543C64.0918 14.4543 64.8587 14.1332 65.4524 13.4898L66.8806 14.7511C66.4729 15.2212 65.9251 15.6047 65.2396 15.9003C64.5542 16.1971 63.7962 16.3449 62.9681 16.3449L62.9668 16.3462Z" fill="white"/>
<path d="M76.2815 11.5623C76.2815 11.7852 76.2624 12.0629 76.2254 12.3967H69.6235C69.7598 13.0401 70.0567 13.5433 70.514 13.9077C70.9714 14.2721 71.5345 14.4543 72.2021 14.4543C73.141 14.4543 73.8953 14.1014 74.4647 13.3968L75.9107 14.639C75.0329 15.7767 73.7602 16.3449 72.09 16.3449C70.7548 16.3449 69.6515 15.9155 68.7801 15.0556C67.9087 14.1969 67.473 13.0681 67.473 11.6718C67.473 10.2755 67.8909 9.18114 68.7253 8.31482C69.5598 7.44976 70.6134 7.0166 71.8874 7.0166C73.1614 7.0166 74.2736 7.44085 75.0775 8.28679C75.8814 9.134 76.2827 10.2246 76.2827 11.5597L76.2815 11.5623ZM73.4251 9.38371C73.0544 9.05629 72.5779 8.89194 71.997 8.89194C71.416 8.89194 70.9179 9.05246 70.5038 9.37351C70.0898 9.69456 69.8082 10.1468 69.6605 10.7278H74.1857C74.0494 10.1596 73.7959 9.71113 73.4251 9.38371Z" fill="#20CE65"/>
<path d="M84.4224 2.54993H86.4812V16.1984H84.4975V14.9932H84.4606C83.7675 15.8952 82.7916 16.3461 81.5304 16.3461C80.2691 16.3461 79.2066 15.9194 78.3785 15.067C77.5504 14.2135 77.1363 13.0949 77.1363 11.71C77.1363 10.3252 77.5542 9.22827 78.3887 8.34411C79.2231 7.45995 80.264 7.01787 81.5138 7.01787C82.7636 7.01787 83.6834 7.42555 84.388 8.24219H84.4249V2.54993H84.4224ZM79.9812 13.6949C80.4691 14.202 81.0908 14.4555 81.8451 14.4555C82.5993 14.4555 83.2299 14.202 83.737 13.6949C84.244 13.1879 84.4975 12.533 84.4975 11.7291C84.4975 10.9252 84.2504 10.236 83.7561 9.69838C83.2618 9.16075 82.6311 8.89193 81.8642 8.89193C81.0972 8.89193 80.501 9.15183 80.0003 9.67035C79.4996 10.1901 79.2486 10.8756 79.2486 11.7291C79.2486 12.533 79.4932 13.1879 79.9812 13.6949Z" fill="#20CE65"/>
<path d="M95.0298 7.14909H97.1064V15.2709C97.1064 16.7296 96.7357 17.8826 95.9942 18.7298C95.2527 19.577 94.0844 20 92.4894 20C91.0803 20 89.8496 19.6853 88.7986 19.0547L89.2993 17.238C89.8802 17.5463 90.3898 17.773 90.8294 17.9145C91.2676 18.0559 91.7849 18.1272 92.3773 18.1272C93.2309 18.1272 93.8921 17.9144 94.3609 17.4877C94.831 17.0609 95.0654 16.5322 95.0654 15.9015V14.9371H95.0463C94.3291 15.6786 93.4079 16.0493 92.283 16.0493C91.009 16.0493 89.9554 15.6353 89.1209 14.8071C88.2864 13.979 87.8686 12.9038 87.8686 11.5801C87.8686 10.2564 88.2737 9.16329 89.0827 8.29824C89.8917 7.43319 90.9211 7.00003 92.1709 7.00003C93.3086 7.00003 94.2475 7.37077 94.989 8.11224H95.0259V7.14782L95.0298 7.14909ZM92.5633 14.1408C93.3175 14.1408 93.9328 13.8911 94.408 13.3905C94.8832 12.8898 95.1215 12.2566 95.1215 11.4896C95.1215 10.7227 94.8769 10.1175 94.3889 9.63468C93.901 9.1531 93.292 8.91104 92.562 8.91104C91.7951 8.91104 91.1746 9.15565 90.6981 9.6436C90.2217 10.1315 89.9847 10.7596 89.9847 11.5253C89.9847 12.291 90.2293 12.9509 90.7172 13.4261C91.2052 13.9026 91.8205 14.1396 92.562 14.1396L92.5633 14.1408Z" fill="#20CE65"/>
<path d="M107.232 11.5623C107.232 11.7852 107.213 12.0629 107.176 12.3967H100.574C100.711 13.0401 101.007 13.5433 101.465 13.9077C101.922 14.2721 102.485 14.4543 103.153 14.4543C104.092 14.4543 104.846 14.1014 105.415 13.3968L106.861 14.639C105.984 15.7767 104.711 16.3449 103.041 16.3449C101.706 16.3449 100.602 15.9155 99.7308 15.0556C98.8594 14.1969 98.4237 13.0681 98.4237 11.6718C98.4237 10.2755 98.8416 9.18114 99.676 8.31482C100.511 7.44976 101.564 7.0166 102.838 7.0166C104.112 7.0166 105.224 7.44085 106.028 8.28679C106.832 9.134 107.233 10.2246 107.233 11.5597L107.232 11.5623ZM104.376 9.38371C104.005 9.05629 103.529 8.89194 102.948 8.89194C102.367 8.89194 101.869 9.05246 101.455 9.37351C101.041 9.69456 100.759 10.1468 100.611 10.7278H105.136C105 10.1596 104.747 9.71113 104.376 9.38371Z" fill="#20CE65"/>
<path d="M17.7421 5.62156V14.1829C17.7421 14.6543 17.4873 15.1002 17.0796 15.3295L10.888 18.9095L9.66491 19.6229C9.25723 19.865 8.74763 19.865 8.32721 19.6229L7.1169 18.9222L0.912484 15.3308C0.504801 15.1014 0.25 14.6555 0.25 14.1842V5.62156C0.25 5.15017 0.504801 4.70427 0.912484 4.46221L8.32721 0.181546C8.73489 -0.0605153 9.24449 -0.0605153 9.65217 0.181546L17.0796 4.46221C17.4873 4.70427 17.7421 5.13743 17.7421 5.62156Z" fill="#20CE65"/>
<path d="M11.9416 15.0734H4.44912V15.9245H11.9416V15.0734Z" fill="white"/>
<path d="M9.54388 8.21924H6.91815C6.68246 8.21924 6.49263 8.41034 6.49263 8.64476C6.49263 8.87917 6.68373 9.07028 6.91815 9.07028H9.54388C9.77957 9.07028 9.9694 8.87917 9.9694 8.64476C9.9694 8.41034 9.77829 8.21924 9.54388 8.21924Z" fill="white"/>
<path d="M11.5301 10.2067H6.91815C6.68246 10.2067 6.49263 10.3978 6.49263 10.6322C6.49263 10.8666 6.68373 11.0577 6.91815 11.0577H11.5301C11.7657 11.0577 11.9556 10.8666 11.9556 10.6322C11.9556 10.3978 11.7645 10.2067 11.5301 10.2067Z" fill="white"/>
<path d="M13.8195 4.46858C13.6666 4.39979 13.4882 4.42654 13.3621 4.53738L12.1696 5.59226L10.9759 4.52464C10.8141 4.3794 10.5695 4.3794 10.4077 4.52464L9.21519 5.59098L8.02272 4.52464C7.86092 4.3794 7.61631 4.3794 7.45578 4.52464L6.26204 5.59226L5.06957 4.53738C4.94472 4.42654 4.76508 4.39979 4.6122 4.46858C4.45932 4.53738 4.36122 4.68899 4.36122 4.85715V12.4349H2.91395C2.67826 12.4349 2.48843 12.6261 2.48843 12.8605V13.8962C2.48843 15.0148 3.39935 15.9257 4.51792 15.9257V15.0747C3.86818 15.0747 3.34074 14.546 3.34074 13.8975V13.2873H10.0102V13.8975C10.0102 15.0161 10.9211 15.927 12.0397 15.927C13.1582 15.927 14.0692 15.0161 14.0692 13.8975V4.85715C14.0692 4.69026 13.9711 4.53738 13.8182 4.46858H13.8195ZM13.2194 13.8962C13.2194 14.546 12.6907 15.0734 12.0422 15.0734C11.3937 15.0734 10.865 14.5447 10.865 13.8962V12.8605C10.865 12.6248 10.6739 12.4349 10.4395 12.4349H5.21735V5.80247L5.98558 6.48151C6.14738 6.6242 6.39071 6.6242 6.55124 6.48024L7.74371 5.4139L8.93618 6.48024C9.09798 6.62548 9.34259 6.62548 9.50439 6.48024L10.6969 5.4139L11.8893 6.48024C12.0499 6.6242 12.2932 6.6242 12.455 6.48151L13.2232 5.80247V13.8962H13.2194Z" fill="white"/>
</svg>
