<svg width="108" height="20" viewBox="0 0 108 20" fill="none" xmlns="http://www.w3.org/2000/svg">
<g clip-path="url(#clip0_1309_323)">
<path d="M23.5337 5.4049C23.256 5.67754 22.9248 5.81259 22.5413 5.81259C22.1578 5.81259 21.8304 5.67627 21.559 5.4049C21.2864 5.13354 21.1514 4.80485 21.1514 4.42264C21.1514 4.04044 21.2877 3.73086 21.559 3.45822C21.8304 3.18686 22.1591 3.05054 22.5413 3.05054C22.9235 3.05054 23.2547 3.18686 23.5337 3.45822C23.8115 3.73086 23.9503 4.05191 23.9503 4.42264C23.9503 4.79338 23.8115 5.13354 23.5337 5.4049ZM21.503 16.197V7.14902H23.5796V16.1983H21.503V16.197Z" fill="#131A2A"/>
<path d="M30.8121 7.01904C31.8504 7.01904 32.6632 7.33372 33.2505 7.96436C33.8378 8.59499 34.1308 9.56578 34.1308 10.8755V16.1983H32.0542V11.4144C32.0542 10.4996 31.8899 9.85116 31.5624 9.46769C31.235 9.08421 30.7433 8.89311 30.0884 8.89311C29.3711 8.89311 28.8029 9.1339 28.3825 9.61675C27.9621 10.0983 27.7519 10.7786 27.7519 11.6564V16.1995H25.6753V7.14899H27.7519V8.41026H27.771C28.5494 7.48278 29.5635 7.01904 30.8121 7.01904Z" fill="#131A2A"/>
<path d="M41.5496 7.14917H43.7753L40.1966 16.1985H38.213L34.6152 7.14917H36.8217L39.1888 13.6046H39.208L41.5509 7.14917H41.5496Z" fill="#131A2A"/>
<path d="M48.41 16.346C47.001 16.346 45.8569 15.9078 44.9791 15.03C44.1013 14.1522 43.6631 13.04 43.6631 11.6921C43.6631 10.3442 44.1013 9.22945 44.9791 8.34529C45.8569 7.46112 47.001 7.01904 48.41 7.01904C49.8191 7.01904 50.9478 7.45221 51.832 8.31726C52.7162 9.18231 53.1582 10.3072 53.1582 11.6921C53.1582 13.0769 52.7162 14.1841 51.832 15.0491C50.9478 15.9142 49.8076 16.3473 48.41 16.3473V16.346ZM48.41 14.4541C49.1515 14.4541 49.7757 14.1942 50.2828 13.6757C50.7899 13.1559 51.0434 12.4947 51.0434 11.6908C51.0434 10.8869 50.7937 10.1888 50.2917 9.66898C49.791 9.14918 49.1629 8.89056 48.41 8.89056C47.6571 8.89056 46.9971 9.15683 46.5092 9.68809C46.0212 10.2193 45.7766 10.8869 45.7766 11.6908C45.7766 12.4947 46.0238 13.1254 46.5181 13.6566C47.0124 14.1879 47.6431 14.4541 48.41 14.4541Z" fill="#131A2A"/>
<path d="M56.7457 5.4049C56.468 5.67754 56.1368 5.81259 55.7533 5.81259C55.3698 5.81259 55.0424 5.67627 54.771 5.4049C54.4984 5.13354 54.3633 4.80485 54.3633 4.42264C54.3633 4.04044 54.4997 3.73086 54.771 3.45822C55.0424 3.18686 55.3711 3.05054 55.7533 3.05054C56.1355 3.05054 56.4667 3.18686 56.7457 3.45822C57.0235 3.73086 57.1623 4.05191 57.1623 4.42264C57.1623 4.79338 57.0235 5.13354 56.7457 5.4049ZM54.715 16.197V7.14902H56.7916V16.1983H54.715V16.197Z" fill="#131A2A"/>
<path d="M62.9666 16.3461C61.6187 16.3461 60.5129 15.9129 59.6478 15.0478C58.7828 14.1828 58.3496 13.0629 58.3496 11.6908C58.3496 10.3187 58.7879 9.18109 59.6657 8.31604C60.5435 7.45099 61.6684 7.01782 63.0405 7.01782C63.7692 7.01782 64.475 7.16306 65.1541 7.45353C65.8344 7.74401 66.3962 8.16188 66.8421 8.70588L65.4331 9.9302C64.8394 9.23842 64.0788 8.89189 63.1526 8.89189C62.3487 8.89189 61.7003 9.14796 61.2059 9.66139C60.7116 10.1748 60.4645 10.8449 60.4645 11.673C60.4645 12.5011 60.7116 13.1725 61.2059 13.6847C61.7003 14.1981 62.3487 14.4542 63.1526 14.4542C64.0916 14.4542 64.8585 14.1331 65.4522 13.4897L66.8804 14.751C66.4727 15.2211 65.9249 15.6046 65.2394 15.9002C64.554 16.197 63.796 16.3448 62.9679 16.3448L62.9666 16.3461Z" fill="#131A2A"/>
<path d="M76.2816 11.5623C76.2816 11.7852 76.2625 12.0629 76.2255 12.3967H69.6236C69.7599 13.0401 70.0568 13.5433 70.5141 13.9077C70.9715 14.2721 71.5346 14.4543 72.2022 14.4543C73.1411 14.4543 73.8954 14.1014 74.4648 13.3968L75.9108 14.639C75.033 15.7767 73.7603 16.3449 72.0901 16.3449C70.7549 16.3449 69.6516 15.9155 68.7802 15.0556C67.9088 14.1969 67.4731 13.0681 67.4731 11.6718C67.4731 10.2755 67.891 9.18114 68.7254 8.31482C69.5599 7.44976 70.6135 7.0166 71.8875 7.0166C73.1615 7.0166 74.2737 7.44085 75.0776 8.28679C75.8815 9.134 76.2828 10.2246 76.2828 11.5597L76.2816 11.5623ZM73.4252 9.38371C73.0545 9.05629 72.578 8.89194 71.9971 8.89194C71.4161 8.89194 70.918 9.05246 70.5039 9.37351C70.0899 9.69456 69.8083 10.1468 69.6606 10.7278H74.1858C74.0495 10.1596 73.796 9.71113 73.4252 9.38371Z" fill="#20CE65"/>
<path d="M84.4223 2.55005H86.4811V16.1985H84.4974V14.9933H84.4605C83.7674 15.8953 82.7915 16.3462 81.5303 16.3462C80.269 16.3462 79.2065 15.9195 78.3784 15.0671C77.5503 14.2136 77.1362 13.095 77.1362 11.7101C77.1362 10.3253 77.5541 9.22839 78.3886 8.34423C79.223 7.46007 80.2639 7.01799 81.5137 7.01799C82.7635 7.01799 83.6833 7.42567 84.3879 8.24231H84.4248V2.55005H84.4223ZM79.9811 13.695C80.469 14.2021 81.0907 14.4556 81.845 14.4556C82.5992 14.4556 83.2298 14.2021 83.7369 13.695C84.2439 13.188 84.4974 12.5331 84.4974 11.7292C84.4974 10.9253 84.2503 10.2361 83.756 9.6985C83.2617 9.16087 82.631 8.89205 81.8641 8.89205C81.0971 8.89205 80.5009 9.15195 80.0002 9.67047C79.4995 10.1902 79.2485 10.8757 79.2485 11.7292C79.2485 12.5331 79.4931 13.188 79.9811 13.695Z" fill="#20CE65"/>
<path d="M95.0299 7.14906H97.1065V15.2709C97.1065 16.7296 96.7358 17.8826 95.9943 18.7298C95.2528 19.577 94.0845 20 92.4895 20C91.0804 20 89.8497 19.6853 88.7987 19.0547L89.2994 17.238C89.8803 17.5463 90.3899 17.773 90.8295 17.9145C91.2677 18.0559 91.7849 18.1272 92.3773 18.1272C93.2309 18.1272 93.8922 17.9144 94.361 17.4877C94.8311 17.0609 95.0655 16.5322 95.0655 15.9015V14.9371H95.0464C94.3292 15.6786 93.408 16.0493 92.2831 16.0493C91.0091 16.0493 89.9555 15.6353 89.121 14.8071C88.2865 13.979 87.8687 12.9038 87.8687 11.5801C87.8687 10.2564 88.2738 9.16326 89.0828 8.29821C89.8918 7.43316 90.9212 7 92.171 7C93.3087 7 94.2476 7.37074 94.9891 8.11221H95.026V7.14779L95.0299 7.14906ZM92.5634 14.1408C93.3176 14.1408 93.9329 13.8911 94.4081 13.3905C94.8833 12.8898 95.1216 12.2566 95.1216 11.4896C95.1216 10.7227 94.877 10.1175 94.389 9.63465C93.9011 9.15307 93.292 8.91101 92.562 8.91101C91.7951 8.91101 91.1747 9.15562 90.6982 9.64357C90.2218 10.1315 89.9848 10.7596 89.9848 11.5253C89.9848 12.291 90.2294 12.9509 90.7173 13.4261C91.2053 13.9026 91.8205 14.1396 92.562 14.1396L92.5634 14.1408Z" fill="#20CE65"/>
<path d="M107.232 11.5623C107.232 11.7852 107.213 12.0629 107.176 12.3967H100.574C100.711 13.0401 101.007 13.5433 101.465 13.9077C101.922 14.2721 102.485 14.4543 103.153 14.4543C104.092 14.4543 104.846 14.1014 105.415 13.3968L106.861 14.639C105.984 15.7767 104.711 16.3449 103.041 16.3449C101.706 16.3449 100.602 15.9155 99.7309 15.0556C98.8595 14.1969 98.4238 13.0681 98.4238 11.6718C98.4238 10.2755 98.8417 9.18114 99.6761 8.31482C100.511 7.44976 101.564 7.0166 102.838 7.0166C104.112 7.0166 105.224 7.44085 106.028 8.28679C106.832 9.134 107.233 10.2246 107.233 11.5597L107.232 11.5623ZM104.376 9.38371C104.005 9.05629 103.529 8.89194 102.948 8.89194C102.367 8.89194 101.869 9.05246 101.455 9.37351C101.041 9.69456 100.759 10.1468 100.611 10.7278H105.136C105 10.1596 104.747 9.71113 104.376 9.38371Z" fill="#20CE65"/>
<path d="M17.7421 5.62156V14.1829C17.7421 14.6543 17.4873 15.1002 17.0796 15.3295L10.888 18.9095L9.66491 19.6229C9.25723 19.865 8.74763 19.865 8.32721 19.6229L7.1169 18.9222L0.912484 15.3308C0.504801 15.1014 0.25 14.6555 0.25 14.1842V5.62156C0.25 5.15017 0.504801 4.70427 0.912484 4.46221L8.32721 0.181546C8.73489 -0.0605153 9.24449 -0.0605153 9.65217 0.181546L17.0796 4.46221C17.4873 4.70427 17.7421 5.13743 17.7421 5.62156Z" fill="#20CE65"/>
<path d="M11.9417 15.0735H4.44922V15.9246H11.9417V15.0735Z" fill="white"/>
<path d="M9.54393 8.21924H6.9182C6.68251 8.21924 6.49268 8.41034 6.49268 8.64476C6.49268 8.87917 6.68378 9.07028 6.9182 9.07028H9.54393C9.77962 9.07028 9.96945 8.87917 9.96945 8.64476C9.96945 8.41034 9.77834 8.21924 9.54393 8.21924Z" fill="white"/>
<path d="M11.5301 10.2068H6.9182C6.68251 10.2068 6.49268 10.3979 6.49268 10.6323C6.49268 10.8667 6.68378 11.0578 6.9182 11.0578H11.5301C11.7657 11.0578 11.9556 10.8667 11.9556 10.6323C11.9556 10.3979 11.7645 10.2068 11.5301 10.2068Z" fill="white"/>
<path d="M13.8194 4.46864C13.6665 4.39985 13.4881 4.4266 13.362 4.53744L12.1695 5.59232L10.9758 4.5247C10.814 4.37946 10.5694 4.37946 10.4076 4.5247L9.21504 5.59104L8.02257 4.5247C7.86077 4.37946 7.61616 4.37946 7.45563 4.5247L6.26189 5.59232L5.06942 4.53744C4.94457 4.4266 4.76493 4.39985 4.61205 4.46864C4.45917 4.53744 4.36107 4.68905 4.36107 4.85721V12.435H2.9138C2.67811 12.435 2.48828 12.6262 2.48828 12.8606V13.8963C2.48828 15.0149 3.3992 15.9258 4.51777 15.9258V15.0748C3.86803 15.0748 3.34059 14.5461 3.34059 13.8976V13.2874H10.0101V13.8976C10.0101 15.0162 10.921 15.9271 12.0396 15.9271C13.1581 15.9271 14.0691 15.0162 14.0691 13.8976V4.85721C14.0691 4.69032 13.971 4.53744 13.8181 4.46864H13.8194ZM13.2193 13.8963C13.2193 14.5461 12.6906 15.0735 12.0421 15.0735C11.3936 15.0735 10.8649 14.5448 10.8649 13.8963V12.8606C10.8649 12.6249 10.6738 12.435 10.4394 12.435H5.2172V5.80253L5.98543 6.48157C6.14723 6.62426 6.39056 6.62426 6.55109 6.4803L7.74356 5.41396L8.93603 6.4803C9.09783 6.62554 9.34244 6.62554 9.50424 6.4803L10.6968 5.41396L11.8892 6.4803C12.0498 6.62426 12.2931 6.62426 12.4549 6.48157L13.2231 5.80253V13.8963H13.2193Z" fill="white"/>
</g>
<defs>
<clipPath id="clip0_1309_323">
<rect width="108" height="20" fill="white"/>
</clipPath>
</defs>
</svg>
