<svg width="31" height="31" viewBox="0 0 31 31" fill="none" xmlns="http://www.w3.org/2000/svg">
<path fill-rule="evenodd" clip-rule="evenodd" d="M12.279 6.31888C12.0268 6.39875 11.7778 6.48953 11.5327 6.59108C10.4104 7.05593 9.39071 7.73728 8.53177 8.59622C7.67283 9.45517 6.99148 10.4749 6.52662 11.5971C6.15771 12.4878 5.93088 13.4292 5.85296 14.387H10.3334C10.3654 13.2911 10.4675 12.2111 10.6371 11.1875C10.845 9.93255 11.1522 8.7761 11.5477 7.78735C11.7637 7.24753 12.0076 6.75338 12.279 6.31888ZM15.0725 4.38696C13.6608 4.38696 12.2629 4.66502 10.9587 5.20526C9.65441 5.7455 8.46934 6.53733 7.47111 7.53556C6.47288 8.53379 5.68104 9.71886 5.14081 11.0231C4.60057 12.3274 4.32251 13.7253 4.32251 15.137C4.32251 16.5487 4.60057 17.9466 5.1408 19.2508C5.68104 20.5551 6.47288 21.7401 7.47111 22.7384C8.46934 23.7366 9.65441 24.5284 10.9587 25.0687C12.2629 25.6089 13.6608 25.887 15.0725 25.887C16.4842 25.887 17.8821 25.6089 19.1864 25.0687C20.4906 24.5284 21.6757 23.7366 22.6739 22.7384C23.6721 21.7401 24.464 20.5551 25.0042 19.2508C25.5445 17.9466 25.8225 16.5487 25.8225 15.137C25.8225 13.7253 25.5445 12.3274 25.0042 11.0231C24.464 9.71887 23.6721 8.5338 22.6739 7.53557C21.6757 6.53734 20.4906 5.7455 19.1864 5.20526C17.8821 4.66502 16.4842 4.38696 15.0725 4.38696ZM15.0725 5.88696C14.8113 5.88696 14.4737 6.01275 14.0813 6.41916C13.6859 6.82857 13.2901 7.47022 12.9404 8.34444C12.5931 9.21286 12.311 10.2612 12.1169 11.4327C11.9612 12.3727 11.8657 13.3701 11.8341 14.387L18.3109 14.387C18.2793 13.3701 18.1838 12.3727 18.0281 11.4327C17.834 10.2612 17.5519 9.21286 17.2046 8.34444C16.8549 7.47022 16.4591 6.82857 16.0637 6.41916C15.6713 6.01275 15.3338 5.88696 15.0725 5.88696ZM19.8116 14.387C19.7796 13.2911 19.6775 12.2111 19.5079 11.1875C19.3 9.93255 18.9928 8.7761 18.5973 7.78735C18.3814 7.24753 18.1374 6.75338 17.866 6.31888C18.1182 6.39875 18.3672 6.48953 18.6123 6.59108C19.7346 7.05593 20.7543 7.73728 21.6132 8.59623C22.4722 9.45517 23.1535 10.4749 23.6184 11.5971C23.9873 12.4878 24.2141 13.4292 24.2921 14.387H19.8116ZM18.3109 15.887L11.8341 15.887C11.8657 16.9038 11.9612 17.9013 12.1169 18.8412C12.311 20.0127 12.5931 21.0611 12.9404 21.9295C13.2901 22.8037 13.6859 23.4454 14.0813 23.8548C14.4737 24.2612 14.8113 24.387 15.0725 24.387C15.3338 24.387 15.6713 24.2612 16.0637 23.8548C16.4591 23.4454 16.8549 22.8037 17.2046 21.9295C17.5519 21.0611 17.834 20.0127 18.0281 18.8412C18.1838 17.9013 18.2793 16.9038 18.3109 15.887ZM17.8661 23.955C18.1374 23.5205 18.3814 23.0264 18.5973 22.4866C18.9928 21.4978 19.3 20.3414 19.5079 19.0864C19.6775 18.0629 19.7796 16.9829 19.8116 15.887H24.2921C24.2141 16.8448 23.9873 17.7861 23.6184 18.6768C23.1535 19.799 22.4722 20.8188 21.6132 21.6777C20.7543 22.5366 19.7346 23.218 18.6123 23.6828C18.3672 23.7844 18.1182 23.8752 17.8661 23.955ZM12.279 23.955C12.0076 23.5205 11.7637 23.0264 11.5477 22.4866C11.1522 21.4978 10.845 20.3414 10.6371 19.0864C10.4675 18.0629 10.3654 16.9829 10.3334 15.887H5.85296C5.93088 16.8448 6.15771 17.7861 6.52662 18.6768C6.99148 19.799 7.67283 20.8188 8.53177 21.6777C9.39071 22.5366 10.4104 23.218 11.5327 23.6828C11.7778 23.7844 12.0268 23.8752 12.279 23.955Z" fill="white"/>
</svg>
