<svg width="31" height="31" viewBox="0 0 31 31" fill="none" xmlns="http://www.w3.org/2000/svg">
<path fill-rule="evenodd" clip-rule="evenodd" d="M8.53076 13.5632V11.5085C8.53076 7.78062 11.5528 4.75854 15.2808 4.75854C19.0087 4.75854 22.0308 7.78062 22.0308 11.5085V13.5632C23.1455 13.6464 23.8715 13.8566 24.4021 14.3872C25.2808 15.2659 25.2808 16.6801 25.2808 19.5085C25.2808 22.337 25.2808 23.7512 24.4021 24.6299C23.5234 25.5085 22.1092 25.5085 19.2808 25.5085H11.2808C8.45233 25.5085 7.03812 25.5085 6.15944 24.6299C5.28076 23.7512 5.28076 22.337 5.28076 19.5085C5.28076 16.6801 5.28076 15.2659 6.15944 14.3872C6.69007 13.8566 7.41601 13.6464 8.53076 13.5632ZM10.0308 11.5085C10.0308 8.60905 12.3813 6.25854 15.2808 6.25854C18.1803 6.25854 20.5308 8.60905 20.5308 11.5085V13.5121C20.1478 13.5085 19.7323 13.5085 19.2808 13.5085H11.2808C10.8292 13.5085 10.4138 13.5085 10.0308 13.5121V11.5085ZM15.2808 16.7585C15.695 16.7585 16.0308 17.0943 16.0308 17.5085V21.5085C16.0308 21.9228 15.695 22.2585 15.2808 22.2585C14.8665 22.2585 14.5308 21.9228 14.5308 21.5085V17.5085C14.5308 17.0943 14.8665 16.7585 15.2808 16.7585Z" fill="#4A90E2"/>
</svg>
