<svg width="30" height="30" viewBox="0 0 30 30" fill="none" xmlns="http://www.w3.org/2000/svg">
<path d="M24.27 12.1752C23.98 11.7152 23.67 11.2852 23.35 10.8852C22.98 10.4152 22.28 10.3752 21.86 10.7952L18.86 13.7952C19.08 14.4552 19.12 15.2152 18.92 16.0052C18.57 17.4152 17.43 18.5552 16.02 18.9052C15.23 19.1052 14.47 19.0652 13.81 18.8452C13.81 18.8452 12.38 20.2752 11.35 21.3052C10.85 21.8052 11.01 22.6852 11.68 22.9452C12.75 23.3552 13.86 23.5652 15 23.5652C16.78 23.5652 18.51 23.0452 20.09 22.0752C21.7 21.0752 23.15 19.6051 24.32 17.7351C25.27 16.2251 25.22 13.6852 24.27 12.1752Z" fill="#4A5568"/>
<path d="M17.02 12.975L12.98 17.015C12.47 16.495 12.14 15.775 12.14 14.995C12.14 13.425 13.42 12.135 15 12.135C15.78 12.135 16.5 12.465 17.02 12.975Z" fill="#4A5568"/>
<path d="M21.25 8.74505L17.86 12.135C17.13 11.395 16.12 10.955 15 10.955C12.76 10.955 10.96 12.765 10.96 14.9951C10.96 16.1151 11.41 17.1251 12.14 17.8551L8.76 21.2451H8.75C7.64 20.3451 6.62 19.1951 5.75 17.8351C4.75 16.2651 4.75 13.7151 5.75 12.145C6.91 10.325 8.33 8.89505 9.91 7.91505C11.49 6.95505 13.22 6.42505 15 6.42505C17.23 6.42505 19.39 7.24505 21.25 8.74505Z" fill="#4A5568"/>
<path d="M17.86 14.9952C17.86 16.5652 16.58 17.8552 15 17.8552C14.94 17.8552 14.89 17.8552 14.83 17.8352L17.84 14.8252C17.86 14.8852 17.86 14.9352 17.86 14.9952Z" fill="#4A5568"/>
<path d="M24.77 5.225C24.47 4.925 23.98 4.925 23.68 5.225L5.23 23.685C4.93 23.985 4.93 24.475 5.23 24.775C5.38 24.915 5.57 24.995 5.77 24.995C5.97 24.995 6.16 24.915 6.31 24.765L24.77 6.305C25.08 6.005 25.08 5.525 24.77 5.225Z" fill="#4A5568"/>
</svg>
