<svg width="55" height="20" viewBox="0 0 55 20" fill="none" xmlns="http://www.w3.org/2000/svg">
<g clip-path="url(#clip0_657_138)">
<path d="M24.9494 16.6245C24.1947 16.6245 23.6044 16.3801 23.1785 15.895C22.7527 15.4062 22.5397 14.6879 22.5397 13.7366V9.4723H21.4749V7.77634H22.5397V4.88838L24.5235 4.67404V7.77634H27.0565V9.4723H24.5235V13.5372C24.5235 13.9772 24.587 14.2893 24.7178 14.4736C24.8485 14.6578 25.0615 14.7518 25.3566 14.7518C25.7452 14.7518 26.1711 14.6277 26.6343 14.3758L27.1499 16.1056C26.5222 16.4515 25.79 16.6245 24.9531 16.6245H24.9494Z" fill="white"/>
<path d="M35.6343 12.0218C35.6343 12.2362 35.6157 12.5032 35.582 12.8228H29.2719C29.4027 13.4395 29.6866 13.9246 30.1237 14.2781C30.5608 14.6278 31.0988 14.8045 31.7377 14.8045C32.6343 14.8045 33.3554 14.4661 33.9008 13.7892L35.2831 14.985C34.4425 16.0793 33.2283 16.6245 31.6331 16.6245C30.3554 16.6245 29.3018 16.2109 28.4687 15.3836C27.6356 14.5563 27.2209 13.4733 27.2209 12.1271C27.2209 10.7809 27.6206 9.73176 28.4164 8.89695C29.2122 8.06593 30.2209 7.64853 31.4388 7.64853C32.6567 7.64853 33.7177 8.05466 34.4874 8.87066C35.257 9.68666 35.638 10.7358 35.638 12.0181L35.6343 12.0218ZM32.9033 9.92729C32.5484 9.61142 32.0926 9.45351 31.5397 9.45351C30.9868 9.45351 30.5085 9.60768 30.1125 9.91602C29.7165 10.2244 29.4475 10.6606 29.3056 11.2171H33.6281C33.4973 10.6718 33.2545 10.2394 32.9033 9.92355V9.92729Z" fill="white"/>
<path d="M37.1063 16.4816V3.35037H39.0902V16.4778H37.1063V16.4816Z" fill="white"/>
<path d="M43.6255 16.6245C42.8672 16.6245 42.2769 16.3801 41.8548 15.895C41.4289 15.4062 41.2159 14.6879 41.2159 13.7366V9.4723H40.1512V7.77634H41.2159V4.88838L43.1996 4.67404V7.77634H45.7328V9.4723H43.1996V13.5372C43.1996 13.9772 43.2634 14.2893 43.394 14.4736C43.5247 14.6578 43.7379 14.7518 44.0328 14.7518C44.4213 14.7518 44.8472 14.6277 45.3106 14.3758L45.826 16.1056C45.1983 16.4515 44.4664 16.6245 43.6294 16.6245H43.6255Z" fill="white"/>
<path d="M50.4328 16.6245C49.0838 16.6245 47.9932 16.2033 47.1523 15.3572C46.3119 14.5111 45.8932 13.4432 45.8932 12.1459C45.8932 10.8485 46.3119 9.77685 47.1523 8.92702C47.9932 8.07719 49.0838 7.65225 50.4328 7.65225C51.7813 7.65225 52.8574 8.06966 53.7017 8.90068C54.546 9.73174 54.9681 10.8147 54.9681 12.1459C54.9681 13.4771 54.546 14.5412 53.7017 15.376C52.8574 16.2071 51.7664 16.6245 50.4328 16.6245ZM50.4328 14.8045C51.1425 14.8045 51.7366 14.5563 52.2221 14.0562C52.7077 13.556 52.9468 12.9205 52.9468 12.1459C52.9468 11.3713 52.7077 10.7019 52.2298 10.2018C51.7515 9.70166 51.1498 9.45349 50.4328 9.45349C49.7153 9.45349 49.0838 9.70919 48.617 10.2206C48.1498 10.732 47.9183 11.375 47.9183 12.1459C47.9183 12.9168 48.1536 13.526 48.6281 14.0374C49.0987 14.5488 49.7043 14.8045 50.4362 14.8045H50.4328Z" fill="white"/>
<path d="M17.8778 5.677V14.1502C17.8778 14.6179 17.6269 15.0527 17.2227 15.2912L11.1367 18.8264L9.93342 19.5278C9.52925 19.7616 9.03215 19.7616 8.62329 19.5278L7.43861 18.8404L1.33399 15.2912C0.9298 15.0574 0.678925 14.6225 0.678925 14.1502V5.677C0.678925 5.20939 0.9298 4.76986 1.33399 4.53603L8.62329 0.30411C9.02751 0.0703016 9.52925 0.0703016 9.93342 0.30411L17.2227 4.54071C17.6269 4.77454 17.8778 5.21407 17.8778 5.68169V5.677Z" fill="#683CC5"/>
<path d="M14.031 8.84284C14.031 9.41335 13.938 9.95109 13.7522 10.4421C13.6221 10.8208 13.4502 11.1762 13.2365 11.5129C12.7301 12.2751 11.9868 12.8924 11.1366 13.2618V18.8265L9.93335 19.5279C9.52914 19.7617 9.03203 19.7617 8.62322 19.5279L7.4385 18.8405V13.2618C6.57905 12.8924 5.84965 12.2751 5.32931 11.5129C5.10633 11.1809 4.93442 10.8255 4.79969 10.4421C4.61385 9.94641 4.52094 9.40867 4.52094 8.84284C4.52094 8.43603 4.57668 8.03386 4.67889 7.65509C4.87403 6.84611 5.28748 6.1213 5.84501 5.54147V8.98313L8.36769 10.4421L9.28293 10.9705L10.1982 10.4421L12.7115 8.98313V5.54147C13.2691 6.11662 13.6779 6.84143 13.8684 7.65509C13.9799 8.03386 14.0263 8.43603 14.0263 8.84284H14.031Z" fill="white"/>
<path d="M11.5779 5.7192V8.3846L9.2875 9.72664L6.98779 8.3846V5.7192L8.25613 4.98971L9.2875 4.38647L10.3096 4.98035L11.5779 5.7192Z" fill="white"/>
</g>
<defs>
<clipPath id="clip0_657_138">
<rect width="54.4681" height="20" fill="white" transform="translate(0.5)"/>
</clipPath>
</defs>
</svg>
