<svg width="56" height="21" viewBox="0 0 56 21" fill="none" xmlns="http://www.w3.org/2000/svg">
<g clip-path="url(#clip0_1309_339)">
<mask id="mask0_1309_339" style="mask-type:luminance" maskUnits="userSpaceOnUse" x="1" y="0" width="55" height="21">
<path d="M55.4681 0.5H1V20.5H55.4681V0.5Z" fill="white"/>
</mask>
<g mask="url(#mask0_1309_339)">
<path d="M25.4491 17.1245C24.6944 17.1245 24.1041 16.8801 23.6782 16.395C23.2524 15.9062 23.0394 15.1879 23.0394 14.2366V9.97233H21.9746V8.27637H23.0394V5.38841L25.0232 5.17407V8.27637H27.5562V9.97233H25.0232V14.0372C25.0232 14.4772 25.0867 14.7893 25.2175 14.9736C25.3482 15.1578 25.5612 15.2518 25.8563 15.2518C26.2449 15.2518 26.6708 15.1277 27.134 14.8758L27.6496 16.6056C27.0219 16.9515 26.2897 17.1245 25.4528 17.1245H25.4491Z" fill="#131A2A"/>
<path d="M36.1341 12.5218C36.1341 12.7362 36.1155 13.0032 36.0818 13.3228H29.7717C29.9025 13.9395 30.1864 14.4246 30.6235 14.7781C31.0606 15.1278 31.5986 15.3045 32.2375 15.3045C33.1341 15.3045 33.8552 14.9661 34.4006 14.2892L35.7829 15.485C34.9423 16.5793 33.7281 17.1245 32.1329 17.1245C30.8552 17.1245 29.8016 16.7109 28.9685 15.8836C28.1354 15.0563 27.7207 13.9733 27.7207 12.6271C27.7207 11.2809 28.1204 10.2318 28.9162 9.39698C29.712 8.56596 30.7207 8.14856 31.9386 8.14856C33.1565 8.14856 34.2175 8.55469 34.9872 9.37069C35.7568 10.1867 36.1378 11.2358 36.1378 12.5181L36.1341 12.5218ZM33.4031 10.4273C33.0482 10.1114 32.5924 9.95354 32.0395 9.95354C31.4866 9.95354 31.0083 10.1077 30.6123 10.416C30.2163 10.7244 29.9473 11.1606 29.8054 11.7171H34.1279C33.9971 11.1718 33.7543 10.7394 33.4031 10.4236V10.4273Z" fill="#131A2A"/>
<path d="M37.606 16.9816V3.85034H39.5899V16.9778H37.606V16.9816Z" fill="#131A2A"/>
<path d="M44.1252 17.1245C43.3669 17.1245 42.7766 16.8801 42.3545 16.395C41.9286 15.9062 41.7156 15.1879 41.7156 14.2366V9.97233H40.6509V8.27637H41.7156V5.38841L43.6993 5.17407V8.27637H46.2325V9.97233H43.6993V14.0372C43.6993 14.4772 43.7631 14.7893 43.8937 14.9736C44.0244 15.1578 44.2376 15.2518 44.5325 15.2518C44.921 15.2518 45.3469 15.1277 45.8103 14.8758L46.3257 16.6056C45.698 16.9515 44.9661 17.1245 44.1291 17.1245H44.1252Z" fill="#131A2A"/>
<path d="M50.9327 17.1245C49.5837 17.1245 48.4931 16.7033 47.6522 15.8572C46.8118 15.0111 46.3931 13.9432 46.3931 12.6459C46.3931 11.3485 46.8118 10.2768 47.6522 9.42699C48.4931 8.57716 49.5837 8.15222 50.9327 8.15222C52.2812 8.15222 53.3573 8.56963 54.2016 9.40065C55.0459 10.2317 55.468 11.3147 55.468 12.6459C55.468 13.9771 55.0459 15.0412 54.2016 15.876C53.3573 16.7071 52.2663 17.1245 50.9327 17.1245ZM50.9327 15.3045C51.6424 15.3045 52.2365 15.0563 52.722 14.5562C53.2076 14.056 53.4467 13.4205 53.4467 12.6459C53.4467 11.8713 53.2076 11.2019 52.7297 10.7018C52.2514 10.2016 51.6497 9.95346 50.9327 9.95346C50.2152 9.95346 49.5837 10.2092 49.1169 10.7206C48.6497 11.232 48.4182 11.875 48.4182 12.6459C48.4182 13.4168 48.6535 14.026 49.128 14.5374C49.5986 15.0488 50.2042 15.3045 50.9361 15.3045H50.9327Z" fill="#131A2A"/>
<path d="M18.3776 6.17703V14.6502C18.3776 15.1179 18.1267 15.5527 17.7225 15.7912L11.6365 19.3264L10.4332 20.0278C10.029 20.2616 9.53194 20.2616 9.12308 20.0278L7.9384 19.3404L1.83378 15.7912C1.42959 15.5574 1.17871 15.1225 1.17871 14.6502V6.17703C1.17871 5.70942 1.42959 5.26989 1.83378 5.03606L9.12308 0.80414C9.5273 0.570332 10.029 0.570332 10.4332 0.80414L17.7225 5.04074C18.1267 5.27457 18.3776 5.7141 18.3776 6.18172V6.17703Z" fill="#683CC5"/>
<path d="M14.5306 9.34287C14.5306 9.91338 14.4376 10.4511 14.2518 10.9421C14.1217 11.3208 13.9498 11.6762 13.7361 12.0129C13.2297 12.7751 12.4864 13.3924 11.6362 13.7618V19.3265L10.4329 20.0279C10.0287 20.2617 9.5316 20.2617 9.12279 20.0279L7.93807 19.3405V13.7618C7.07862 13.3924 6.34922 12.7751 5.82888 12.0129C5.6059 11.6809 5.43399 11.3255 5.29926 10.9421C5.11342 10.4464 5.02051 9.9087 5.02051 9.34287C5.02051 8.93606 5.07625 8.53389 5.17846 8.15512C5.3736 7.34614 5.78705 6.62133 6.34458 6.0415V9.48316L8.86726 10.9421L9.7825 11.4705L10.6978 10.9421L13.2111 9.48316V6.0415C13.7687 6.61665 14.1775 7.34146 14.368 8.15512C14.4795 8.53389 14.5259 8.93606 14.5259 9.34287H14.5306Z" fill="white"/>
<path d="M12.0779 6.2192V8.8846L9.7875 10.2266L7.48779 8.8846V6.2192L8.75613 5.48971L9.7875 4.88647L10.8096 5.48035L12.0779 6.2192Z" fill="white"/>
</g>
</g>
<defs>
<clipPath id="clip0_1309_339">
<rect width="55" height="20" fill="white" transform="translate(0.5 0.5)"/>
</clipPath>
</defs>
</svg>
