<svg width="146" height="35" viewBox="0 0 146 35" fill="none" xmlns="http://www.w3.org/2000/svg">
<g clip-path="url(#clip0_681_13)">
<path d="M43.1777 6.07728C43.9653 6.05629 44.7481 6.20441 45.4731 6.51159C46.1982 6.81877 46.8484 7.27782 47.3797 7.85757C48.4957 9.05923 49.0924 10.6503 49.0409 12.2869C49.0756 13.0906 48.9452 13.8929 48.6575 14.6446C48.3698 15.3962 47.931 16.0813 47.3679 16.6578C46.821 17.2067 46.1671 17.6382 45.4464 17.9257C44.7258 18.2131 43.9537 18.3504 43.1777 18.329C42.3926 18.3553 41.6124 18.1952 40.9016 17.862C40.1907 17.5287 39.5695 17.0319 39.0892 16.4123H39.0423V23.927H37.0879V6.0578H39.0657V8.0056H39.0892C39.5712 7.38722 40.1925 6.89049 40.9027 6.55552C41.6129 6.22054 42.3923 6.05672 43.1777 6.07728ZM42.9823 16.5097C43.5258 16.5298 44.0673 16.4343 44.5707 16.2294C45.0742 16.0245 45.5281 15.715 45.9021 15.3216C46.6594 14.4949 47.0621 13.4056 47.024 12.2869C47.0485 11.7079 46.9575 11.1298 46.7562 10.5862C46.5549 10.0425 46.2473 9.54406 45.8513 9.11975C44.8872 8.11468 43.6116 7.7394 42.0246 7.99392C41.633 8.05741 41.2621 8.21225 40.9419 8.44581C40.3209 8.87316 39.8169 9.44835 39.4756 10.1191C39.1343 10.7899 38.9665 11.5351 38.9875 12.2869C38.9679 12.8453 39.0616 13.402 39.2631 13.9235C39.4646 14.445 39.7697 14.9205 40.1602 15.3216C40.5234 15.7023 40.9614 16.0043 41.447 16.2087C41.9326 16.4132 42.4552 16.5156 42.9823 16.5097Z" fill="white"/>
<path d="M55.5451 6.07728C55.7096 6.07264 55.8742 6.08045 56.0376 6.10065V8.30946C55.678 8.2783 55.4122 8.26271 55.2558 8.26271C54.7527 8.24271 54.2517 8.33762 53.791 8.54017C53.3303 8.74273 52.9222 9.04757 52.5979 9.4314C51.9146 10.2772 51.5644 11.3423 51.6128 12.4271V18.3251H49.6155V6.0578H51.6128V8.33284H51.6363C52.0206 7.6383 52.5876 7.0613 53.2763 6.66388C53.965 6.26646 54.7494 6.06366 55.5451 6.07728Z" fill="white"/>
<path d="M62.7763 18.329C61.9582 18.3637 61.1417 18.2298 60.3779 17.9355C59.6142 17.6413 58.9196 17.1931 58.3377 16.6189C57.7557 16.0448 57.299 15.3572 56.996 14.599C56.6931 13.8408 56.5504 13.0285 56.577 12.2129C56.6032 10.9986 56.9827 9.81797 57.6693 8.81448C58.3559 7.811 59.32 7.02778 60.4447 6.55996C61.5694 6.09214 62.8061 5.95983 64.0048 6.17912C65.2035 6.3984 66.3124 6.95984 67.1971 7.79524C67.7777 8.37213 68.2325 9.06224 68.5331 9.82238C68.8338 10.5825 68.9738 11.3963 68.9443 12.2129C68.9748 13.0284 68.8353 13.8413 68.5345 14.6003C68.2338 15.3594 67.7784 16.048 67.1971 16.6227C66.6133 17.1889 65.9208 17.6318 65.1612 17.925C64.4016 18.2182 63.5904 18.3556 62.7763 18.329ZM62.7763 16.5097C63.324 16.5223 63.8684 16.4215 64.375 16.2136C64.8817 16.0058 65.3395 15.6954 65.7196 15.3021C66.1156 14.8945 66.4253 14.4116 66.6301 13.8822C66.8349 13.3528 66.9307 12.7877 66.9117 12.2207C66.9347 11.653 66.8427 11.0866 66.6412 10.5552C66.4397 10.0238 66.1329 9.53824 65.7391 9.12754C64.938 8.3493 63.8615 7.91699 62.7428 7.92429C61.6242 7.93158 60.5534 8.37788 59.7626 9.1665C58.982 9.99004 58.5604 11.0881 58.59 12.2207C58.5594 13.3545 58.981 14.4542 59.7626 15.2787C60.1488 15.6849 60.6172 16.0048 61.1367 16.217C61.6563 16.4292 62.2151 16.529 62.7763 16.5097Z" fill="white"/>
<path d="M34.2227 18.3485L30.9159 13.853H30.8065L27.5114 18.3485H25.1661L29.669 12.1584L25.1818 6.05784H27.5896L30.8495 10.53L34.0977 6.05005H36.5016L32.0377 12.1584L36.5524 18.3485H34.2227Z" fill="white"/>
<path d="M104.229 0.498779H106.246V18.2744H104.326V16.3656H104.264C103.791 17.0228 103.164 17.5538 102.436 17.9119C101.709 18.2699 100.904 18.4439 100.093 18.4186C99.3049 18.4415 98.5202 18.3034 97.7874 18.0126C97.0547 17.7218 96.3895 17.2846 95.8327 16.7279C95.2631 16.1456 94.8191 15.4532 94.5281 14.6935C94.237 13.9338 94.105 13.1227 94.1402 12.3103C94.0894 10.6551 94.693 9.04623 95.821 7.83031C96.3578 7.24473 97.0147 6.78097 97.7471 6.47045C98.4795 6.15993 99.2703 6.00991 100.066 6.03054C100.861 6.00321 101.651 6.16574 102.371 6.50456C103.09 6.84338 103.718 7.34869 104.201 7.97835H104.229V0.498779ZM100.265 16.5876C100.794 16.5905 101.317 16.4851 101.804 16.278C102.29 16.071 102.728 15.7666 103.091 15.3839C103.489 14.9803 103.8 14.5004 104.005 13.9734C104.211 13.4464 104.307 12.8832 104.287 12.3181C104.308 11.5631 104.14 10.8148 103.799 10.1404C103.458 9.46596 102.954 8.88639 102.333 8.45361C102.008 8.21311 101.63 8.0529 101.231 7.98614C99.6359 7.72643 98.3408 8.1069 97.3454 9.12755C96.9485 9.55602 96.6405 10.0585 96.4393 10.6061C96.238 11.1536 96.1475 11.7355 96.1728 12.3181C96.1317 13.4488 96.5389 14.5501 97.3063 15.3839C97.6847 15.7834 98.1446 16.0975 98.655 16.3051C99.1653 16.5128 99.7144 16.6091 100.265 16.5876Z" fill="#1DBFBF"/>
<path d="M79.5644 0.498779H81.5931V18.2744H79.6778V16.3656H79.6269C79.1521 17.0261 78.5206 17.5593 77.7888 17.9175C77.057 18.2757 76.2476 18.4478 75.4328 18.4186C74.6445 18.4415 73.8598 18.3034 73.127 18.0126C72.3943 17.7218 71.729 17.2846 71.1723 16.7279C70.603 16.1468 70.1588 15.4559 69.8671 14.6976C69.5754 13.9393 69.4423 13.1295 69.4759 12.3181C69.4251 10.6629 70.0287 9.05402 71.1567 7.83811C71.6932 7.25211 72.35 6.78808 73.0825 6.47753C73.8149 6.16698 74.6059 6.01719 75.4016 6.03834C76.1967 6.01133 76.9868 6.17399 77.7061 6.51279C78.4255 6.85159 79.0532 7.35672 79.537 7.98614H79.5605L79.5644 0.498779ZM75.6048 16.5876C76.1393 16.5951 76.6696 16.4919 77.1621 16.2847C77.6545 16.0775 78.0985 15.7708 78.466 15.3839C78.8594 14.9785 79.1662 14.4978 79.3678 13.9708C79.5693 13.4438 79.6615 12.8816 79.6387 12.3181C79.6601 11.5629 79.4927 10.8143 79.1515 10.1397C78.8103 9.46507 78.3061 8.88565 77.6843 8.45361C77.3599 8.21179 76.9818 8.05144 76.582 7.98614C74.9925 7.72643 73.6987 8.1069 72.7006 9.12755C72.3037 9.55602 71.9958 10.0585 71.7945 10.6061C71.5933 11.1536 71.5027 11.7355 71.528 12.3181C71.4869 13.4488 71.8941 14.5501 72.6615 15.3839C73.0382 15.7814 73.4955 16.0943 74.003 16.3019C74.5105 16.5094 75.0566 16.6069 75.6048 16.5876Z" fill="white"/>
<path d="M116.803 6.18636H118.797V17.9394C118.797 19.7911 118.311 21.2507 117.339 22.3181C116.367 23.3855 114.875 23.9192 112.863 23.9192C111.129 23.9445 109.421 23.4901 107.93 22.6063L108.384 20.7559C109.705 21.5444 111.207 21.9804 112.746 22.022C114.049 22.022 115.057 21.687 115.771 21.0169C116.118 20.6904 116.391 20.2948 116.574 19.8557C116.756 19.4167 116.844 18.9443 116.831 18.4692V16.1903H116.772C116.28 16.7993 115.652 17.285 114.938 17.6084C114.224 17.9318 113.444 18.0838 112.66 18.0524C111.886 18.0714 111.117 17.9338 110.398 17.6479C109.679 17.362 109.026 16.9337 108.478 16.389C107.912 15.824 107.469 15.1486 107.178 14.4052C106.887 13.6617 106.753 12.8662 106.785 12.0687C106.764 11.2812 106.9 10.4973 107.183 9.76193C107.467 9.02659 107.894 8.35429 108.438 7.78356C108.965 7.22269 109.605 6.77903 110.315 6.48163C111.026 6.18423 111.792 6.0398 112.562 6.0578C113.356 6.02761 114.146 6.1754 114.875 6.49028C115.603 6.80515 116.252 7.27907 116.772 7.87705H116.823L116.803 6.18636ZM112.82 16.1669C113.365 16.1898 113.909 16.0975 114.415 15.8961C114.922 15.6947 115.38 15.3887 115.76 14.9982C116.518 14.18 116.92 13.0959 116.877 11.983C116.896 11.4422 116.801 10.9034 116.6 10.401C116.398 9.89865 116.093 9.44371 115.705 9.06521C115.322 8.69261 114.868 8.40057 114.37 8.20648C113.872 8.01239 113.339 7.92023 112.805 7.93549C112.275 7.92126 111.749 8.01793 111.259 8.21924C110.77 8.42056 110.328 8.72203 109.963 9.10417C109.591 9.49101 109.3 9.9481 109.108 10.4485C108.916 10.949 108.827 11.4826 108.845 12.0181C108.819 12.5743 108.907 13.13 109.104 13.6511C109.301 14.1722 109.603 14.6479 109.99 15.0489C110.36 15.4183 110.802 15.7081 111.289 15.9004C111.776 16.0927 112.297 16.1834 112.82 16.1669Z" fill="#1DBFBF"/>
<path d="M130.773 12.0453C130.773 12.1778 130.773 12.3531 130.75 12.5674L130.722 12.8634H121.384C121.466 13.9021 121.931 14.8738 122.69 15.5903C123.441 16.2736 124.429 16.6383 125.445 16.6071C126.104 16.6249 126.757 16.4857 127.351 16.2011C127.944 15.9166 128.461 15.4948 128.858 14.9709L130.277 16.1864C129.091 17.6745 127.456 18.4186 125.371 18.4186C124.571 18.4429 123.774 18.3022 123.031 18.0053C122.288 17.7083 121.614 17.2615 121.052 16.6928C120.481 16.1031 120.035 15.4043 119.741 14.6384C119.448 13.8726 119.312 13.0555 119.344 12.2362C119.284 10.5909 119.88 8.98871 121.001 7.77965C121.528 7.21156 122.171 6.76179 122.886 6.46021C123.601 6.15864 124.372 6.01216 125.148 6.03052C125.909 6.00195 126.667 6.13793 127.37 6.42911C128.073 6.72029 128.705 7.15977 129.221 7.71732C130.281 8.90576 130.837 10.457 130.773 12.0453ZM127.611 8.79251C127.297 8.4938 126.925 8.26094 126.519 8.10771C126.113 7.95448 125.68 7.88399 125.246 7.90041C124.339 7.87897 123.457 8.19256 122.768 8.78082C122.058 9.40689 121.595 10.2646 121.462 11.2H128.784C128.667 10.2913 128.256 9.44558 127.611 8.79251Z" fill="#1DBFBF"/>
<path d="M93.5813 12.0453C93.5813 12.1778 93.5813 12.3531 93.5578 12.5674L93.5304 12.8634H84.1924C84.2738 13.9021 84.739 14.8738 85.4979 15.5903C86.2439 16.2688 87.2245 16.6332 88.2341 16.6071C88.8925 16.6252 89.5458 16.4862 90.1394 16.2016C90.733 15.917 91.2497 15.495 91.6464 14.9709L93.0692 16.1864C91.8992 17.6745 90.2679 18.4186 88.1754 18.4186C87.3751 18.4429 86.5783 18.3022 85.835 18.0053C85.0917 17.7083 84.4181 17.2615 83.8563 16.6928C83.2848 16.1031 82.8389 15.4043 82.5454 14.6384C82.2518 13.8726 82.1167 13.0555 82.1481 12.2362C82.0883 10.5909 82.6841 8.98871 83.8054 7.77965C84.3326 7.21156 84.9751 6.76179 85.6901 6.46021C86.4052 6.15864 87.1764 6.01216 87.9526 6.03052C88.7135 6.00195 89.4715 6.13793 90.1746 6.42911C90.8777 6.72029 91.5091 7.15977 92.0256 7.71732C93.0863 8.90516 93.6439 10.4564 93.5813 12.0453ZM90.4191 8.79251C90.1042 8.4935 89.7323 8.26049 89.3254 8.10725C88.9186 7.95402 88.485 7.88369 88.0504 7.90041C87.1438 7.88045 86.2617 8.19385 85.5722 8.78082C84.8634 9.40775 84.4008 10.265 84.2667 11.2H91.5878C91.4727 10.2918 91.0622 9.44612 90.4191 8.79251Z" fill="#1DBFBF"/>
<path d="M20.4717 16.4163L19.4789 16.9889L18.5525 17.5226L12.1968 13.8685L11.2822 13.3426L12.1968 12.8167L13.2053 12.2363L19.4789 15.8475L20.4717 16.4163Z" fill="white"/>
<path d="M11.2822 13.3426L10.2777 13.9231L3.97672 17.546L2.99171 16.9811V15.902L9.363 12.2363L10.2777 12.7622L11.2822 13.3426Z" fill="white"/>
<path d="M2.99171 8.57048L9.363 12.2362L10.2776 12.7622L11.2822 13.3543L12.1969 12.8284L13.1897 12.2362L19.4632 8.62502L20.4873 8.03678L21.3981 7.51088V6.34219L20.503 5.82797L19.4789 5.23584L13.1662 1.60513L12.1969 1.04806L11.2353 0.498779L10.2776 1.05585L9.32391 1.60513L2.99171 5.24753L2.02625 5.8046L1.07251 6.34219V18.0836L2.05752 18.6523L2.99171 19.1977L9.32391 22.8401L10.2776 23.3894L11.2353 23.9387L12.189 23.3933L13.1584 22.8362L19.4789 19.1977L20.4717 18.625L21.3981 18.0952V16.9499L20.4717 16.4162L19.4789 16.9889L18.5525 17.5226L12.1969 21.1806L11.2353 21.726L10.2698 21.1728L3.97672 17.546L2.99171 16.9811V8.57048ZM10.2776 3.26856L11.2353 2.71148L12.189 3.25687L18.5838 6.93043L12.1969 10.6274L11.2822 11.1494L10.2776 10.5494L3.94936 6.91095L10.2776 3.26856Z" fill="#26BDBD"/>
<path d="M12.1969 3.25687V10.6079L11.2822 11.1299L10.2776 10.5495V3.26856L11.2431 2.71149L12.1969 3.25687Z" fill="white"/>
</g>
<mask id="path-14-outside-1_681_13" maskUnits="userSpaceOnUse" x="0.0725098" y="26.9387" width="146" height="9" fill="black">
<rect fill="white" x="0.0725098" y="26.9387" width="146" height="9"/>
<path d="M5.06251 34.8087H1.07251V34.5687H2.88251V29.8087H1.07251V29.5687H3.13251V30.8687C3.69251 30.4687 4.26918 30.1387 4.86251 29.8787C5.45584 29.612 6.06918 29.4787 6.70251 29.4787C7.41584 29.4787 7.99251 29.6287 8.43251 29.9287C8.87251 30.2287 9.09251 30.652 9.09251 31.1987C9.09251 31.6253 8.95251 31.992 8.67251 32.2987C8.39251 32.6053 8.02251 32.842 7.56251 33.0087C7.10251 33.1687 6.59584 33.2487 6.04251 33.2487C5.44251 33.2487 4.89584 33.172 4.40251 33.0187C3.91584 32.8653 3.49251 32.6953 3.13251 32.5087V34.5687H5.06251V34.8087ZM6.70251 29.7087C6.14251 29.7087 5.55918 29.8387 4.95251 30.0987C4.35251 30.352 3.74584 30.6887 3.13251 31.1087V32.2787C3.50584 32.4653 3.94584 32.6387 4.45251 32.7987C4.95918 32.952 5.48918 33.0253 6.04251 33.0187C6.55584 33.0253 7.02251 32.9553 7.44251 32.8087C7.86918 32.6553 8.20918 32.442 8.46251 32.1687C8.71584 31.8887 8.84251 31.5653 8.84251 31.1987C8.84251 30.752 8.65251 30.392 8.27251 30.1187C7.89918 29.8453 7.37584 29.7087 6.70251 29.7087Z"/>
<path d="M14.3134 33.1487H10.4034V32.9187H12.2334V29.8087H10.4034V29.5687H12.4834V30.9387C13.07 30.492 13.6567 30.1387 14.2434 29.8787C14.8367 29.612 15.48 29.4787 16.1734 29.4787H16.4234V30.9587H16.1734V29.7087C15.5534 29.7087 14.94 29.8387 14.3334 30.0987C13.7334 30.352 13.1167 30.7087 12.4834 31.1687V32.9187H14.3134V33.1487Z"/>
<path d="M24.379 31.3487C24.379 31.7487 24.2357 32.092 23.949 32.3787C23.669 32.6587 23.2857 32.8753 22.799 33.0287C22.319 33.1753 21.779 33.2487 21.179 33.2487C20.5857 33.2487 20.0457 33.1753 19.559 33.0287C19.0723 32.8753 18.6857 32.6587 18.399 32.3787C18.119 32.092 17.979 31.7487 17.979 31.3487C17.979 30.942 18.119 30.602 18.399 30.3287C18.6857 30.0487 19.0723 29.8387 19.559 29.6987C20.0457 29.552 20.5857 29.4787 21.179 29.4787C21.779 29.4787 22.319 29.552 22.799 29.6987C23.2857 29.8387 23.669 30.0487 23.949 30.3287C24.2357 30.602 24.379 30.942 24.379 31.3487ZM18.229 31.3487C18.229 31.6953 18.359 31.9953 18.619 32.2487C18.879 32.4953 19.229 32.6853 19.669 32.8187C20.1157 32.952 20.619 33.0187 21.179 33.0187C21.739 33.0187 22.239 32.952 22.679 32.8187C23.1257 32.6853 23.479 32.4953 23.739 32.2487C23.999 31.9953 24.129 31.6953 24.129 31.3487C24.129 30.9953 23.999 30.6987 23.739 30.4587C23.479 30.212 23.1257 30.0253 22.679 29.8987C22.239 29.772 21.739 29.7087 21.179 29.7087C20.619 29.7087 20.1157 29.7753 19.669 29.9087C19.229 30.0353 18.879 30.2187 18.619 30.4587C18.359 30.6987 18.229 30.9953 18.229 31.3487Z"/>
<path d="M33.6466 32.9587C33.5266 33.0453 33.3966 33.1153 33.2566 33.1687C33.1166 33.222 32.9699 33.2487 32.8166 33.2487C32.5632 33.2487 32.3532 33.1587 32.1866 32.9787C32.0266 32.792 31.9466 32.5353 31.9466 32.2087V31.8687C31.3866 32.2687 30.8099 32.602 30.2166 32.8687C29.6232 33.1287 29.0099 33.2587 28.3766 33.2587C27.6632 33.2587 27.0866 33.1087 26.6466 32.8087C26.2132 32.502 25.9966 32.0787 25.9966 31.5387C25.9966 31.1053 26.1332 30.7353 26.4066 30.4287C26.6866 30.122 27.0566 29.8887 27.5166 29.7287C27.9832 29.562 28.4899 29.4787 29.0366 29.4787C29.6299 29.4787 30.1732 29.5553 30.6666 29.7087C31.1599 29.862 31.5866 30.032 31.9466 30.2187V28.1687H30.1066V27.9387H32.1966V32.2087C32.1966 32.4887 32.2599 32.6953 32.3866 32.8287C32.5199 32.9553 32.6666 33.0187 32.8266 33.0187C32.9666 33.0187 33.0899 32.9987 33.1966 32.9587C33.3099 32.912 33.4266 32.8453 33.5466 32.7587L33.6466 32.9587ZM26.2466 31.5387C26.2466 31.9787 26.4332 32.3353 26.8066 32.6087C27.1866 32.882 27.7099 33.0187 28.3766 33.0187C28.9299 33.0187 29.5099 32.892 30.1166 32.6387C30.7232 32.3787 31.3332 32.0353 31.9466 31.6087V30.4687C31.5732 30.2753 31.1299 30.102 30.6166 29.9487C30.1099 29.7887 29.5832 29.712 29.0366 29.7187C28.5299 29.712 28.0632 29.7853 27.6366 29.9387C27.2166 30.0853 26.8799 30.2953 26.6266 30.5687C26.3732 30.842 26.2466 31.1653 26.2466 31.5387Z"/>
<path d="M42.7791 32.9587C42.6524 33.0453 42.5224 33.1153 42.3891 33.1687C42.2557 33.222 42.1057 33.2487 41.9391 33.2487C41.6991 33.2487 41.4991 33.1687 41.3391 33.0087C41.1791 32.842 41.0891 32.6087 41.0691 32.3087C40.5891 32.542 40.1057 32.7587 39.6191 32.9587C39.1391 33.152 38.6224 33.2487 38.0691 33.2487C37.4624 33.2487 36.9824 33.1153 36.6291 32.8487C36.2757 32.5753 36.0991 32.1253 36.0991 31.4987V29.8087H34.3891V29.5687H36.3591V31.4987C36.3591 32.0253 36.5057 32.4087 36.7991 32.6487C37.0991 32.8887 37.5224 33.012 38.0691 33.0187C38.5557 33.0187 39.0557 32.9253 39.5691 32.7387C40.0824 32.5453 40.5824 32.3287 41.0691 32.0887V29.8087H39.4591V29.5687H41.3191V32.2087C41.3191 32.4887 41.3824 32.6953 41.5091 32.8287C41.6424 32.9553 41.7924 33.0187 41.9591 33.0187C42.0924 33.0187 42.2157 32.9987 42.3291 32.9587C42.4424 32.912 42.5591 32.8453 42.6791 32.7587L42.7791 32.9587Z"/>
<path d="M50.1799 32.1887C49.7866 32.502 49.3333 32.7553 48.8199 32.9487C48.3133 33.142 47.7199 33.2387 47.0399 33.2387C46.5199 33.2387 46.0433 33.1687 45.6099 33.0287C45.1766 32.882 44.8299 32.6753 44.5699 32.4087C44.3166 32.1353 44.1899 31.8087 44.1899 31.4287C44.1899 31.0953 44.2733 30.8087 44.4399 30.5687C44.6133 30.322 44.8433 30.1187 45.1299 29.9587C45.4166 29.792 45.7366 29.6687 46.0899 29.5887C46.4433 29.5087 46.7999 29.472 47.1599 29.4787C47.7333 29.4787 48.2633 29.5753 48.7499 29.7687C49.2366 29.962 49.6166 30.202 49.8899 30.4887V29.5687H50.1199V30.9287L50.0599 30.9487C49.8399 30.6553 49.5699 30.4187 49.2499 30.2387C48.9366 30.0587 48.5966 29.9253 48.2299 29.8387C47.8699 29.752 47.5066 29.7087 47.1399 29.7087C46.8066 29.7087 46.4799 29.7453 46.1599 29.8187C45.8399 29.8853 45.5499 29.992 45.2899 30.1387C45.0299 30.2853 44.8233 30.4653 44.6699 30.6787C44.5166 30.892 44.4399 31.142 44.4399 31.4287C44.4399 31.742 44.5533 32.0187 44.7799 32.2587C45.0133 32.492 45.3266 32.6753 45.7199 32.8087C46.1133 32.9353 46.5533 33.002 47.0399 33.0087C47.6666 33.0153 48.2299 32.922 48.7299 32.7287C49.2299 32.5353 49.6666 32.2953 50.0399 32.0087L50.1799 32.1887Z"/>
<path d="M55.7936 32.7987C55.5736 32.9053 55.3103 33.0087 55.0036 33.1087C54.6969 33.202 54.3669 33.2487 54.0136 33.2487C53.6069 33.2487 53.2869 33.1487 53.0536 32.9487C52.8203 32.742 52.7036 32.3953 52.7036 31.9087V29.8087H51.3936V29.5687H52.7036V28.5787H52.9536V29.5687H55.3436V29.8087H52.9536V31.9087C52.9536 32.322 53.0503 32.612 53.2436 32.7787C53.4369 32.9387 53.6869 33.0187 53.9936 33.0187C54.3403 33.0187 54.6569 32.9753 54.9436 32.8887C55.2303 32.7953 55.4769 32.6953 55.6836 32.5887L55.7936 32.7987Z"/>
<path d="M62.8075 32.2887C62.8075 32.622 62.6008 32.8653 62.1875 33.0187C61.7742 33.172 61.2108 33.2487 60.4975 33.2487C59.8775 33.2487 59.3075 33.1553 58.7875 32.9687C58.2675 32.782 57.8675 32.5553 57.5875 32.2887V33.1487H57.3475V31.7887C57.5808 32.0753 57.8675 32.312 58.2075 32.4987C58.5542 32.6787 58.9275 32.812 59.3275 32.8987C59.7342 32.9853 60.1408 33.0287 60.5475 33.0287C60.9008 33.0287 61.2275 33.0087 61.5275 32.9687C61.8342 32.9287 62.0808 32.8587 62.2675 32.7587C62.4608 32.652 62.5575 32.4987 62.5575 32.2987C62.5575 32.1253 62.4742 31.9887 62.3075 31.8887C62.1475 31.7887 61.8842 31.7087 61.5175 31.6487C61.1508 31.5887 60.6608 31.542 60.0475 31.5087C59.1275 31.4553 58.4575 31.3487 58.0375 31.1887C57.6242 31.022 57.4175 30.7853 57.4175 30.4787C57.4175 30.1787 57.5908 29.9387 57.9375 29.7587C58.2908 29.572 58.8442 29.4787 59.5975 29.4787C60.2175 29.4787 60.7708 29.572 61.2575 29.7587C61.7442 29.9453 62.1242 30.1787 62.3975 30.4587V29.5687H62.6375V30.9487C62.2708 30.5153 61.8208 30.1987 61.2875 29.9987C60.7608 29.7987 60.1808 29.6987 59.5475 29.6987C58.9608 29.6987 58.4975 29.762 58.1575 29.8887C57.8242 30.0153 57.6575 30.2053 57.6575 30.4587C57.6575 30.692 57.8375 30.872 58.1975 30.9987C58.5575 31.1187 59.1742 31.2053 60.0475 31.2587C61.0008 31.3187 61.6975 31.4153 62.1375 31.5487C62.5842 31.682 62.8075 31.9287 62.8075 32.2887Z"/>
<path d="M74.6915 31.3487C74.6915 31.7487 74.5482 32.092 74.2615 32.3787C73.9815 32.6587 73.5982 32.8753 73.1115 33.0287C72.6315 33.1753 72.0915 33.2487 71.4915 33.2487C70.8982 33.2487 70.3582 33.1753 69.8715 33.0287C69.3848 32.8753 68.9982 32.6587 68.7115 32.3787C68.4315 32.092 68.2915 31.7487 68.2915 31.3487C68.2915 30.942 68.4315 30.602 68.7115 30.3287C68.9982 30.0487 69.3848 29.8387 69.8715 29.6987C70.3582 29.552 70.8982 29.4787 71.4915 29.4787C72.0915 29.4787 72.6315 29.552 73.1115 29.6987C73.5982 29.8387 73.9815 30.0487 74.2615 30.3287C74.5482 30.602 74.6915 30.942 74.6915 31.3487ZM68.5415 31.3487C68.5415 31.6953 68.6715 31.9953 68.9315 32.2487C69.1915 32.4953 69.5415 32.6853 69.9815 32.8187C70.4282 32.952 70.9315 33.0187 71.4915 33.0187C72.0515 33.0187 72.5515 32.952 72.9915 32.8187C73.4382 32.6853 73.7915 32.4953 74.0515 32.2487C74.3115 31.9953 74.4415 31.6953 74.4415 31.3487C74.4415 30.9953 74.3115 30.6987 74.0515 30.4587C73.7915 30.212 73.4382 30.0253 72.9915 29.8987C72.5515 29.772 72.0515 29.7087 71.4915 29.7087C70.9315 29.7087 70.4282 29.7753 69.9815 29.9087C69.5415 30.0353 69.1915 30.2187 68.9315 30.4587C68.6715 30.6987 68.5415 30.9953 68.5415 31.3487Z"/>
<path d="M79.6791 33.1487H75.9991V32.9187H77.8291V29.8087H75.9991V29.5687H78.0791V30.9287C78.2457 30.7953 78.4391 30.6453 78.6591 30.4787C78.8857 30.312 79.1324 30.152 79.3991 29.9987C79.6657 29.8453 79.9491 29.722 80.2491 29.6287C80.5491 29.5287 80.8591 29.4787 81.1791 29.4787C81.7057 29.4787 82.1191 29.5887 82.4191 29.8087C82.7191 30.022 82.9291 30.3053 83.0491 30.6587C83.1757 31.012 83.2391 31.392 83.2391 31.7987V32.9187H84.9691V33.1487H81.3791V32.9187H82.9891V31.7987C82.9891 31.5453 82.9624 31.2953 82.9091 31.0487C82.8624 30.7953 82.7724 30.5687 82.6391 30.3687C82.5057 30.1687 82.3224 30.0087 82.0891 29.8887C81.8557 29.7687 81.5524 29.7087 81.1791 29.7087C80.8591 29.7087 80.5491 29.7587 80.2491 29.8587C79.9491 29.9587 79.6657 30.0853 79.3991 30.2387C79.1324 30.392 78.8857 30.552 78.6591 30.7187C78.4391 30.8787 78.2457 31.0287 78.0791 31.1687V32.9187H79.6791V33.1487Z"/>
<path d="M93.3717 32.7987C93.1517 32.9053 92.8884 33.0087 92.5817 33.1087C92.2751 33.202 91.9451 33.2487 91.5917 33.2487C91.1851 33.2487 90.8651 33.1487 90.6317 32.9487C90.3984 32.742 90.2817 32.3953 90.2817 31.9087V29.8087H88.9717V29.5687H90.2817V28.5787H90.5317V29.5687H92.9217V29.8087H90.5317V31.9087C90.5317 32.322 90.6284 32.612 90.8217 32.7787C91.0151 32.9387 91.2651 33.0187 91.5717 33.0187C91.9184 33.0187 92.2351 32.9753 92.5217 32.8887C92.8084 32.7953 93.0551 32.6953 93.2617 32.5887L93.3717 32.7987Z"/>
<path d="M97.9556 33.1487H94.2756V32.9187H96.1156V28.1787H94.2856V27.9387H96.3656V30.9287C96.5323 30.7887 96.7256 30.6353 96.9456 30.4687C97.1723 30.302 97.419 30.1453 97.6856 29.9987C97.9523 29.8453 98.2356 29.722 98.5356 29.6287C98.8356 29.5287 99.1456 29.4787 99.4656 29.4787C99.9856 29.4787 100.392 29.5887 100.686 29.8087C100.986 30.022 101.199 30.3053 101.326 30.6587C101.452 31.012 101.516 31.392 101.516 31.7987V32.9187H103.246V33.1487H99.6556V32.9187H101.266V31.7987C101.266 31.5453 101.239 31.2953 101.186 31.0487C101.132 30.7953 101.039 30.5687 100.906 30.3687C100.779 30.1687 100.599 30.0087 100.366 29.8887C100.132 29.7687 99.8323 29.7087 99.4656 29.7087C99.1456 29.7087 98.8356 29.7587 98.5356 29.8587C98.2356 29.9587 97.9523 30.0853 97.6856 30.2387C97.419 30.3853 97.1723 30.542 96.9456 30.7087C96.7256 30.8753 96.5323 31.0253 96.3656 31.1587V32.9187H97.9556V33.1487Z"/>
<path d="M110.06 32.4587C109.68 32.692 109.26 32.882 108.8 33.0287C108.34 33.1753 107.77 33.2487 107.09 33.2487C106.55 33.2487 106.06 33.1787 105.62 33.0387C105.187 32.892 104.84 32.6853 104.58 32.4187C104.32 32.1453 104.19 31.8187 104.19 31.4387C104.19 31.1187 104.28 30.8387 104.46 30.5987C104.64 30.352 104.883 30.1453 105.19 29.9787C105.497 29.812 105.84 29.6887 106.22 29.6087C106.6 29.522 106.99 29.4787 107.39 29.4787C108.15 29.4787 108.76 29.582 109.22 29.7887C109.687 29.9887 109.92 30.2753 109.92 30.6487C109.92 30.9087 109.813 31.1187 109.6 31.2787C109.393 31.4387 109.11 31.5587 108.75 31.6387C108.39 31.712 107.983 31.7487 107.53 31.7487C106.997 31.7487 106.48 31.702 105.98 31.6087C105.48 31.5153 104.973 31.3853 104.46 31.2187C104.447 31.292 104.44 31.3653 104.44 31.4387C104.44 31.752 104.553 32.0287 104.78 32.2687C105.013 32.502 105.33 32.6853 105.73 32.8187C106.13 32.9453 106.583 33.012 107.09 33.0187C107.717 33.0253 108.257 32.9587 108.71 32.8187C109.17 32.672 109.583 32.4853 109.95 32.2587L110.06 32.4587ZM107.39 29.7087C106.957 29.7087 106.54 29.762 106.14 29.8687C105.747 29.9687 105.403 30.1153 105.11 30.3087C104.817 30.502 104.617 30.7387 104.51 31.0187C105.503 31.3453 106.51 31.5087 107.53 31.5087C107.93 31.5087 108.29 31.482 108.61 31.4287C108.937 31.3687 109.193 31.2753 109.38 31.1487C109.573 31.022 109.67 30.8553 109.67 30.6487C109.67 30.3487 109.467 30.1187 109.06 29.9587C108.653 29.792 108.097 29.7087 107.39 29.7087Z"/>
<path d="M121.212 32.4587C120.832 32.692 120.412 32.882 119.952 33.0287C119.492 33.1753 118.922 33.2487 118.242 33.2487C117.702 33.2487 117.212 33.1787 116.772 33.0387C116.339 32.892 115.992 32.6853 115.732 32.4187C115.472 32.1453 115.342 31.8187 115.342 31.4387C115.342 31.1187 115.432 30.8387 115.612 30.5987C115.792 30.352 116.036 30.1453 116.342 29.9787C116.649 29.812 116.992 29.6887 117.372 29.6087C117.752 29.522 118.142 29.4787 118.542 29.4787C119.302 29.4787 119.912 29.582 120.372 29.7887C120.839 29.9887 121.072 30.2753 121.072 30.6487C121.072 30.9087 120.966 31.1187 120.752 31.2787C120.546 31.4387 120.262 31.5587 119.902 31.6387C119.542 31.712 119.136 31.7487 118.682 31.7487C118.149 31.7487 117.632 31.702 117.132 31.6087C116.632 31.5153 116.126 31.3853 115.612 31.2187C115.599 31.292 115.592 31.3653 115.592 31.4387C115.592 31.752 115.706 32.0287 115.932 32.2687C116.166 32.502 116.482 32.6853 116.882 32.8187C117.282 32.9453 117.736 33.012 118.242 33.0187C118.869 33.0253 119.409 32.9587 119.862 32.8187C120.322 32.672 120.736 32.4853 121.102 32.2587L121.212 32.4587ZM118.542 29.7087C118.109 29.7087 117.692 29.762 117.292 29.8687C116.899 29.9687 116.556 30.1153 116.262 30.3087C115.969 30.502 115.769 30.7387 115.662 31.0187C116.656 31.3453 117.662 31.5087 118.682 31.5087C119.082 31.5087 119.442 31.482 119.762 31.4287C120.089 31.3687 120.346 31.2753 120.532 31.1487C120.726 31.022 120.822 30.8553 120.822 30.6487C120.822 30.3487 120.619 30.1187 120.212 29.9587C119.806 29.792 119.249 29.7087 118.542 29.7087Z"/>
<path d="M130.522 32.9587C130.402 33.0453 130.272 33.1153 130.132 33.1687C129.992 33.222 129.845 33.2487 129.692 33.2487C129.438 33.2487 129.228 33.1587 129.062 32.9787C128.902 32.792 128.822 32.5353 128.822 32.2087V31.8687C128.262 32.2687 127.685 32.602 127.092 32.8687C126.498 33.1287 125.885 33.2587 125.252 33.2587C124.538 33.2587 123.962 33.1087 123.522 32.8087C123.088 32.502 122.872 32.0787 122.872 31.5387C122.872 31.1053 123.008 30.7353 123.282 30.4287C123.562 30.122 123.932 29.8887 124.392 29.7287C124.858 29.562 125.365 29.4787 125.912 29.4787C126.505 29.4787 127.048 29.5553 127.542 29.7087C128.035 29.862 128.462 30.032 128.822 30.2187V28.1687H126.982V27.9387H129.072V32.2087C129.072 32.4887 129.135 32.6953 129.262 32.8287C129.395 32.9553 129.542 33.0187 129.702 33.0187C129.842 33.0187 129.965 32.9987 130.072 32.9587C130.185 32.912 130.302 32.8453 130.422 32.7587L130.522 32.9587ZM123.122 31.5387C123.122 31.9787 123.308 32.3353 123.682 32.6087C124.062 32.882 124.585 33.0187 125.252 33.0187C125.805 33.0187 126.385 32.892 126.992 32.6387C127.598 32.3787 128.208 32.0353 128.822 31.6087V30.4687C128.448 30.2753 128.005 30.102 127.492 29.9487C126.985 29.7887 126.458 29.712 125.912 29.7187C125.405 29.712 124.938 29.7853 124.512 29.9387C124.092 30.0853 123.755 30.2953 123.502 30.5687C123.248 30.842 123.122 31.1653 123.122 31.5387Z"/>
<path d="M137.444 30.7587C137.444 31.0587 137.324 31.3053 137.084 31.4987C136.851 31.692 136.541 31.8353 136.154 31.9287C135.767 32.022 135.347 32.0687 134.894 32.0687C134.454 32.0753 134.041 32.0353 133.654 31.9487C133.274 31.8553 132.974 31.712 132.754 31.5187C132.601 31.5853 132.457 31.6753 132.324 31.7887C132.197 31.902 132.134 32.042 132.134 32.2087C132.134 32.3087 132.177 32.412 132.264 32.5187C132.351 32.6253 132.494 32.7153 132.694 32.7887C132.894 32.862 133.167 32.8987 133.514 32.8987C133.707 32.8987 133.944 32.882 134.224 32.8487C134.504 32.8153 134.797 32.7753 135.104 32.7287C135.411 32.682 135.704 32.642 135.984 32.6087C136.264 32.5753 136.497 32.5587 136.684 32.5587C137.064 32.5587 137.384 32.632 137.644 32.7787C137.911 32.9187 138.044 33.1453 138.044 33.4587C138.044 33.7587 137.894 34.0087 137.594 34.2087C137.294 34.4087 136.887 34.5587 136.374 34.6587C135.861 34.7587 135.281 34.8087 134.634 34.8087C133.641 34.8087 132.924 34.6953 132.484 34.4687C132.044 34.2487 131.824 33.9753 131.824 33.6487C131.824 33.4687 131.877 33.312 131.984 33.1787C132.097 33.052 132.214 32.952 132.334 32.8787C132.167 32.7853 132.054 32.682 131.994 32.5687C131.934 32.4487 131.904 32.3387 131.904 32.2387C131.904 32.0253 131.981 31.8487 132.134 31.7087C132.294 31.5687 132.457 31.4653 132.624 31.3987C132.457 31.212 132.374 30.9987 132.374 30.7587C132.374 30.4653 132.491 30.2253 132.724 30.0387C132.957 29.8453 133.264 29.7053 133.644 29.6187C134.031 29.5253 134.447 29.4787 134.894 29.4787C135.247 29.4787 135.581 29.5053 135.894 29.5587C136.207 29.612 136.484 29.6953 136.724 29.8087C136.804 29.4553 136.961 29.182 137.194 28.9887C137.434 28.7953 137.714 28.692 138.034 28.6787V28.9287C137.767 28.942 137.531 29.0187 137.324 29.1587C137.117 29.2987 136.961 29.5387 136.854 29.8787C137.034 29.9787 137.177 30.102 137.284 30.2487C137.391 30.3953 137.444 30.5653 137.444 30.7587ZM132.624 30.7587C132.624 30.992 132.727 31.1887 132.934 31.3487C133.141 31.5087 133.417 31.6287 133.764 31.7087C134.111 31.7887 134.487 31.8287 134.894 31.8287C135.314 31.8287 135.697 31.7887 136.044 31.7087C136.391 31.6287 136.667 31.5087 136.874 31.3487C137.081 31.1887 137.184 30.992 137.184 30.7587C137.184 30.5187 137.081 30.322 136.874 30.1687C136.667 30.0153 136.391 29.902 136.044 29.8287C135.697 29.7487 135.314 29.7087 134.894 29.7087C134.487 29.7087 134.111 29.7487 133.764 29.8287C133.417 29.902 133.141 30.0153 132.934 30.1687C132.727 30.322 132.624 30.5187 132.624 30.7587ZM132.074 33.6187C132.074 33.8853 132.267 34.1087 132.654 34.2887C133.047 34.4753 133.704 34.5687 134.624 34.5687C135.224 34.5687 135.764 34.5287 136.244 34.4487C136.724 34.3753 137.101 34.2553 137.374 34.0887C137.654 33.922 137.794 33.712 137.794 33.4587C137.794 33.2253 137.691 33.0587 137.484 32.9587C137.284 32.852 137.017 32.7987 136.684 32.7987C136.484 32.7987 136.244 32.8153 135.964 32.8487C135.691 32.8753 135.401 32.912 135.094 32.9587C134.787 32.9987 134.491 33.0353 134.204 33.0687C133.924 33.0953 133.684 33.1087 133.484 33.1087C133.277 33.1087 133.094 33.0953 132.934 33.0687C132.774 33.042 132.637 33.0087 132.524 32.9687C132.391 33.0353 132.281 33.1253 132.194 33.2387C132.114 33.3587 132.074 33.4853 132.074 33.6187Z"/>
<path d="M145.382 32.4587C145.002 32.692 144.582 32.882 144.122 33.0287C143.662 33.1753 143.092 33.2487 142.412 33.2487C141.872 33.2487 141.382 33.1787 140.942 33.0387C140.509 32.892 140.162 32.6853 139.902 32.4187C139.642 32.1453 139.512 31.8187 139.512 31.4387C139.512 31.1187 139.602 30.8387 139.782 30.5987C139.962 30.352 140.206 30.1453 140.512 29.9787C140.819 29.812 141.162 29.6887 141.542 29.6087C141.922 29.522 142.312 29.4787 142.712 29.4787C143.472 29.4787 144.082 29.582 144.542 29.7887C145.009 29.9887 145.242 30.2753 145.242 30.6487C145.242 30.9087 145.136 31.1187 144.922 31.2787C144.716 31.4387 144.432 31.5587 144.072 31.6387C143.712 31.712 143.306 31.7487 142.852 31.7487C142.319 31.7487 141.802 31.702 141.302 31.6087C140.802 31.5153 140.296 31.3853 139.782 31.2187C139.769 31.292 139.762 31.3653 139.762 31.4387C139.762 31.752 139.876 32.0287 140.102 32.2687C140.336 32.502 140.652 32.6853 141.052 32.8187C141.452 32.9453 141.906 33.012 142.412 33.0187C143.039 33.0253 143.579 32.9587 144.032 32.8187C144.492 32.672 144.906 32.4853 145.272 32.2587L145.382 32.4587ZM142.712 29.7087C142.279 29.7087 141.862 29.762 141.462 29.8687C141.069 29.9687 140.726 30.1153 140.432 30.3087C140.139 30.502 139.939 30.7387 139.832 31.0187C140.826 31.3453 141.832 31.5087 142.852 31.5087C143.252 31.5087 143.612 31.482 143.932 31.4287C144.259 31.3687 144.516 31.2753 144.702 31.1487C144.896 31.022 144.992 30.8553 144.992 30.6487C144.992 30.3487 144.789 30.1187 144.382 29.9587C143.976 29.792 143.419 29.7087 142.712 29.7087Z"/>
</mask>
<path d="M5.06251 34.8087H1.07251V34.5687H2.88251V29.8087H1.07251V29.5687H3.13251V30.8687C3.69251 30.4687 4.26918 30.1387 4.86251 29.8787C5.45584 29.612 6.06918 29.4787 6.70251 29.4787C7.41584 29.4787 7.99251 29.6287 8.43251 29.9287C8.87251 30.2287 9.09251 30.652 9.09251 31.1987C9.09251 31.6253 8.95251 31.992 8.67251 32.2987C8.39251 32.6053 8.02251 32.842 7.56251 33.0087C7.10251 33.1687 6.59584 33.2487 6.04251 33.2487C5.44251 33.2487 4.89584 33.172 4.40251 33.0187C3.91584 32.8653 3.49251 32.6953 3.13251 32.5087V34.5687H5.06251V34.8087ZM6.70251 29.7087C6.14251 29.7087 5.55918 29.8387 4.95251 30.0987C4.35251 30.352 3.74584 30.6887 3.13251 31.1087V32.2787C3.50584 32.4653 3.94584 32.6387 4.45251 32.7987C4.95918 32.952 5.48918 33.0253 6.04251 33.0187C6.55584 33.0253 7.02251 32.9553 7.44251 32.8087C7.86918 32.6553 8.20918 32.442 8.46251 32.1687C8.71584 31.8887 8.84251 31.5653 8.84251 31.1987C8.84251 30.752 8.65251 30.392 8.27251 30.1187C7.89918 29.8453 7.37584 29.7087 6.70251 29.7087Z" fill="#B0B8C5"/>
<path d="M14.3134 33.1487H10.4034V32.9187H12.2334V29.8087H10.4034V29.5687H12.4834V30.9387C13.07 30.492 13.6567 30.1387 14.2434 29.8787C14.8367 29.612 15.48 29.4787 16.1734 29.4787H16.4234V30.9587H16.1734V29.7087C15.5534 29.7087 14.94 29.8387 14.3334 30.0987C13.7334 30.352 13.1167 30.7087 12.4834 31.1687V32.9187H14.3134V33.1487Z" fill="#B0B8C5"/>
<path d="M24.379 31.3487C24.379 31.7487 24.2357 32.092 23.949 32.3787C23.669 32.6587 23.2857 32.8753 22.799 33.0287C22.319 33.1753 21.779 33.2487 21.179 33.2487C20.5857 33.2487 20.0457 33.1753 19.559 33.0287C19.0723 32.8753 18.6857 32.6587 18.399 32.3787C18.119 32.092 17.979 31.7487 17.979 31.3487C17.979 30.942 18.119 30.602 18.399 30.3287C18.6857 30.0487 19.0723 29.8387 19.559 29.6987C20.0457 29.552 20.5857 29.4787 21.179 29.4787C21.779 29.4787 22.319 29.552 22.799 29.6987C23.2857 29.8387 23.669 30.0487 23.949 30.3287C24.2357 30.602 24.379 30.942 24.379 31.3487ZM18.229 31.3487C18.229 31.6953 18.359 31.9953 18.619 32.2487C18.879 32.4953 19.229 32.6853 19.669 32.8187C20.1157 32.952 20.619 33.0187 21.179 33.0187C21.739 33.0187 22.239 32.952 22.679 32.8187C23.1257 32.6853 23.479 32.4953 23.739 32.2487C23.999 31.9953 24.129 31.6953 24.129 31.3487C24.129 30.9953 23.999 30.6987 23.739 30.4587C23.479 30.212 23.1257 30.0253 22.679 29.8987C22.239 29.772 21.739 29.7087 21.179 29.7087C20.619 29.7087 20.1157 29.7753 19.669 29.9087C19.229 30.0353 18.879 30.2187 18.619 30.4587C18.359 30.6987 18.229 30.9953 18.229 31.3487Z" fill="#B0B8C5"/>
<path d="M33.6466 32.9587C33.5266 33.0453 33.3966 33.1153 33.2566 33.1687C33.1166 33.222 32.9699 33.2487 32.8166 33.2487C32.5632 33.2487 32.3532 33.1587 32.1866 32.9787C32.0266 32.792 31.9466 32.5353 31.9466 32.2087V31.8687C31.3866 32.2687 30.8099 32.602 30.2166 32.8687C29.6232 33.1287 29.0099 33.2587 28.3766 33.2587C27.6632 33.2587 27.0866 33.1087 26.6466 32.8087C26.2132 32.502 25.9966 32.0787 25.9966 31.5387C25.9966 31.1053 26.1332 30.7353 26.4066 30.4287C26.6866 30.122 27.0566 29.8887 27.5166 29.7287C27.9832 29.562 28.4899 29.4787 29.0366 29.4787C29.6299 29.4787 30.1732 29.5553 30.6666 29.7087C31.1599 29.862 31.5866 30.032 31.9466 30.2187V28.1687H30.1066V27.9387H32.1966V32.2087C32.1966 32.4887 32.2599 32.6953 32.3866 32.8287C32.5199 32.9553 32.6666 33.0187 32.8266 33.0187C32.9666 33.0187 33.0899 32.9987 33.1966 32.9587C33.3099 32.912 33.4266 32.8453 33.5466 32.7587L33.6466 32.9587ZM26.2466 31.5387C26.2466 31.9787 26.4332 32.3353 26.8066 32.6087C27.1866 32.882 27.7099 33.0187 28.3766 33.0187C28.9299 33.0187 29.5099 32.892 30.1166 32.6387C30.7232 32.3787 31.3332 32.0353 31.9466 31.6087V30.4687C31.5732 30.2753 31.1299 30.102 30.6166 29.9487C30.1099 29.7887 29.5832 29.712 29.0366 29.7187C28.5299 29.712 28.0632 29.7853 27.6366 29.9387C27.2166 30.0853 26.8799 30.2953 26.6266 30.5687C26.3732 30.842 26.2466 31.1653 26.2466 31.5387Z" fill="#B0B8C5"/>
<path d="M42.7791 32.9587C42.6524 33.0453 42.5224 33.1153 42.3891 33.1687C42.2557 33.222 42.1057 33.2487 41.9391 33.2487C41.6991 33.2487 41.4991 33.1687 41.3391 33.0087C41.1791 32.842 41.0891 32.6087 41.0691 32.3087C40.5891 32.542 40.1057 32.7587 39.6191 32.9587C39.1391 33.152 38.6224 33.2487 38.0691 33.2487C37.4624 33.2487 36.9824 33.1153 36.6291 32.8487C36.2757 32.5753 36.0991 32.1253 36.0991 31.4987V29.8087H34.3891V29.5687H36.3591V31.4987C36.3591 32.0253 36.5057 32.4087 36.7991 32.6487C37.0991 32.8887 37.5224 33.012 38.0691 33.0187C38.5557 33.0187 39.0557 32.9253 39.5691 32.7387C40.0824 32.5453 40.5824 32.3287 41.0691 32.0887V29.8087H39.4591V29.5687H41.3191V32.2087C41.3191 32.4887 41.3824 32.6953 41.5091 32.8287C41.6424 32.9553 41.7924 33.0187 41.9591 33.0187C42.0924 33.0187 42.2157 32.9987 42.3291 32.9587C42.4424 32.912 42.5591 32.8453 42.6791 32.7587L42.7791 32.9587Z" fill="#B0B8C5"/>
<path d="M50.1799 32.1887C49.7866 32.502 49.3333 32.7553 48.8199 32.9487C48.3133 33.142 47.7199 33.2387 47.0399 33.2387C46.5199 33.2387 46.0433 33.1687 45.6099 33.0287C45.1766 32.882 44.8299 32.6753 44.5699 32.4087C44.3166 32.1353 44.1899 31.8087 44.1899 31.4287C44.1899 31.0953 44.2733 30.8087 44.4399 30.5687C44.6133 30.322 44.8433 30.1187 45.1299 29.9587C45.4166 29.792 45.7366 29.6687 46.0899 29.5887C46.4433 29.5087 46.7999 29.472 47.1599 29.4787C47.7333 29.4787 48.2633 29.5753 48.7499 29.7687C49.2366 29.962 49.6166 30.202 49.8899 30.4887V29.5687H50.1199V30.9287L50.0599 30.9487C49.8399 30.6553 49.5699 30.4187 49.2499 30.2387C48.9366 30.0587 48.5966 29.9253 48.2299 29.8387C47.8699 29.752 47.5066 29.7087 47.1399 29.7087C46.8066 29.7087 46.4799 29.7453 46.1599 29.8187C45.8399 29.8853 45.5499 29.992 45.2899 30.1387C45.0299 30.2853 44.8233 30.4653 44.6699 30.6787C44.5166 30.892 44.4399 31.142 44.4399 31.4287C44.4399 31.742 44.5533 32.0187 44.7799 32.2587C45.0133 32.492 45.3266 32.6753 45.7199 32.8087C46.1133 32.9353 46.5533 33.002 47.0399 33.0087C47.6666 33.0153 48.2299 32.922 48.7299 32.7287C49.2299 32.5353 49.6666 32.2953 50.0399 32.0087L50.1799 32.1887Z" fill="#B0B8C5"/>
<path d="M55.7936 32.7987C55.5736 32.9053 55.3103 33.0087 55.0036 33.1087C54.6969 33.202 54.3669 33.2487 54.0136 33.2487C53.6069 33.2487 53.2869 33.1487 53.0536 32.9487C52.8203 32.742 52.7036 32.3953 52.7036 31.9087V29.8087H51.3936V29.5687H52.7036V28.5787H52.9536V29.5687H55.3436V29.8087H52.9536V31.9087C52.9536 32.322 53.0503 32.612 53.2436 32.7787C53.4369 32.9387 53.6869 33.0187 53.9936 33.0187C54.3403 33.0187 54.6569 32.9753 54.9436 32.8887C55.2303 32.7953 55.4769 32.6953 55.6836 32.5887L55.7936 32.7987Z" fill="#B0B8C5"/>
<path d="M62.8075 32.2887C62.8075 32.622 62.6008 32.8653 62.1875 33.0187C61.7742 33.172 61.2108 33.2487 60.4975 33.2487C59.8775 33.2487 59.3075 33.1553 58.7875 32.9687C58.2675 32.782 57.8675 32.5553 57.5875 32.2887V33.1487H57.3475V31.7887C57.5808 32.0753 57.8675 32.312 58.2075 32.4987C58.5542 32.6787 58.9275 32.812 59.3275 32.8987C59.7342 32.9853 60.1408 33.0287 60.5475 33.0287C60.9008 33.0287 61.2275 33.0087 61.5275 32.9687C61.8342 32.9287 62.0808 32.8587 62.2675 32.7587C62.4608 32.652 62.5575 32.4987 62.5575 32.2987C62.5575 32.1253 62.4742 31.9887 62.3075 31.8887C62.1475 31.7887 61.8842 31.7087 61.5175 31.6487C61.1508 31.5887 60.6608 31.542 60.0475 31.5087C59.1275 31.4553 58.4575 31.3487 58.0375 31.1887C57.6242 31.022 57.4175 30.7853 57.4175 30.4787C57.4175 30.1787 57.5908 29.9387 57.9375 29.7587C58.2908 29.572 58.8442 29.4787 59.5975 29.4787C60.2175 29.4787 60.7708 29.572 61.2575 29.7587C61.7442 29.9453 62.1242 30.1787 62.3975 30.4587V29.5687H62.6375V30.9487C62.2708 30.5153 61.8208 30.1987 61.2875 29.9987C60.7608 29.7987 60.1808 29.6987 59.5475 29.6987C58.9608 29.6987 58.4975 29.762 58.1575 29.8887C57.8242 30.0153 57.6575 30.2053 57.6575 30.4587C57.6575 30.692 57.8375 30.872 58.1975 30.9987C58.5575 31.1187 59.1742 31.2053 60.0475 31.2587C61.0008 31.3187 61.6975 31.4153 62.1375 31.5487C62.5842 31.682 62.8075 31.9287 62.8075 32.2887Z" fill="#B0B8C5"/>
<path d="M74.6915 31.3487C74.6915 31.7487 74.5482 32.092 74.2615 32.3787C73.9815 32.6587 73.5982 32.8753 73.1115 33.0287C72.6315 33.1753 72.0915 33.2487 71.4915 33.2487C70.8982 33.2487 70.3582 33.1753 69.8715 33.0287C69.3848 32.8753 68.9982 32.6587 68.7115 32.3787C68.4315 32.092 68.2915 31.7487 68.2915 31.3487C68.2915 30.942 68.4315 30.602 68.7115 30.3287C68.9982 30.0487 69.3848 29.8387 69.8715 29.6987C70.3582 29.552 70.8982 29.4787 71.4915 29.4787C72.0915 29.4787 72.6315 29.552 73.1115 29.6987C73.5982 29.8387 73.9815 30.0487 74.2615 30.3287C74.5482 30.602 74.6915 30.942 74.6915 31.3487ZM68.5415 31.3487C68.5415 31.6953 68.6715 31.9953 68.9315 32.2487C69.1915 32.4953 69.5415 32.6853 69.9815 32.8187C70.4282 32.952 70.9315 33.0187 71.4915 33.0187C72.0515 33.0187 72.5515 32.952 72.9915 32.8187C73.4382 32.6853 73.7915 32.4953 74.0515 32.2487C74.3115 31.9953 74.4415 31.6953 74.4415 31.3487C74.4415 30.9953 74.3115 30.6987 74.0515 30.4587C73.7915 30.212 73.4382 30.0253 72.9915 29.8987C72.5515 29.772 72.0515 29.7087 71.4915 29.7087C70.9315 29.7087 70.4282 29.7753 69.9815 29.9087C69.5415 30.0353 69.1915 30.2187 68.9315 30.4587C68.6715 30.6987 68.5415 30.9953 68.5415 31.3487Z" fill="#B0B8C5"/>
<path d="M79.6791 33.1487H75.9991V32.9187H77.8291V29.8087H75.9991V29.5687H78.0791V30.9287C78.2457 30.7953 78.4391 30.6453 78.6591 30.4787C78.8857 30.312 79.1324 30.152 79.3991 29.9987C79.6657 29.8453 79.9491 29.722 80.2491 29.6287C80.5491 29.5287 80.8591 29.4787 81.1791 29.4787C81.7057 29.4787 82.1191 29.5887 82.4191 29.8087C82.7191 30.022 82.9291 30.3053 83.0491 30.6587C83.1757 31.012 83.2391 31.392 83.2391 31.7987V32.9187H84.9691V33.1487H81.3791V32.9187H82.9891V31.7987C82.9891 31.5453 82.9624 31.2953 82.9091 31.0487C82.8624 30.7953 82.7724 30.5687 82.6391 30.3687C82.5057 30.1687 82.3224 30.0087 82.0891 29.8887C81.8557 29.7687 81.5524 29.7087 81.1791 29.7087C80.8591 29.7087 80.5491 29.7587 80.2491 29.8587C79.9491 29.9587 79.6657 30.0853 79.3991 30.2387C79.1324 30.392 78.8857 30.552 78.6591 30.7187C78.4391 30.8787 78.2457 31.0287 78.0791 31.1687V32.9187H79.6791V33.1487Z" fill="#B0B8C5"/>
<path d="M93.3717 32.7987C93.1517 32.9053 92.8884 33.0087 92.5817 33.1087C92.2751 33.202 91.9451 33.2487 91.5917 33.2487C91.1851 33.2487 90.8651 33.1487 90.6317 32.9487C90.3984 32.742 90.2817 32.3953 90.2817 31.9087V29.8087H88.9717V29.5687H90.2817V28.5787H90.5317V29.5687H92.9217V29.8087H90.5317V31.9087C90.5317 32.322 90.6284 32.612 90.8217 32.7787C91.0151 32.9387 91.2651 33.0187 91.5717 33.0187C91.9184 33.0187 92.2351 32.9753 92.5217 32.8887C92.8084 32.7953 93.0551 32.6953 93.2617 32.5887L93.3717 32.7987Z" fill="#B0B8C5"/>
<path d="M97.9556 33.1487H94.2756V32.9187H96.1156V28.1787H94.2856V27.9387H96.3656V30.9287C96.5323 30.7887 96.7256 30.6353 96.9456 30.4687C97.1723 30.302 97.419 30.1453 97.6856 29.9987C97.9523 29.8453 98.2356 29.722 98.5356 29.6287C98.8356 29.5287 99.1456 29.4787 99.4656 29.4787C99.9856 29.4787 100.392 29.5887 100.686 29.8087C100.986 30.022 101.199 30.3053 101.326 30.6587C101.452 31.012 101.516 31.392 101.516 31.7987V32.9187H103.246V33.1487H99.6556V32.9187H101.266V31.7987C101.266 31.5453 101.239 31.2953 101.186 31.0487C101.132 30.7953 101.039 30.5687 100.906 30.3687C100.779 30.1687 100.599 30.0087 100.366 29.8887C100.132 29.7687 99.8323 29.7087 99.4656 29.7087C99.1456 29.7087 98.8356 29.7587 98.5356 29.8587C98.2356 29.9587 97.9523 30.0853 97.6856 30.2387C97.419 30.3853 97.1723 30.542 96.9456 30.7087C96.7256 30.8753 96.5323 31.0253 96.3656 31.1587V32.9187H97.9556V33.1487Z" fill="#B0B8C5"/>
<path d="M110.06 32.4587C109.68 32.692 109.26 32.882 108.8 33.0287C108.34 33.1753 107.77 33.2487 107.09 33.2487C106.55 33.2487 106.06 33.1787 105.62 33.0387C105.187 32.892 104.84 32.6853 104.58 32.4187C104.32 32.1453 104.19 31.8187 104.19 31.4387C104.19 31.1187 104.28 30.8387 104.46 30.5987C104.64 30.352 104.883 30.1453 105.19 29.9787C105.497 29.812 105.84 29.6887 106.22 29.6087C106.6 29.522 106.99 29.4787 107.39 29.4787C108.15 29.4787 108.76 29.582 109.22 29.7887C109.687 29.9887 109.92 30.2753 109.92 30.6487C109.92 30.9087 109.813 31.1187 109.6 31.2787C109.393 31.4387 109.11 31.5587 108.75 31.6387C108.39 31.712 107.983 31.7487 107.53 31.7487C106.997 31.7487 106.48 31.702 105.98 31.6087C105.48 31.5153 104.973 31.3853 104.46 31.2187C104.447 31.292 104.44 31.3653 104.44 31.4387C104.44 31.752 104.553 32.0287 104.78 32.2687C105.013 32.502 105.33 32.6853 105.73 32.8187C106.13 32.9453 106.583 33.012 107.09 33.0187C107.717 33.0253 108.257 32.9587 108.71 32.8187C109.17 32.672 109.583 32.4853 109.95 32.2587L110.06 32.4587ZM107.39 29.7087C106.957 29.7087 106.54 29.762 106.14 29.8687C105.747 29.9687 105.403 30.1153 105.11 30.3087C104.817 30.502 104.617 30.7387 104.51 31.0187C105.503 31.3453 106.51 31.5087 107.53 31.5087C107.93 31.5087 108.29 31.482 108.61 31.4287C108.937 31.3687 109.193 31.2753 109.38 31.1487C109.573 31.022 109.67 30.8553 109.67 30.6487C109.67 30.3487 109.467 30.1187 109.06 29.9587C108.653 29.792 108.097 29.7087 107.39 29.7087Z" fill="#B0B8C5"/>
<path d="M121.212 32.4587C120.832 32.692 120.412 32.882 119.952 33.0287C119.492 33.1753 118.922 33.2487 118.242 33.2487C117.702 33.2487 117.212 33.1787 116.772 33.0387C116.339 32.892 115.992 32.6853 115.732 32.4187C115.472 32.1453 115.342 31.8187 115.342 31.4387C115.342 31.1187 115.432 30.8387 115.612 30.5987C115.792 30.352 116.036 30.1453 116.342 29.9787C116.649 29.812 116.992 29.6887 117.372 29.6087C117.752 29.522 118.142 29.4787 118.542 29.4787C119.302 29.4787 119.912 29.582 120.372 29.7887C120.839 29.9887 121.072 30.2753 121.072 30.6487C121.072 30.9087 120.966 31.1187 120.752 31.2787C120.546 31.4387 120.262 31.5587 119.902 31.6387C119.542 31.712 119.136 31.7487 118.682 31.7487C118.149 31.7487 117.632 31.702 117.132 31.6087C116.632 31.5153 116.126 31.3853 115.612 31.2187C115.599 31.292 115.592 31.3653 115.592 31.4387C115.592 31.752 115.706 32.0287 115.932 32.2687C116.166 32.502 116.482 32.6853 116.882 32.8187C117.282 32.9453 117.736 33.012 118.242 33.0187C118.869 33.0253 119.409 32.9587 119.862 32.8187C120.322 32.672 120.736 32.4853 121.102 32.2587L121.212 32.4587ZM118.542 29.7087C118.109 29.7087 117.692 29.762 117.292 29.8687C116.899 29.9687 116.556 30.1153 116.262 30.3087C115.969 30.502 115.769 30.7387 115.662 31.0187C116.656 31.3453 117.662 31.5087 118.682 31.5087C119.082 31.5087 119.442 31.482 119.762 31.4287C120.089 31.3687 120.346 31.2753 120.532 31.1487C120.726 31.022 120.822 30.8553 120.822 30.6487C120.822 30.3487 120.619 30.1187 120.212 29.9587C119.806 29.792 119.249 29.7087 118.542 29.7087Z" fill="#B0B8C5"/>
<path d="M130.522 32.9587C130.402 33.0453 130.272 33.1153 130.132 33.1687C129.992 33.222 129.845 33.2487 129.692 33.2487C129.438 33.2487 129.228 33.1587 129.062 32.9787C128.902 32.792 128.822 32.5353 128.822 32.2087V31.8687C128.262 32.2687 127.685 32.602 127.092 32.8687C126.498 33.1287 125.885 33.2587 125.252 33.2587C124.538 33.2587 123.962 33.1087 123.522 32.8087C123.088 32.502 122.872 32.0787 122.872 31.5387C122.872 31.1053 123.008 30.7353 123.282 30.4287C123.562 30.122 123.932 29.8887 124.392 29.7287C124.858 29.562 125.365 29.4787 125.912 29.4787C126.505 29.4787 127.048 29.5553 127.542 29.7087C128.035 29.862 128.462 30.032 128.822 30.2187V28.1687H126.982V27.9387H129.072V32.2087C129.072 32.4887 129.135 32.6953 129.262 32.8287C129.395 32.9553 129.542 33.0187 129.702 33.0187C129.842 33.0187 129.965 32.9987 130.072 32.9587C130.185 32.912 130.302 32.8453 130.422 32.7587L130.522 32.9587ZM123.122 31.5387C123.122 31.9787 123.308 32.3353 123.682 32.6087C124.062 32.882 124.585 33.0187 125.252 33.0187C125.805 33.0187 126.385 32.892 126.992 32.6387C127.598 32.3787 128.208 32.0353 128.822 31.6087V30.4687C128.448 30.2753 128.005 30.102 127.492 29.9487C126.985 29.7887 126.458 29.712 125.912 29.7187C125.405 29.712 124.938 29.7853 124.512 29.9387C124.092 30.0853 123.755 30.2953 123.502 30.5687C123.248 30.842 123.122 31.1653 123.122 31.5387Z" fill="#B0B8C5"/>
<path d="M137.444 30.7587C137.444 31.0587 137.324 31.3053 137.084 31.4987C136.851 31.692 136.541 31.8353 136.154 31.9287C135.767 32.022 135.347 32.0687 134.894 32.0687C134.454 32.0753 134.041 32.0353 133.654 31.9487C133.274 31.8553 132.974 31.712 132.754 31.5187C132.601 31.5853 132.457 31.6753 132.324 31.7887C132.197 31.902 132.134 32.042 132.134 32.2087C132.134 32.3087 132.177 32.412 132.264 32.5187C132.351 32.6253 132.494 32.7153 132.694 32.7887C132.894 32.862 133.167 32.8987 133.514 32.8987C133.707 32.8987 133.944 32.882 134.224 32.8487C134.504 32.8153 134.797 32.7753 135.104 32.7287C135.411 32.682 135.704 32.642 135.984 32.6087C136.264 32.5753 136.497 32.5587 136.684 32.5587C137.064 32.5587 137.384 32.632 137.644 32.7787C137.911 32.9187 138.044 33.1453 138.044 33.4587C138.044 33.7587 137.894 34.0087 137.594 34.2087C137.294 34.4087 136.887 34.5587 136.374 34.6587C135.861 34.7587 135.281 34.8087 134.634 34.8087C133.641 34.8087 132.924 34.6953 132.484 34.4687C132.044 34.2487 131.824 33.9753 131.824 33.6487C131.824 33.4687 131.877 33.312 131.984 33.1787C132.097 33.052 132.214 32.952 132.334 32.8787C132.167 32.7853 132.054 32.682 131.994 32.5687C131.934 32.4487 131.904 32.3387 131.904 32.2387C131.904 32.0253 131.981 31.8487 132.134 31.7087C132.294 31.5687 132.457 31.4653 132.624 31.3987C132.457 31.212 132.374 30.9987 132.374 30.7587C132.374 30.4653 132.491 30.2253 132.724 30.0387C132.957 29.8453 133.264 29.7053 133.644 29.6187C134.031 29.5253 134.447 29.4787 134.894 29.4787C135.247 29.4787 135.581 29.5053 135.894 29.5587C136.207 29.612 136.484 29.6953 136.724 29.8087C136.804 29.4553 136.961 29.182 137.194 28.9887C137.434 28.7953 137.714 28.692 138.034 28.6787V28.9287C137.767 28.942 137.531 29.0187 137.324 29.1587C137.117 29.2987 136.961 29.5387 136.854 29.8787C137.034 29.9787 137.177 30.102 137.284 30.2487C137.391 30.3953 137.444 30.5653 137.444 30.7587ZM132.624 30.7587C132.624 30.992 132.727 31.1887 132.934 31.3487C133.141 31.5087 133.417 31.6287 133.764 31.7087C134.111 31.7887 134.487 31.8287 134.894 31.8287C135.314 31.8287 135.697 31.7887 136.044 31.7087C136.391 31.6287 136.667 31.5087 136.874 31.3487C137.081 31.1887 137.184 30.992 137.184 30.7587C137.184 30.5187 137.081 30.322 136.874 30.1687C136.667 30.0153 136.391 29.902 136.044 29.8287C135.697 29.7487 135.314 29.7087 134.894 29.7087C134.487 29.7087 134.111 29.7487 133.764 29.8287C133.417 29.902 133.141 30.0153 132.934 30.1687C132.727 30.322 132.624 30.5187 132.624 30.7587ZM132.074 33.6187C132.074 33.8853 132.267 34.1087 132.654 34.2887C133.047 34.4753 133.704 34.5687 134.624 34.5687C135.224 34.5687 135.764 34.5287 136.244 34.4487C136.724 34.3753 137.101 34.2553 137.374 34.0887C137.654 33.922 137.794 33.712 137.794 33.4587C137.794 33.2253 137.691 33.0587 137.484 32.9587C137.284 32.852 137.017 32.7987 136.684 32.7987C136.484 32.7987 136.244 32.8153 135.964 32.8487C135.691 32.8753 135.401 32.912 135.094 32.9587C134.787 32.9987 134.491 33.0353 134.204 33.0687C133.924 33.0953 133.684 33.1087 133.484 33.1087C133.277 33.1087 133.094 33.0953 132.934 33.0687C132.774 33.042 132.637 33.0087 132.524 32.9687C132.391 33.0353 132.281 33.1253 132.194 33.2387C132.114 33.3587 132.074 33.4853 132.074 33.6187Z" fill="#B0B8C5"/>
<path d="M145.382 32.4587C145.002 32.692 144.582 32.882 144.122 33.0287C143.662 33.1753 143.092 33.2487 142.412 33.2487C141.872 33.2487 141.382 33.1787 140.942 33.0387C140.509 32.892 140.162 32.6853 139.902 32.4187C139.642 32.1453 139.512 31.8187 139.512 31.4387C139.512 31.1187 139.602 30.8387 139.782 30.5987C139.962 30.352 140.206 30.1453 140.512 29.9787C140.819 29.812 141.162 29.6887 141.542 29.6087C141.922 29.522 142.312 29.4787 142.712 29.4787C143.472 29.4787 144.082 29.582 144.542 29.7887C145.009 29.9887 145.242 30.2753 145.242 30.6487C145.242 30.9087 145.136 31.1187 144.922 31.2787C144.716 31.4387 144.432 31.5587 144.072 31.6387C143.712 31.712 143.306 31.7487 142.852 31.7487C142.319 31.7487 141.802 31.702 141.302 31.6087C140.802 31.5153 140.296 31.3853 139.782 31.2187C139.769 31.292 139.762 31.3653 139.762 31.4387C139.762 31.752 139.876 32.0287 140.102 32.2687C140.336 32.502 140.652 32.6853 141.052 32.8187C141.452 32.9453 141.906 33.012 142.412 33.0187C143.039 33.0253 143.579 32.9587 144.032 32.8187C144.492 32.672 144.906 32.4853 145.272 32.2587L145.382 32.4587ZM142.712 29.7087C142.279 29.7087 141.862 29.762 141.462 29.8687C141.069 29.9687 140.726 30.1153 140.432 30.3087C140.139 30.502 139.939 30.7387 139.832 31.0187C140.826 31.3453 141.832 31.5087 142.852 31.5087C143.252 31.5087 143.612 31.482 143.932 31.4287C144.259 31.3687 144.516 31.2753 144.702 31.1487C144.896 31.022 144.992 30.8553 144.992 30.6487C144.992 30.3487 144.789 30.1187 144.382 29.9587C143.976 29.792 143.419 29.7087 142.712 29.7087Z" fill="#B0B8C5"/>
<path d="M5.06251 34.8087H1.07251V34.5687H2.88251V29.8087H1.07251V29.5687H3.13251V30.8687C3.69251 30.4687 4.26918 30.1387 4.86251 29.8787C5.45584 29.612 6.06918 29.4787 6.70251 29.4787C7.41584 29.4787 7.99251 29.6287 8.43251 29.9287C8.87251 30.2287 9.09251 30.652 9.09251 31.1987C9.09251 31.6253 8.95251 31.992 8.67251 32.2987C8.39251 32.6053 8.02251 32.842 7.56251 33.0087C7.10251 33.1687 6.59584 33.2487 6.04251 33.2487C5.44251 33.2487 4.89584 33.172 4.40251 33.0187C3.91584 32.8653 3.49251 32.6953 3.13251 32.5087V34.5687H5.06251V34.8087ZM6.70251 29.7087C6.14251 29.7087 5.55918 29.8387 4.95251 30.0987C4.35251 30.352 3.74584 30.6887 3.13251 31.1087V32.2787C3.50584 32.4653 3.94584 32.6387 4.45251 32.7987C4.95918 32.952 5.48918 33.0253 6.04251 33.0187C6.55584 33.0253 7.02251 32.9553 7.44251 32.8087C7.86918 32.6553 8.20918 32.442 8.46251 32.1687C8.71584 31.8887 8.84251 31.5653 8.84251 31.1987C8.84251 30.752 8.65251 30.392 8.27251 30.1187C7.89918 29.8453 7.37584 29.7087 6.70251 29.7087Z" stroke="#B0B8C5" stroke-width="0.4" mask="url(#path-14-outside-1_681_13)"/>
<path d="M14.3134 33.1487H10.4034V32.9187H12.2334V29.8087H10.4034V29.5687H12.4834V30.9387C13.07 30.492 13.6567 30.1387 14.2434 29.8787C14.8367 29.612 15.48 29.4787 16.1734 29.4787H16.4234V30.9587H16.1734V29.7087C15.5534 29.7087 14.94 29.8387 14.3334 30.0987C13.7334 30.352 13.1167 30.7087 12.4834 31.1687V32.9187H14.3134V33.1487Z" stroke="#B0B8C5" stroke-width="0.4" mask="url(#path-14-outside-1_681_13)"/>
<path d="M24.379 31.3487C24.379 31.7487 24.2357 32.092 23.949 32.3787C23.669 32.6587 23.2857 32.8753 22.799 33.0287C22.319 33.1753 21.779 33.2487 21.179 33.2487C20.5857 33.2487 20.0457 33.1753 19.559 33.0287C19.0723 32.8753 18.6857 32.6587 18.399 32.3787C18.119 32.092 17.979 31.7487 17.979 31.3487C17.979 30.942 18.119 30.602 18.399 30.3287C18.6857 30.0487 19.0723 29.8387 19.559 29.6987C20.0457 29.552 20.5857 29.4787 21.179 29.4787C21.779 29.4787 22.319 29.552 22.799 29.6987C23.2857 29.8387 23.669 30.0487 23.949 30.3287C24.2357 30.602 24.379 30.942 24.379 31.3487ZM18.229 31.3487C18.229 31.6953 18.359 31.9953 18.619 32.2487C18.879 32.4953 19.229 32.6853 19.669 32.8187C20.1157 32.952 20.619 33.0187 21.179 33.0187C21.739 33.0187 22.239 32.952 22.679 32.8187C23.1257 32.6853 23.479 32.4953 23.739 32.2487C23.999 31.9953 24.129 31.6953 24.129 31.3487C24.129 30.9953 23.999 30.6987 23.739 30.4587C23.479 30.212 23.1257 30.0253 22.679 29.8987C22.239 29.772 21.739 29.7087 21.179 29.7087C20.619 29.7087 20.1157 29.7753 19.669 29.9087C19.229 30.0353 18.879 30.2187 18.619 30.4587C18.359 30.6987 18.229 30.9953 18.229 31.3487Z" stroke="#B0B8C5" stroke-width="0.4" mask="url(#path-14-outside-1_681_13)"/>
<path d="M33.6466 32.9587C33.5266 33.0453 33.3966 33.1153 33.2566 33.1687C33.1166 33.222 32.9699 33.2487 32.8166 33.2487C32.5632 33.2487 32.3532 33.1587 32.1866 32.9787C32.0266 32.792 31.9466 32.5353 31.9466 32.2087V31.8687C31.3866 32.2687 30.8099 32.602 30.2166 32.8687C29.6232 33.1287 29.0099 33.2587 28.3766 33.2587C27.6632 33.2587 27.0866 33.1087 26.6466 32.8087C26.2132 32.502 25.9966 32.0787 25.9966 31.5387C25.9966 31.1053 26.1332 30.7353 26.4066 30.4287C26.6866 30.122 27.0566 29.8887 27.5166 29.7287C27.9832 29.562 28.4899 29.4787 29.0366 29.4787C29.6299 29.4787 30.1732 29.5553 30.6666 29.7087C31.1599 29.862 31.5866 30.032 31.9466 30.2187V28.1687H30.1066V27.9387H32.1966V32.2087C32.1966 32.4887 32.2599 32.6953 32.3866 32.8287C32.5199 32.9553 32.6666 33.0187 32.8266 33.0187C32.9666 33.0187 33.0899 32.9987 33.1966 32.9587C33.3099 32.912 33.4266 32.8453 33.5466 32.7587L33.6466 32.9587ZM26.2466 31.5387C26.2466 31.9787 26.4332 32.3353 26.8066 32.6087C27.1866 32.882 27.7099 33.0187 28.3766 33.0187C28.9299 33.0187 29.5099 32.892 30.1166 32.6387C30.7232 32.3787 31.3332 32.0353 31.9466 31.6087V30.4687C31.5732 30.2753 31.1299 30.102 30.6166 29.9487C30.1099 29.7887 29.5832 29.712 29.0366 29.7187C28.5299 29.712 28.0632 29.7853 27.6366 29.9387C27.2166 30.0853 26.8799 30.2953 26.6266 30.5687C26.3732 30.842 26.2466 31.1653 26.2466 31.5387Z" stroke="#B0B8C5" stroke-width="0.4" mask="url(#path-14-outside-1_681_13)"/>
<path d="M42.7791 32.9587C42.6524 33.0453 42.5224 33.1153 42.3891 33.1687C42.2557 33.222 42.1057 33.2487 41.9391 33.2487C41.6991 33.2487 41.4991 33.1687 41.3391 33.0087C41.1791 32.842 41.0891 32.6087 41.0691 32.3087C40.5891 32.542 40.1057 32.7587 39.6191 32.9587C39.1391 33.152 38.6224 33.2487 38.0691 33.2487C37.4624 33.2487 36.9824 33.1153 36.6291 32.8487C36.2757 32.5753 36.0991 32.1253 36.0991 31.4987V29.8087H34.3891V29.5687H36.3591V31.4987C36.3591 32.0253 36.5057 32.4087 36.7991 32.6487C37.0991 32.8887 37.5224 33.012 38.0691 33.0187C38.5557 33.0187 39.0557 32.9253 39.5691 32.7387C40.0824 32.5453 40.5824 32.3287 41.0691 32.0887V29.8087H39.4591V29.5687H41.3191V32.2087C41.3191 32.4887 41.3824 32.6953 41.5091 32.8287C41.6424 32.9553 41.7924 33.0187 41.9591 33.0187C42.0924 33.0187 42.2157 32.9987 42.3291 32.9587C42.4424 32.912 42.5591 32.8453 42.6791 32.7587L42.7791 32.9587Z" stroke="#B0B8C5" stroke-width="0.4" mask="url(#path-14-outside-1_681_13)"/>
<path d="M50.1799 32.1887C49.7866 32.502 49.3333 32.7553 48.8199 32.9487C48.3133 33.142 47.7199 33.2387 47.0399 33.2387C46.5199 33.2387 46.0433 33.1687 45.6099 33.0287C45.1766 32.882 44.8299 32.6753 44.5699 32.4087C44.3166 32.1353 44.1899 31.8087 44.1899 31.4287C44.1899 31.0953 44.2733 30.8087 44.4399 30.5687C44.6133 30.322 44.8433 30.1187 45.1299 29.9587C45.4166 29.792 45.7366 29.6687 46.0899 29.5887C46.4433 29.5087 46.7999 29.472 47.1599 29.4787C47.7333 29.4787 48.2633 29.5753 48.7499 29.7687C49.2366 29.962 49.6166 30.202 49.8899 30.4887V29.5687H50.1199V30.9287L50.0599 30.9487C49.8399 30.6553 49.5699 30.4187 49.2499 30.2387C48.9366 30.0587 48.5966 29.9253 48.2299 29.8387C47.8699 29.752 47.5066 29.7087 47.1399 29.7087C46.8066 29.7087 46.4799 29.7453 46.1599 29.8187C45.8399 29.8853 45.5499 29.992 45.2899 30.1387C45.0299 30.2853 44.8233 30.4653 44.6699 30.6787C44.5166 30.892 44.4399 31.142 44.4399 31.4287C44.4399 31.742 44.5533 32.0187 44.7799 32.2587C45.0133 32.492 45.3266 32.6753 45.7199 32.8087C46.1133 32.9353 46.5533 33.002 47.0399 33.0087C47.6666 33.0153 48.2299 32.922 48.7299 32.7287C49.2299 32.5353 49.6666 32.2953 50.0399 32.0087L50.1799 32.1887Z" stroke="#B0B8C5" stroke-width="0.4" mask="url(#path-14-outside-1_681_13)"/>
<path d="M55.7936 32.7987C55.5736 32.9053 55.3103 33.0087 55.0036 33.1087C54.6969 33.202 54.3669 33.2487 54.0136 33.2487C53.6069 33.2487 53.2869 33.1487 53.0536 32.9487C52.8203 32.742 52.7036 32.3953 52.7036 31.9087V29.8087H51.3936V29.5687H52.7036V28.5787H52.9536V29.5687H55.3436V29.8087H52.9536V31.9087C52.9536 32.322 53.0503 32.612 53.2436 32.7787C53.4369 32.9387 53.6869 33.0187 53.9936 33.0187C54.3403 33.0187 54.6569 32.9753 54.9436 32.8887C55.2303 32.7953 55.4769 32.6953 55.6836 32.5887L55.7936 32.7987Z" stroke="#B0B8C5" stroke-width="0.4" mask="url(#path-14-outside-1_681_13)"/>
<path d="M62.8075 32.2887C62.8075 32.622 62.6008 32.8653 62.1875 33.0187C61.7742 33.172 61.2108 33.2487 60.4975 33.2487C59.8775 33.2487 59.3075 33.1553 58.7875 32.9687C58.2675 32.782 57.8675 32.5553 57.5875 32.2887V33.1487H57.3475V31.7887C57.5808 32.0753 57.8675 32.312 58.2075 32.4987C58.5542 32.6787 58.9275 32.812 59.3275 32.8987C59.7342 32.9853 60.1408 33.0287 60.5475 33.0287C60.9008 33.0287 61.2275 33.0087 61.5275 32.9687C61.8342 32.9287 62.0808 32.8587 62.2675 32.7587C62.4608 32.652 62.5575 32.4987 62.5575 32.2987C62.5575 32.1253 62.4742 31.9887 62.3075 31.8887C62.1475 31.7887 61.8842 31.7087 61.5175 31.6487C61.1508 31.5887 60.6608 31.542 60.0475 31.5087C59.1275 31.4553 58.4575 31.3487 58.0375 31.1887C57.6242 31.022 57.4175 30.7853 57.4175 30.4787C57.4175 30.1787 57.5908 29.9387 57.9375 29.7587C58.2908 29.572 58.8442 29.4787 59.5975 29.4787C60.2175 29.4787 60.7708 29.572 61.2575 29.7587C61.7442 29.9453 62.1242 30.1787 62.3975 30.4587V29.5687H62.6375V30.9487C62.2708 30.5153 61.8208 30.1987 61.2875 29.9987C60.7608 29.7987 60.1808 29.6987 59.5475 29.6987C58.9608 29.6987 58.4975 29.762 58.1575 29.8887C57.8242 30.0153 57.6575 30.2053 57.6575 30.4587C57.6575 30.692 57.8375 30.872 58.1975 30.9987C58.5575 31.1187 59.1742 31.2053 60.0475 31.2587C61.0008 31.3187 61.6975 31.4153 62.1375 31.5487C62.5842 31.682 62.8075 31.9287 62.8075 32.2887Z" stroke="#B0B8C5" stroke-width="0.4" mask="url(#path-14-outside-1_681_13)"/>
<path d="M74.6915 31.3487C74.6915 31.7487 74.5482 32.092 74.2615 32.3787C73.9815 32.6587 73.5982 32.8753 73.1115 33.0287C72.6315 33.1753 72.0915 33.2487 71.4915 33.2487C70.8982 33.2487 70.3582 33.1753 69.8715 33.0287C69.3848 32.8753 68.9982 32.6587 68.7115 32.3787C68.4315 32.092 68.2915 31.7487 68.2915 31.3487C68.2915 30.942 68.4315 30.602 68.7115 30.3287C68.9982 30.0487 69.3848 29.8387 69.8715 29.6987C70.3582 29.552 70.8982 29.4787 71.4915 29.4787C72.0915 29.4787 72.6315 29.552 73.1115 29.6987C73.5982 29.8387 73.9815 30.0487 74.2615 30.3287C74.5482 30.602 74.6915 30.942 74.6915 31.3487ZM68.5415 31.3487C68.5415 31.6953 68.6715 31.9953 68.9315 32.2487C69.1915 32.4953 69.5415 32.6853 69.9815 32.8187C70.4282 32.952 70.9315 33.0187 71.4915 33.0187C72.0515 33.0187 72.5515 32.952 72.9915 32.8187C73.4382 32.6853 73.7915 32.4953 74.0515 32.2487C74.3115 31.9953 74.4415 31.6953 74.4415 31.3487C74.4415 30.9953 74.3115 30.6987 74.0515 30.4587C73.7915 30.212 73.4382 30.0253 72.9915 29.8987C72.5515 29.772 72.0515 29.7087 71.4915 29.7087C70.9315 29.7087 70.4282 29.7753 69.9815 29.9087C69.5415 30.0353 69.1915 30.2187 68.9315 30.4587C68.6715 30.6987 68.5415 30.9953 68.5415 31.3487Z" stroke="#B0B8C5" stroke-width="0.4" mask="url(#path-14-outside-1_681_13)"/>
<path d="M79.6791 33.1487H75.9991V32.9187H77.8291V29.8087H75.9991V29.5687H78.0791V30.9287C78.2457 30.7953 78.4391 30.6453 78.6591 30.4787C78.8857 30.312 79.1324 30.152 79.3991 29.9987C79.6657 29.8453 79.9491 29.722 80.2491 29.6287C80.5491 29.5287 80.8591 29.4787 81.1791 29.4787C81.7057 29.4787 82.1191 29.5887 82.4191 29.8087C82.7191 30.022 82.9291 30.3053 83.0491 30.6587C83.1757 31.012 83.2391 31.392 83.2391 31.7987V32.9187H84.9691V33.1487H81.3791V32.9187H82.9891V31.7987C82.9891 31.5453 82.9624 31.2953 82.9091 31.0487C82.8624 30.7953 82.7724 30.5687 82.6391 30.3687C82.5057 30.1687 82.3224 30.0087 82.0891 29.8887C81.8557 29.7687 81.5524 29.7087 81.1791 29.7087C80.8591 29.7087 80.5491 29.7587 80.2491 29.8587C79.9491 29.9587 79.6657 30.0853 79.3991 30.2387C79.1324 30.392 78.8857 30.552 78.6591 30.7187C78.4391 30.8787 78.2457 31.0287 78.0791 31.1687V32.9187H79.6791V33.1487Z" stroke="#B0B8C5" stroke-width="0.4" mask="url(#path-14-outside-1_681_13)"/>
<path d="M93.3717 32.7987C93.1517 32.9053 92.8884 33.0087 92.5817 33.1087C92.2751 33.202 91.9451 33.2487 91.5917 33.2487C91.1851 33.2487 90.8651 33.1487 90.6317 32.9487C90.3984 32.742 90.2817 32.3953 90.2817 31.9087V29.8087H88.9717V29.5687H90.2817V28.5787H90.5317V29.5687H92.9217V29.8087H90.5317V31.9087C90.5317 32.322 90.6284 32.612 90.8217 32.7787C91.0151 32.9387 91.2651 33.0187 91.5717 33.0187C91.9184 33.0187 92.2351 32.9753 92.5217 32.8887C92.8084 32.7953 93.0551 32.6953 93.2617 32.5887L93.3717 32.7987Z" stroke="#B0B8C5" stroke-width="0.4" mask="url(#path-14-outside-1_681_13)"/>
<path d="M97.9556 33.1487H94.2756V32.9187H96.1156V28.1787H94.2856V27.9387H96.3656V30.9287C96.5323 30.7887 96.7256 30.6353 96.9456 30.4687C97.1723 30.302 97.419 30.1453 97.6856 29.9987C97.9523 29.8453 98.2356 29.722 98.5356 29.6287C98.8356 29.5287 99.1456 29.4787 99.4656 29.4787C99.9856 29.4787 100.392 29.5887 100.686 29.8087C100.986 30.022 101.199 30.3053 101.326 30.6587C101.452 31.012 101.516 31.392 101.516 31.7987V32.9187H103.246V33.1487H99.6556V32.9187H101.266V31.7987C101.266 31.5453 101.239 31.2953 101.186 31.0487C101.132 30.7953 101.039 30.5687 100.906 30.3687C100.779 30.1687 100.599 30.0087 100.366 29.8887C100.132 29.7687 99.8323 29.7087 99.4656 29.7087C99.1456 29.7087 98.8356 29.7587 98.5356 29.8587C98.2356 29.9587 97.9523 30.0853 97.6856 30.2387C97.419 30.3853 97.1723 30.542 96.9456 30.7087C96.7256 30.8753 96.5323 31.0253 96.3656 31.1587V32.9187H97.9556V33.1487Z" stroke="#B0B8C5" stroke-width="0.4" mask="url(#path-14-outside-1_681_13)"/>
<path d="M110.06 32.4587C109.68 32.692 109.26 32.882 108.8 33.0287C108.34 33.1753 107.77 33.2487 107.09 33.2487C106.55 33.2487 106.06 33.1787 105.62 33.0387C105.187 32.892 104.84 32.6853 104.58 32.4187C104.32 32.1453 104.19 31.8187 104.19 31.4387C104.19 31.1187 104.28 30.8387 104.46 30.5987C104.64 30.352 104.883 30.1453 105.19 29.9787C105.497 29.812 105.84 29.6887 106.22 29.6087C106.6 29.522 106.99 29.4787 107.39 29.4787C108.15 29.4787 108.76 29.582 109.22 29.7887C109.687 29.9887 109.92 30.2753 109.92 30.6487C109.92 30.9087 109.813 31.1187 109.6 31.2787C109.393 31.4387 109.11 31.5587 108.75 31.6387C108.39 31.712 107.983 31.7487 107.53 31.7487C106.997 31.7487 106.48 31.702 105.98 31.6087C105.48 31.5153 104.973 31.3853 104.46 31.2187C104.447 31.292 104.44 31.3653 104.44 31.4387C104.44 31.752 104.553 32.0287 104.78 32.2687C105.013 32.502 105.33 32.6853 105.73 32.8187C106.13 32.9453 106.583 33.012 107.09 33.0187C107.717 33.0253 108.257 32.9587 108.71 32.8187C109.17 32.672 109.583 32.4853 109.95 32.2587L110.06 32.4587ZM107.39 29.7087C106.957 29.7087 106.54 29.762 106.14 29.8687C105.747 29.9687 105.403 30.1153 105.11 30.3087C104.817 30.502 104.617 30.7387 104.51 31.0187C105.503 31.3453 106.51 31.5087 107.53 31.5087C107.93 31.5087 108.29 31.482 108.61 31.4287C108.937 31.3687 109.193 31.2753 109.38 31.1487C109.573 31.022 109.67 30.8553 109.67 30.6487C109.67 30.3487 109.467 30.1187 109.06 29.9587C108.653 29.792 108.097 29.7087 107.39 29.7087Z" stroke="#B0B8C5" stroke-width="0.4" mask="url(#path-14-outside-1_681_13)"/>
<path d="M121.212 32.4587C120.832 32.692 120.412 32.882 119.952 33.0287C119.492 33.1753 118.922 33.2487 118.242 33.2487C117.702 33.2487 117.212 33.1787 116.772 33.0387C116.339 32.892 115.992 32.6853 115.732 32.4187C115.472 32.1453 115.342 31.8187 115.342 31.4387C115.342 31.1187 115.432 30.8387 115.612 30.5987C115.792 30.352 116.036 30.1453 116.342 29.9787C116.649 29.812 116.992 29.6887 117.372 29.6087C117.752 29.522 118.142 29.4787 118.542 29.4787C119.302 29.4787 119.912 29.582 120.372 29.7887C120.839 29.9887 121.072 30.2753 121.072 30.6487C121.072 30.9087 120.966 31.1187 120.752 31.2787C120.546 31.4387 120.262 31.5587 119.902 31.6387C119.542 31.712 119.136 31.7487 118.682 31.7487C118.149 31.7487 117.632 31.702 117.132 31.6087C116.632 31.5153 116.126 31.3853 115.612 31.2187C115.599 31.292 115.592 31.3653 115.592 31.4387C115.592 31.752 115.706 32.0287 115.932 32.2687C116.166 32.502 116.482 32.6853 116.882 32.8187C117.282 32.9453 117.736 33.012 118.242 33.0187C118.869 33.0253 119.409 32.9587 119.862 32.8187C120.322 32.672 120.736 32.4853 121.102 32.2587L121.212 32.4587ZM118.542 29.7087C118.109 29.7087 117.692 29.762 117.292 29.8687C116.899 29.9687 116.556 30.1153 116.262 30.3087C115.969 30.502 115.769 30.7387 115.662 31.0187C116.656 31.3453 117.662 31.5087 118.682 31.5087C119.082 31.5087 119.442 31.482 119.762 31.4287C120.089 31.3687 120.346 31.2753 120.532 31.1487C120.726 31.022 120.822 30.8553 120.822 30.6487C120.822 30.3487 120.619 30.1187 120.212 29.9587C119.806 29.792 119.249 29.7087 118.542 29.7087Z" stroke="#B0B8C5" stroke-width="0.4" mask="url(#path-14-outside-1_681_13)"/>
<path d="M130.522 32.9587C130.402 33.0453 130.272 33.1153 130.132 33.1687C129.992 33.222 129.845 33.2487 129.692 33.2487C129.438 33.2487 129.228 33.1587 129.062 32.9787C128.902 32.792 128.822 32.5353 128.822 32.2087V31.8687C128.262 32.2687 127.685 32.602 127.092 32.8687C126.498 33.1287 125.885 33.2587 125.252 33.2587C124.538 33.2587 123.962 33.1087 123.522 32.8087C123.088 32.502 122.872 32.0787 122.872 31.5387C122.872 31.1053 123.008 30.7353 123.282 30.4287C123.562 30.122 123.932 29.8887 124.392 29.7287C124.858 29.562 125.365 29.4787 125.912 29.4787C126.505 29.4787 127.048 29.5553 127.542 29.7087C128.035 29.862 128.462 30.032 128.822 30.2187V28.1687H126.982V27.9387H129.072V32.2087C129.072 32.4887 129.135 32.6953 129.262 32.8287C129.395 32.9553 129.542 33.0187 129.702 33.0187C129.842 33.0187 129.965 32.9987 130.072 32.9587C130.185 32.912 130.302 32.8453 130.422 32.7587L130.522 32.9587ZM123.122 31.5387C123.122 31.9787 123.308 32.3353 123.682 32.6087C124.062 32.882 124.585 33.0187 125.252 33.0187C125.805 33.0187 126.385 32.892 126.992 32.6387C127.598 32.3787 128.208 32.0353 128.822 31.6087V30.4687C128.448 30.2753 128.005 30.102 127.492 29.9487C126.985 29.7887 126.458 29.712 125.912 29.7187C125.405 29.712 124.938 29.7853 124.512 29.9387C124.092 30.0853 123.755 30.2953 123.502 30.5687C123.248 30.842 123.122 31.1653 123.122 31.5387Z" stroke="#B0B8C5" stroke-width="0.4" mask="url(#path-14-outside-1_681_13)"/>
<path d="M137.444 30.7587C137.444 31.0587 137.324 31.3053 137.084 31.4987C136.851 31.692 136.541 31.8353 136.154 31.9287C135.767 32.022 135.347 32.0687 134.894 32.0687C134.454 32.0753 134.041 32.0353 133.654 31.9487C133.274 31.8553 132.974 31.712 132.754 31.5187C132.601 31.5853 132.457 31.6753 132.324 31.7887C132.197 31.902 132.134 32.042 132.134 32.2087C132.134 32.3087 132.177 32.412 132.264 32.5187C132.351 32.6253 132.494 32.7153 132.694 32.7887C132.894 32.862 133.167 32.8987 133.514 32.8987C133.707 32.8987 133.944 32.882 134.224 32.8487C134.504 32.8153 134.797 32.7753 135.104 32.7287C135.411 32.682 135.704 32.642 135.984 32.6087C136.264 32.5753 136.497 32.5587 136.684 32.5587C137.064 32.5587 137.384 32.632 137.644 32.7787C137.911 32.9187 138.044 33.1453 138.044 33.4587C138.044 33.7587 137.894 34.0087 137.594 34.2087C137.294 34.4087 136.887 34.5587 136.374 34.6587C135.861 34.7587 135.281 34.8087 134.634 34.8087C133.641 34.8087 132.924 34.6953 132.484 34.4687C132.044 34.2487 131.824 33.9753 131.824 33.6487C131.824 33.4687 131.877 33.312 131.984 33.1787C132.097 33.052 132.214 32.952 132.334 32.8787C132.167 32.7853 132.054 32.682 131.994 32.5687C131.934 32.4487 131.904 32.3387 131.904 32.2387C131.904 32.0253 131.981 31.8487 132.134 31.7087C132.294 31.5687 132.457 31.4653 132.624 31.3987C132.457 31.212 132.374 30.9987 132.374 30.7587C132.374 30.4653 132.491 30.2253 132.724 30.0387C132.957 29.8453 133.264 29.7053 133.644 29.6187C134.031 29.5253 134.447 29.4787 134.894 29.4787C135.247 29.4787 135.581 29.5053 135.894 29.5587C136.207 29.612 136.484 29.6953 136.724 29.8087C136.804 29.4553 136.961 29.182 137.194 28.9887C137.434 28.7953 137.714 28.692 138.034 28.6787V28.9287C137.767 28.942 137.531 29.0187 137.324 29.1587C137.117 29.2987 136.961 29.5387 136.854 29.8787C137.034 29.9787 137.177 30.102 137.284 30.2487C137.391 30.3953 137.444 30.5653 137.444 30.7587ZM132.624 30.7587C132.624 30.992 132.727 31.1887 132.934 31.3487C133.141 31.5087 133.417 31.6287 133.764 31.7087C134.111 31.7887 134.487 31.8287 134.894 31.8287C135.314 31.8287 135.697 31.7887 136.044 31.7087C136.391 31.6287 136.667 31.5087 136.874 31.3487C137.081 31.1887 137.184 30.992 137.184 30.7587C137.184 30.5187 137.081 30.322 136.874 30.1687C136.667 30.0153 136.391 29.902 136.044 29.8287C135.697 29.7487 135.314 29.7087 134.894 29.7087C134.487 29.7087 134.111 29.7487 133.764 29.8287C133.417 29.902 133.141 30.0153 132.934 30.1687C132.727 30.322 132.624 30.5187 132.624 30.7587ZM132.074 33.6187C132.074 33.8853 132.267 34.1087 132.654 34.2887C133.047 34.4753 133.704 34.5687 134.624 34.5687C135.224 34.5687 135.764 34.5287 136.244 34.4487C136.724 34.3753 137.101 34.2553 137.374 34.0887C137.654 33.922 137.794 33.712 137.794 33.4587C137.794 33.2253 137.691 33.0587 137.484 32.9587C137.284 32.852 137.017 32.7987 136.684 32.7987C136.484 32.7987 136.244 32.8153 135.964 32.8487C135.691 32.8753 135.401 32.912 135.094 32.9587C134.787 32.9987 134.491 33.0353 134.204 33.0687C133.924 33.0953 133.684 33.1087 133.484 33.1087C133.277 33.1087 133.094 33.0953 132.934 33.0687C132.774 33.042 132.637 33.0087 132.524 32.9687C132.391 33.0353 132.281 33.1253 132.194 33.2387C132.114 33.3587 132.074 33.4853 132.074 33.6187Z" stroke="#B0B8C5" stroke-width="0.4" mask="url(#path-14-outside-1_681_13)"/>
<path d="M145.382 32.4587C145.002 32.692 144.582 32.882 144.122 33.0287C143.662 33.1753 143.092 33.2487 142.412 33.2487C141.872 33.2487 141.382 33.1787 140.942 33.0387C140.509 32.892 140.162 32.6853 139.902 32.4187C139.642 32.1453 139.512 31.8187 139.512 31.4387C139.512 31.1187 139.602 30.8387 139.782 30.5987C139.962 30.352 140.206 30.1453 140.512 29.9787C140.819 29.812 141.162 29.6887 141.542 29.6087C141.922 29.522 142.312 29.4787 142.712 29.4787C143.472 29.4787 144.082 29.582 144.542 29.7887C145.009 29.9887 145.242 30.2753 145.242 30.6487C145.242 30.9087 145.136 31.1187 144.922 31.2787C144.716 31.4387 144.432 31.5587 144.072 31.6387C143.712 31.712 143.306 31.7487 142.852 31.7487C142.319 31.7487 141.802 31.702 141.302 31.6087C140.802 31.5153 140.296 31.3853 139.782 31.2187C139.769 31.292 139.762 31.3653 139.762 31.4387C139.762 31.752 139.876 32.0287 140.102 32.2687C140.336 32.502 140.652 32.6853 141.052 32.8187C141.452 32.9453 141.906 33.012 142.412 33.0187C143.039 33.0253 143.579 32.9587 144.032 32.8187C144.492 32.672 144.906 32.4853 145.272 32.2587L145.382 32.4587ZM142.712 29.7087C142.279 29.7087 141.862 29.762 141.462 29.8687C141.069 29.9687 140.726 30.1153 140.432 30.3087C140.139 30.502 139.939 30.7387 139.832 31.0187C140.826 31.3453 141.832 31.5087 142.852 31.5087C143.252 31.5087 143.612 31.482 143.932 31.4287C144.259 31.3687 144.516 31.2753 144.702 31.1487C144.896 31.022 144.992 30.8553 144.992 30.6487C144.992 30.3487 144.789 30.1187 144.382 29.9587C143.976 29.792 143.419 29.7087 142.712 29.7087Z" stroke="#B0B8C5" stroke-width="0.4" mask="url(#path-14-outside-1_681_13)"/>
<defs>
<clipPath id="clip0_681_13">
<rect width="129.701" height="23.4399" fill="white" transform="translate(1.07251 0.498779)"/>
</clipPath>
</defs>
</svg>
